<svg width="917" height="874" viewBox="0 0 917 874" fill="none" xmlns="http://www.w3.org/2000/svg">
<path d="M900.933 313.734C900.601 312.653 899.956 311.694 899.078 310.979C898.201 310.265 897.131 309.827 896.005 309.721C894.879 309.615 893.746 309.846 892.751 310.385C891.756 310.923 890.943 311.745 890.415 312.745C889.888 313.746 889.669 314.881 889.787 316.007C889.905 317.132 890.355 318.197 891.078 319.066C891.802 319.936 892.768 320.571 893.853 320.891C894.938 321.211 896.094 321.202 897.174 320.865C897.889 320.643 898.554 320.284 899.13 319.805C899.706 319.327 900.182 318.741 900.531 318.078C900.88 317.416 901.095 316.692 901.164 315.946C901.233 315.201 901.155 314.449 900.933 313.734Z" fill="white"/>
<path d="M888.931 317.983C889.554 320.032 889.342 322.245 888.341 324.139C887.34 326.033 885.632 327.455 883.588 328.096L869.21 332.681C868.158 333.007 867.05 333.116 865.954 333C864.859 332.884 863.799 332.546 862.838 332.007L843.808 337.839C842.265 338.317 840.596 338.163 839.167 337.411C837.738 336.659 836.667 335.37 836.189 333.827C835.71 332.285 835.864 330.616 836.616 329.187C837.369 327.758 838.658 326.687 840.2 326.208L859.231 320.292C859.715 319.304 860.395 318.426 861.229 317.71C862.064 316.994 863.036 316.456 864.086 316.128L878.464 311.678C880.514 311.051 882.728 311.261 884.624 312.263C886.519 313.264 887.94 314.975 888.577 317.022L888.881 317.983L888.931 317.983Z" fill="white"/>
<path d="M843.808 337.839C842.265 338.317 840.596 338.163 839.167 337.411C837.738 336.659 836.667 335.37 836.189 333.827C835.71 332.285 835.864 330.616 836.616 329.187C837.369 327.758 838.658 326.687 840.2 326.208" fill="white"/>
<path d="M915.462 410.766C915.421 409.635 915.046 408.542 914.383 407.624C913.721 406.708 912.801 406.008 911.741 405.614C910.68 405.22 909.526 405.15 908.426 405.413C907.325 405.675 906.327 406.259 905.558 407.088C904.79 407.918 904.285 408.958 904.108 410.076C903.93 411.193 904.089 412.339 904.563 413.365C905.037 414.393 905.806 415.256 906.771 415.846C907.736 416.436 908.855 416.727 909.986 416.681C910.734 416.651 911.469 416.477 912.149 416.163C912.829 415.85 913.441 415.408 913.949 414.857C914.458 414.308 914.853 413.665 915.113 412.962C915.372 412.26 915.491 411.514 915.462 410.766Z" fill="white"/>
<path d="M902.769 411.763C902.84 413.904 902.063 415.987 900.606 417.557C899.149 419.127 897.131 420.059 894.99 420.149L879.916 420.856C878.815 420.899 877.717 420.717 876.688 420.322C875.66 419.926 874.724 419.325 873.935 418.556L854.044 419.264C852.43 419.326 850.858 418.746 849.672 417.649C848.486 416.553 847.786 415.031 847.723 413.417C847.66 411.803 848.24 410.231 849.337 409.045C850.434 407.86 851.956 407.159 853.57 407.096L873.483 406.307C874.206 405.478 875.091 404.806 876.081 404.33C877.073 403.854 878.151 403.586 879.251 403.541L894.29 402.964C896.433 402.889 898.517 403.665 900.089 405.124C901.66 406.581 902.59 408.601 902.676 410.743L902.721 411.75L902.769 411.763Z" fill="white"/>
<path d="M854.045 419.264C852.43 419.327 850.858 418.746 849.673 417.65C848.487 416.553 847.786 415.031 847.724 413.417C847.66 411.803 848.241 410.231 849.337 409.046C850.434 407.86 851.956 407.159 853.57 407.096" fill="white"/>
<path d="M869.8 241.843C869.262 240.848 868.441 240.036 867.44 239.508C866.44 238.98 865.306 238.761 864.181 238.879C863.056 238.996 861.992 239.444 861.122 240.167C860.252 240.89 859.616 241.854 859.295 242.939C858.974 244.023 858.981 245.178 859.317 246.258C859.653 247.338 860.301 248.294 861.181 249.005C862.06 249.716 863.131 250.15 864.257 250.253C865.383 250.355 866.514 250.121 867.507 249.58C868.836 248.856 869.823 247.636 870.253 246.185C870.682 244.735 870.52 243.173 869.8 241.843Z" fill="white"/>
<path d="M858.86 248.4C859.87 250.286 860.095 252.495 859.486 254.547C858.877 256.598 857.483 258.327 855.607 259.356L842.392 266.537C841.423 267.066 840.356 267.39 839.257 267.488C838.158 267.587 837.05 267.458 836.003 267.11L818.523 276.617C817.819 277.04 817.036 277.316 816.223 277.428C815.409 277.54 814.581 277.487 813.788 277.271C812.996 277.054 812.255 276.68 811.612 276.17C810.968 275.66 810.434 275.024 810.042 274.302C809.65 273.58 809.409 272.786 809.332 271.969C809.255 271.151 809.345 270.326 809.596 269.543C809.846 268.761 810.253 268.038 810.791 267.417C811.328 266.796 811.986 266.29 812.725 265.93L830.238 256.423C830.519 255.355 831.016 254.356 831.697 253.486C832.378 252.616 833.23 251.895 834.199 251.367L847.415 244.186C848.352 243.676 849.38 243.357 850.441 243.245C851.502 243.134 852.574 243.233 853.597 243.537C854.619 243.84 855.572 244.343 856.4 245.015C857.228 245.688 857.915 246.517 858.422 247.456L858.911 248.332L858.86 248.4Z" fill="white"/>
<path d="M818.523 276.617C817.819 277.04 817.036 277.316 816.223 277.428C815.409 277.541 814.581 277.487 813.788 277.271C812.996 277.054 812.255 276.68 811.612 276.17C810.968 275.66 810.434 275.024 810.042 274.302C809.65 273.58 809.409 272.786 809.332 271.969C809.255 271.151 809.345 270.326 809.596 269.544C809.846 268.761 810.253 268.038 810.791 267.417C811.328 266.796 811.986 266.29 812.725 265.93" fill="white"/>
<path d="M827.255 176.34C826.535 175.475 825.575 174.842 824.496 174.521C823.417 174.201 822.267 174.207 821.192 174.54C820.116 174.872 819.163 175.516 818.453 176.389C817.743 177.263 817.308 178.327 817.202 179.448C817.096 180.569 817.325 181.696 817.859 182.687C818.393 183.677 819.209 184.488 820.203 185.016C821.198 185.543 822.326 185.765 823.446 185.652C824.566 185.539 825.628 185.096 826.497 184.381C827.076 183.904 827.555 183.317 827.907 182.654C828.259 181.991 828.476 181.265 828.546 180.518C828.617 179.771 828.539 179.017 828.318 178.3C828.096 177.584 827.735 176.917 827.255 176.34Z" fill="white"/>
<path d="M817.765 184.835C818.447 185.656 818.959 186.604 819.273 187.624C819.588 188.644 819.697 189.715 819.595 190.778C819.493 191.84 819.182 192.872 818.68 193.813C818.178 194.755 817.494 195.588 816.669 196.264L805.038 205.838C804.187 206.537 803.203 207.055 802.145 207.362C801.088 207.669 799.979 207.759 798.886 207.625L783.513 220.301C782.263 221.277 780.681 221.727 779.104 221.554C777.527 221.381 776.08 220.6 775.071 219.375C774.062 218.151 773.571 216.581 773.703 215C773.835 213.419 774.578 211.952 775.776 210.912L791.149 198.236C791.217 197.134 791.511 196.059 792.012 195.076C792.514 194.092 793.213 193.223 794.065 192.522L805.662 182.948C807.323 181.579 809.46 180.926 811.603 181.131C813.746 181.337 815.719 182.384 817.09 184.043L817.731 184.835L817.765 184.835Z" fill="white"/>
<path d="M783.547 220.301C782.302 221.33 780.699 221.821 779.092 221.668C777.485 221.514 776.004 220.729 774.976 219.484C773.947 218.239 773.456 216.636 773.609 215.029C773.763 213.421 774.548 211.941 775.793 210.912" fill="white"/>
<path d="M774.495 118.81C773.623 118.091 772.557 117.646 771.433 117.533C770.308 117.419 769.175 117.642 768.177 118.173C767.179 118.703 766.361 119.518 765.826 120.514C765.291 121.51 765.063 122.642 765.171 123.767C765.28 124.892 765.72 125.96 766.435 126.835C767.151 127.71 768.109 128.353 769.191 128.683C770.272 129.013 771.426 129.016 772.509 128.689C773.591 128.363 774.552 127.723 775.271 126.85C776.233 125.681 776.692 124.177 776.547 122.67C776.402 121.162 775.664 119.774 774.495 118.81Z" fill="white"/>
<path d="M766.792 128.958C768.451 130.329 769.498 132.302 769.704 134.445C769.909 136.588 769.256 138.725 767.887 140.386L758.313 151.983C757.614 152.833 756.747 153.531 755.767 154.033C754.787 154.534 753.714 154.829 752.616 154.899L739.94 170.272C738.914 171.519 737.435 172.308 735.827 172.464C734.22 172.621 732.616 172.132 731.369 171.106C730.121 170.08 729.333 168.601 729.176 166.994C729.02 165.386 729.508 163.782 730.534 162.535L743.227 147.162C743.085 146.069 743.171 144.958 743.478 143.9C743.786 142.841 744.308 141.857 745.014 141.01L754.588 129.396C755.956 127.738 757.927 126.691 760.067 126.485C762.207 126.28 764.341 126.933 766 128.3L766.792 128.958Z" fill="white"/>
<path d="M739.923 170.272C739.423 170.912 738.8 171.446 738.09 171.841C737.38 172.237 736.599 172.486 735.791 172.575C734.984 172.663 734.166 172.589 733.388 172.357C732.609 172.124 731.885 171.739 731.258 171.222C730.631 170.705 730.114 170.068 729.737 169.348C729.36 168.629 729.131 167.841 729.064 167.031C728.997 166.221 729.092 165.406 729.344 164.634C729.597 163.862 730.002 163.148 730.534 162.535" fill="white"/>
<path d="M712.785 70.6689C711.792 70.1279 710.66 69.8938 709.534 69.9961C708.408 70.0984 707.337 70.5327 706.458 71.2438C705.579 71.9549 704.93 72.9109 704.594 73.9908C704.259 75.0707 704.251 76.226 704.572 77.3102C704.894 78.3945 705.529 79.3591 706.399 80.0818C707.269 80.8046 708.334 81.253 709.458 81.3703C710.583 81.4876 711.717 81.2685 712.718 80.7408C713.718 80.2131 714.539 79.4005 715.077 78.4058C715.438 77.7481 715.665 77.0253 715.745 76.2794C715.825 75.5334 715.757 74.7789 715.543 74.0596C715.33 73.3402 714.977 72.6702 714.503 72.0882C714.03 71.5063 713.446 71.0239 712.785 70.6689Z" fill="#FFBC00"/>
<path d="M707.171 82.0804C709.061 83.1103 710.464 84.8476 711.074 86.9111C711.684 88.9747 711.451 91.1959 710.425 93.0874L703.244 106.32C702.719 107.292 701.998 108.145 701.128 108.827C700.258 109.509 699.257 110.003 698.187 110.281L688.731 127.794C688.349 128.498 687.832 129.12 687.21 129.624C686.588 130.128 685.873 130.505 685.105 130.733C684.337 130.961 683.532 131.035 682.736 130.952C681.939 130.868 681.167 130.629 680.463 130.247C679.759 129.865 679.137 129.348 678.633 128.726C678.129 128.104 677.752 127.389 677.524 126.621C677.297 125.853 677.222 125.048 677.306 124.251C677.389 123.455 677.629 122.683 678.01 121.979L687.517 104.465C687.177 103.42 687.052 102.316 687.15 101.221C687.249 100.126 687.569 99.0617 688.09 98.0937L695.271 84.8953C695.779 83.9582 696.468 83.1305 697.296 82.4597C698.125 81.7888 699.077 81.288 700.1 80.9858C701.122 80.6836 702.194 80.5861 703.254 80.6987C704.314 80.8113 705.342 81.1319 706.278 81.6421L707.171 82.1141L707.171 82.0804Z" fill="#FFBC00"/>
<path d="M688.731 127.794C688.349 128.498 687.832 129.12 687.21 129.624C686.588 130.129 685.873 130.505 685.105 130.733C684.337 130.961 683.532 131.035 682.736 130.952C681.939 130.868 681.167 130.629 680.463 130.247C679.759 129.865 679.137 129.348 678.633 128.726C678.129 128.104 677.752 127.389 677.524 126.621C677.297 125.853 677.222 125.048 677.306 124.252C677.389 123.455 677.629 122.683 678.01 121.979" fill="#FFBC00"/>
<path d="M655.777 39.7211C654.784 39.1801 653.653 38.946 652.527 39.0484C651.401 39.1507 650.33 39.5849 649.451 40.296C648.571 41.0071 647.923 41.9632 647.587 43.0431C647.252 44.123 647.244 45.2782 647.565 46.3625C647.886 47.4468 648.522 48.4113 649.392 49.1341C650.262 49.8568 651.326 50.3052 652.451 50.4226C653.576 50.5399 654.71 50.3208 655.71 49.7931C656.711 49.2654 657.532 48.4527 658.07 47.4581C658.79 46.1277 658.952 44.5661 658.523 43.1158C658.093 41.6655 657.106 40.4447 655.777 39.7211Z" fill="white"/>
<path d="M650.164 51.183C652.053 52.2129 653.457 53.9502 654.067 56.0138C654.677 58.0773 654.443 60.2986 653.417 62.1901L646.236 75.4053C645.711 76.3777 644.991 77.2313 644.121 77.9128C643.251 78.5944 642.25 79.0892 641.18 79.3665L631.673 96.88C631.291 97.5829 630.774 98.2036 630.153 98.7068C629.531 99.2099 628.816 99.5858 628.049 99.8127C627.282 100.04 626.478 100.113 625.683 100.03C624.887 99.9457 624.116 99.706 623.413 99.3242C622.71 98.9423 622.09 98.4258 621.587 97.8041C621.083 97.1823 620.708 96.4676 620.481 95.7006C620.254 94.9337 620.18 94.1295 620.264 93.3341C620.348 92.5386 620.587 91.7675 620.969 91.0647L630.476 73.5511C630.136 72.5054 630.012 71.4017 630.11 70.3067C630.209 69.2116 630.528 68.1478 631.049 67.1795L638.23 53.9474C639.26 52.0581 640.997 50.6545 643.061 50.0446C645.124 49.4347 647.345 49.6683 649.237 50.6942L650.13 51.183L650.164 51.183Z" fill="white"/>
<path d="M631.707 96.8465C630.935 98.2659 629.632 99.3208 628.083 99.7792C626.534 100.238 624.866 100.062 623.447 99.2907C622.028 98.5195 620.973 97.2161 620.514 95.6671C620.056 94.1181 620.232 92.4505 621.003 91.0311" fill="white"/>
<path d="M581.644 13.9311C580.567 13.5983 579.417 13.5921 578.337 13.9133C577.257 14.2345 576.296 14.8686 575.577 15.7356C574.857 16.6025 574.411 17.6634 574.294 18.784C574.177 19.9045 574.396 21.0346 574.921 22.0312C575.446 23.0279 576.255 23.8464 577.246 24.3832C578.237 24.9201 579.364 25.1512 580.486 25.0474C581.608 24.9436 582.674 24.5095 583.549 23.8C584.424 23.0905 585.069 22.1374 585.403 21.0613C585.624 20.3463 585.703 19.5946 585.634 18.8493C585.565 18.1039 585.35 17.3795 585.001 16.7173C584.652 16.0551 584.176 15.4682 583.6 14.9902C583.024 14.5121 582.359 14.1522 581.644 13.9311Z" fill="white"/>
<path d="M578.357 26.2192C580.401 26.8601 582.109 28.2823 583.11 30.1764C584.11 32.0705 584.323 34.2832 583.7 36.3329L579.166 50.745C578.847 51.8008 578.312 52.7789 577.595 53.6174C576.878 54.4559 575.996 55.1366 575.002 55.6164L569.103 74.647C568.624 76.1893 567.553 77.4785 566.124 78.2308C564.695 78.9832 563.026 79.1371 561.484 78.6587C559.941 78.1804 558.652 77.109 557.9 75.6801C557.148 74.2513 556.994 72.5821 557.472 71.0398L563.388 52.0092C562.845 51.0502 562.504 49.9904 562.385 48.8947C562.266 47.799 562.373 46.6907 562.697 45.6375L567.164 31.2761C567.801 29.2294 569.223 27.5183 571.118 26.5169C573.013 25.5156 575.228 25.3055 577.278 25.9327L578.256 26.2192L578.357 26.2192Z" fill="white"/>
<path d="M569.17 74.6469C568.692 76.1892 567.62 77.4784 566.192 78.2307C564.763 78.9831 563.094 79.137 561.551 78.6587C560.009 78.1803 558.72 77.1089 557.967 75.68C557.215 74.2512 557.061 72.582 557.539 71.0397" fill="white"/>
<path d="M504.072 0.884281C502.946 0.759722 501.809 0.972448 500.804 1.49545C499.8 2.01845 498.973 2.82814 498.43 3.82173C497.886 4.81531 497.65 5.94797 497.752 7.07591C497.853 8.20386 498.288 9.27621 499 10.1568C499.712 11.0374 500.67 11.6866 501.751 12.0219C502.833 12.3572 503.99 12.3635 505.075 12.04C506.161 11.7165 507.125 11.0778 507.847 10.205C508.569 9.33224 509.015 8.26468 509.128 7.13791C509.28 5.6395 508.833 4.14194 507.886 2.97087C506.939 1.79981 505.569 1.04992 504.072 0.884281Z" fill="white"/>
<path d="M503.313 13.5939C505.458 13.8192 507.426 14.8865 508.785 16.5614C510.144 18.2364 510.783 20.3822 510.561 22.5277L509.044 37.496C508.932 38.5917 508.597 39.653 508.061 40.6151C507.525 41.5773 506.798 42.4201 505.926 43.0922L503.937 62.915C503.878 63.7267 503.657 64.5183 503.286 65.243C502.916 65.9677 502.404 66.6107 501.781 67.1341C501.157 67.6574 500.436 68.0503 499.658 68.2897C498.88 68.5291 498.062 68.6101 497.252 68.5277C496.443 68.4454 495.658 68.2015 494.944 67.8105C494.23 67.4194 493.602 66.8892 493.097 66.2512C492.592 65.6131 492.22 64.8802 492.003 64.0958C491.786 63.3114 491.729 62.4915 491.834 61.6846L493.823 41.8617C493.104 41.0289 492.561 40.0587 492.228 39.0097C491.894 37.9608 491.778 36.8551 491.885 35.7598L493.402 20.7915C493.507 19.7309 493.821 18.7014 494.324 17.7621C494.828 16.8227 495.512 15.9919 496.337 15.3171C497.162 14.6423 498.112 14.1368 499.133 13.8296C500.153 13.5223 501.224 13.4194 502.285 13.5265L503.296 13.6277L503.313 13.5939Z" fill="white"/>
<path d="M503.937 62.8812C503.776 64.4883 502.983 65.9657 501.733 66.9884C500.483 68.011 498.878 68.4951 497.271 68.3341C495.663 68.1732 494.186 67.3804 493.163 66.1302C492.141 64.88 491.657 63.2747 491.818 61.6675" fill="white"/>
<path d="M425.421 0.614721C424.299 0.731308 423.238 1.17816 422.37 1.89868C421.502 2.6192 420.868 3.58097 420.548 4.66219C420.227 5.74341 420.235 6.89544 420.569 7.97237C420.904 9.0493 421.551 10.0027 422.428 10.7118C423.305 11.4209 424.372 11.8538 425.495 11.9557C426.619 12.0575 427.747 11.8238 428.737 11.2841C429.727 10.7444 430.535 9.92294 431.058 8.92381C431.581 7.92468 431.796 6.79282 431.675 5.67157C431.597 4.92859 431.373 4.20826 431.017 3.5518C430.66 2.89534 430.178 2.31566 429.597 1.84595C429.016 1.37623 428.348 1.0257 427.632 0.814427C426.915 0.603155 426.164 0.535292 425.421 0.614721Z" fill="white"/>
<path d="M427.208 13.2566C429.347 13.04 431.484 13.6819 433.15 15.0412C434.816 16.4004 435.874 18.3657 436.091 20.5048L437.608 35.473C437.713 36.5709 437.596 37.6788 437.263 38.7302C436.93 39.7816 436.388 40.7549 435.669 41.5918L437.675 61.4147C437.836 63.0218 437.352 64.6271 436.329 65.8773C435.307 67.1275 433.829 67.9203 432.222 68.0813C430.615 68.2422 429.01 67.7581 427.76 66.7355C426.509 65.7129 425.717 64.2355 425.556 62.6283L423.55 42.7549C422.678 42.0833 421.953 41.2403 421.42 40.2778C420.886 39.3154 420.556 38.2538 420.448 37.1587L418.931 22.1904C418.824 21.1299 418.927 20.0587 419.234 19.0381C419.542 18.0175 420.047 17.0675 420.722 16.2424C421.397 15.4173 422.227 14.7334 423.167 14.2297C424.106 13.7261 425.136 13.4126 426.196 13.3072L427.208 13.2061L427.208 13.2566Z" fill="white"/>
<path d="M437.659 61.4148C437.764 62.9901 437.253 64.5447 436.233 65.7501C435.214 66.9556 433.765 67.7175 432.194 67.8751C430.624 68.0326 429.053 67.5734 427.814 66.5944C426.576 65.6154 425.766 64.1933 425.556 62.6284" fill="white"/>
<path d="M347.748 13.2061C346.683 13.5563 345.745 14.2129 345.051 15.0938C344.357 15.9747 343.939 17.0407 343.848 18.1582C343.758 19.2758 343.999 20.3952 344.542 21.3764C345.084 22.3575 345.904 23.1567 346.899 23.6738C347.894 24.1909 349.019 24.403 350.134 24.2835C351.249 24.164 352.304 23.7182 353.167 23.002C354.029 22.2857 354.661 21.3309 354.984 20.257C355.306 19.1832 355.305 18.038 354.979 16.9651C354.759 16.2385 354.395 15.5632 353.91 14.9791C353.425 14.3949 352.828 13.9136 352.155 13.5634C351.481 13.2132 350.744 13.0012 349.987 12.9399C349.231 12.8785 348.469 12.969 347.748 13.2061Z" fill="white"/>
<path d="M352.013 25.208C354.062 24.5808 356.277 24.7909 358.172 25.7922C360.068 26.7935 361.489 28.5047 362.126 30.5514L366.593 44.9128C366.922 45.9653 367.03 47.0744 366.911 48.1706C366.792 49.2669 366.449 50.3269 365.902 51.2844L371.835 70.315C372.314 71.8574 372.16 73.5266 371.407 74.9554C370.655 76.3842 369.366 77.4557 367.824 77.934C366.281 78.4124 364.612 78.2584 363.183 77.5061C361.754 76.7537 360.683 75.4646 360.205 73.9223L354.305 54.8917C353.314 54.4093 352.432 53.7278 351.716 52.8896C350.999 52.0515 350.464 51.0747 350.142 50.0202L345.675 35.6588C345.043 33.609 345.251 31.3923 346.253 29.4958C347.255 27.5993 348.969 26.1783 351.018 25.5451L351.996 25.2417L352.013 25.208Z" fill="white"/>
<path d="M371.835 70.3149C372.314 71.8572 372.16 73.5264 371.407 74.9553C370.655 76.3841 369.366 77.4555 367.824 77.9339C366.281 78.4122 364.612 78.2583 363.183 77.5059C361.754 76.7536 360.683 75.4645 360.205 73.9221" fill="white"/>
<path d="M273.429 38.5578C272.434 39.0959 271.622 39.917 271.094 40.9172C270.566 41.9174 270.347 43.0517 270.465 44.1765C270.582 45.3013 271.03 46.3659 271.753 47.2357C272.476 48.1055 273.44 48.7413 274.525 49.0625C275.609 49.3838 276.764 49.3761 277.844 49.0405C278.924 48.7048 279.88 48.0563 280.591 47.1769C281.302 46.2976 281.736 45.2271 281.839 44.1009C281.941 42.9746 281.707 41.8433 281.166 40.8503C280.811 40.1893 280.329 39.6052 279.747 39.1317C279.165 38.6581 278.495 38.3046 277.775 38.0915C277.056 37.8783 276.301 37.8098 275.555 37.8898C274.81 37.9699 274.087 38.1969 273.429 38.5578Z" fill="#AA46EB"/>
<path d="M279.936 49.4975C281.826 48.4769 284.043 48.2463 286.102 48.8559C288.162 49.4655 289.896 50.8659 290.926 52.7507L298.107 65.9828C298.631 66.9498 298.953 68.0138 299.051 69.1094C299.15 70.2051 299.023 71.3094 298.68 72.3544L308.203 89.9522C308.975 91.3716 309.15 93.0392 308.692 94.5882C308.234 96.1372 307.179 97.4406 305.759 98.2118C304.34 98.9829 302.672 99.1587 301.123 98.7003C299.574 98.2419 298.271 97.187 297.5 95.7676L287.993 78.1529C286.923 77.8757 285.922 77.3808 285.052 76.6993C284.182 76.0177 283.461 75.1641 282.936 74.1917L275.755 60.9765C275.252 60.0341 274.94 59.0016 274.838 57.9383C274.735 56.8751 274.843 55.8019 275.157 54.7807C275.47 53.7594 275.982 52.8101 276.663 51.9873C277.344 51.1645 278.182 50.4845 279.127 49.9863L280.02 49.4975L279.936 49.4975Z" fill="#AA46EB"/>
<path d="M308.203 89.9521C308.974 91.3715 309.15 93.0392 308.692 94.5882C308.233 96.1372 307.178 97.4405 305.759 98.2117C304.34 98.9828 302.672 99.1586 301.123 98.7002C299.574 98.2418 298.271 97.1869 297.499 95.7675" fill="#AA46EB"/>
<path d="M216.421 69.5058C215.427 70.0439 214.614 70.865 214.086 71.8652C213.559 72.8654 213.34 73.9997 213.457 75.1244C213.574 76.2492 214.023 77.3139 214.745 78.1837C215.468 79.0535 216.433 79.6892 217.517 80.0105C218.601 80.3318 219.757 80.3241 220.836 79.9884C221.916 79.6528 222.872 79.0042 223.584 78.1249C224.295 77.2456 224.729 76.175 224.831 75.0488C224.934 73.9226 224.699 72.7913 224.158 71.7982C223.803 71.1372 223.321 70.5531 222.739 70.0796C222.157 69.6061 221.487 69.2526 220.768 69.0394C220.048 68.8263 219.294 68.7578 218.548 68.8378C217.802 68.9178 217.079 69.1449 216.421 69.5058Z" fill="white"/>
<path d="M222.928 80.4454C223.864 79.9352 224.892 79.6146 225.952 79.502C227.012 79.3894 228.084 79.487 229.106 79.7892C230.129 80.0913 231.081 80.5922 231.91 81.263C232.739 81.9339 233.427 82.7616 233.935 83.6987L241.116 96.9308C241.641 97.8974 241.963 98.9614 242.062 100.057C242.16 101.153 242.033 102.257 241.689 103.302L251.196 120.816C251.965 122.235 252.138 123.902 251.678 125.449C251.218 126.997 250.163 128.298 248.743 129.067C247.324 129.836 245.657 130.01 244.11 129.55C242.562 129.09 241.261 128.034 240.492 126.614L230.985 109.101C229.915 108.824 228.914 108.329 228.044 107.647C227.174 106.966 226.454 106.112 225.928 105.14L218.748 91.9245C217.722 90.033 217.488 87.8117 218.098 85.7482C218.708 83.6846 220.112 81.9473 222.001 80.9174L222.894 80.4454L222.928 80.4454Z" fill="white"/>
<path d="M251.196 120.816C251.578 121.519 251.817 122.29 251.901 123.085C251.985 123.881 251.911 124.685 251.684 125.452C251.457 126.219 251.082 126.934 250.578 127.555C250.075 128.177 249.455 128.694 248.752 129.075C248.049 129.457 247.278 129.697 246.482 129.781C245.687 129.865 244.883 129.791 244.116 129.564C243.349 129.337 242.634 128.961 242.012 128.458C241.391 127.955 240.874 127.334 240.492 126.631" fill="white"/>
<path d="M154.391 117.259C153.519 117.978 152.879 118.939 152.552 120.021C152.226 121.104 152.228 122.258 152.558 123.339C152.888 124.421 153.532 125.379 154.407 126.095C155.282 126.81 156.35 127.25 157.475 127.359C158.6 127.467 159.732 127.239 160.728 126.704C161.724 126.169 162.538 125.351 163.069 124.353C163.6 123.355 163.822 122.222 163.709 121.097C163.595 119.973 163.151 118.907 162.432 118.035C161.468 116.866 160.08 116.128 158.572 115.983C157.064 115.837 155.561 116.297 154.391 117.259Z" fill="white"/>
<path d="M162.937 126.749C164.599 125.381 166.735 124.727 168.878 124.933C171.021 125.138 172.994 126.186 174.366 127.845L183.94 139.459C184.634 140.306 185.15 141.285 185.457 142.336C185.764 143.387 185.856 144.49 185.727 145.578L198.402 160.933C198.912 161.55 199.294 162.261 199.529 163.025C199.763 163.789 199.845 164.593 199.769 165.388C199.693 166.184 199.461 166.958 199.086 167.664C198.712 168.37 198.201 168.996 197.585 169.505C196.968 170.014 196.258 170.397 195.493 170.631C194.729 170.866 193.926 170.947 193.13 170.871C192.334 170.795 191.561 170.563 190.855 170.189C190.148 169.814 189.523 169.304 189.014 168.687L176.304 153.348C175.206 153.276 174.134 152.98 173.154 152.479C172.174 151.977 171.307 151.281 170.607 150.432L161.134 138.835C160.453 138.016 159.941 137.07 159.627 136.053C159.313 135.035 159.203 133.965 159.304 132.905C159.404 131.845 159.712 130.815 160.212 129.874C160.711 128.934 161.391 128.101 162.212 127.423L163.005 126.766L162.937 126.749Z" fill="white"/>
<path d="M198.402 160.984C199.379 162.234 199.829 163.817 199.656 165.394C199.483 166.97 198.701 168.418 197.477 169.426C196.253 170.435 194.683 170.926 193.102 170.794C191.521 170.663 190.054 169.919 189.014 168.721" fill="white"/>
<path d="M154.391 117.259C153.519 117.978 152.879 118.939 152.552 120.021C152.226 121.104 152.228 122.258 152.558 123.339C152.888 124.421 153.532 125.379 154.407 126.095C155.282 126.81 156.35 127.25 157.475 127.359C158.6 127.467 159.732 127.239 160.728 126.704C161.724 126.169 162.538 125.351 163.069 124.353C163.6 123.355 163.822 122.222 163.709 121.097C163.595 119.973 163.151 118.907 162.432 118.035C161.468 116.866 160.08 116.128 158.572 115.983C157.064 115.837 155.561 116.297 154.391 117.259Z" fill="white"/>
<path d="M162.937 126.749C164.599 125.381 166.735 124.727 168.878 124.933C171.021 125.138 172.994 126.186 174.366 127.845L183.94 139.459C184.634 140.306 185.15 141.285 185.457 142.336C185.764 143.387 185.856 144.49 185.727 145.578L198.402 160.933C198.912 161.55 199.294 162.261 199.529 163.025C199.763 163.789 199.845 164.593 199.769 165.388C199.693 166.184 199.461 166.958 199.086 167.664C198.712 168.37 198.201 168.996 197.585 169.505C196.968 170.014 196.258 170.397 195.493 170.631C194.729 170.866 193.926 170.947 193.13 170.871C192.334 170.795 191.561 170.563 190.855 170.189C190.148 169.814 189.523 169.304 189.014 168.687L176.304 153.348C175.206 153.276 174.134 152.98 173.154 152.479C172.174 151.977 171.307 151.281 170.607 150.432L161.134 138.835C160.453 138.016 159.941 137.07 159.627 136.053C159.313 135.035 159.203 133.965 159.304 132.905C159.404 131.845 159.712 130.815 160.212 129.874C160.711 128.934 161.391 128.101 162.212 127.423L163.005 126.766L162.937 126.749Z" fill="white"/>
<path d="M198.402 160.984C199.379 162.234 199.829 163.817 199.656 165.394C199.483 166.97 198.701 168.418 197.477 169.426C196.253 170.435 194.683 170.926 193.102 170.794C191.521 170.663 190.054 169.919 189.014 168.721" fill="white"/>
<path d="M101.344 174.469C100.625 175.341 100.181 176.407 100.067 177.531C99.9537 178.656 100.177 179.789 100.707 180.787C101.238 181.785 102.052 182.603 103.048 183.138C104.044 183.673 105.176 183.901 106.301 183.793C107.426 183.684 108.494 183.244 109.369 182.529C110.244 181.813 110.888 180.855 111.218 179.773C111.548 178.692 111.55 177.538 111.224 176.455C110.897 175.373 110.258 174.412 109.385 173.693C108.807 173.215 108.14 172.855 107.422 172.634C106.705 172.414 105.951 172.338 105.204 172.41C104.456 172.482 103.731 172.701 103.069 173.054C102.406 173.408 101.82 173.888 101.344 174.469Z" fill="white"/>
<path d="M111.492 182.173C112.17 181.349 113.003 180.667 113.945 180.167C114.886 179.666 115.917 179.355 116.979 179.254C118.04 179.152 119.112 179.261 120.131 179.573C121.151 179.886 122.099 180.397 122.92 181.077L134.517 190.651C135.369 191.349 136.068 192.216 136.569 193.196C137.071 194.176 137.365 195.25 137.434 196.349L152.806 209.025C154.004 210.065 154.748 211.532 154.88 213.113C155.011 214.694 154.52 216.264 153.511 217.488C152.503 218.712 151.056 219.494 149.479 219.667C147.902 219.84 146.319 219.39 145.069 218.413L129.697 205.738C128.603 205.871 127.495 205.782 126.437 205.475C125.38 205.168 124.395 204.649 123.544 203.951L111.93 194.461C110.271 193.09 109.223 191.116 109.018 188.973C108.813 186.83 109.466 184.694 110.834 183.032L111.492 182.257L111.492 182.173Z" fill="white"/>
<path d="M152.806 209.024C153.447 209.525 153.98 210.148 154.376 210.858C154.771 211.567 155.021 212.349 155.109 213.157C155.198 213.964 155.124 214.781 154.891 215.56C154.659 216.338 154.273 217.062 153.756 217.689C153.24 218.316 152.603 218.834 151.883 219.21C151.163 219.587 150.375 219.816 149.566 219.884C148.756 219.951 147.941 219.856 147.169 219.603C146.397 219.351 145.683 218.946 145.069 218.413" fill="white"/>
<path d="M58.4286 239.703C57.8877 240.696 57.6535 241.827 57.7559 242.953C57.8582 244.079 58.2924 245.15 59.0035 246.029C59.7146 246.909 60.6707 247.557 61.7506 247.893C62.8305 248.228 63.9857 248.236 65.07 247.915C66.1543 247.594 67.1188 246.958 67.8416 246.088C68.5643 245.218 69.0127 244.154 69.1301 243.029C69.2474 241.904 69.0283 240.77 68.5006 239.77C67.9729 238.769 67.1602 237.948 66.1656 237.41C64.8352 236.69 63.2736 236.528 61.8233 236.957C60.373 237.387 59.1522 238.374 58.4286 239.703Z" fill="white"/>
<path d="M69.857 245.332C70.3639 244.394 71.051 243.565 71.8789 242.892C72.7069 242.219 73.6594 241.717 74.6819 241.413C75.7044 241.109 76.7768 241.01 77.8377 241.122C78.8985 241.233 79.927 241.553 80.8641 242.062L94.0793 249.243C95.0523 249.768 95.9064 250.488 96.5881 251.358C97.2697 252.228 97.7642 253.23 98.0405 254.3L115.622 263.773C117.041 264.542 118.097 265.843 118.557 267.391C119.017 268.938 118.843 270.605 118.074 272.024C117.305 273.444 116.004 274.499 114.457 274.959C112.909 275.419 111.243 275.246 109.823 274.477L92.3094 264.97C91.2609 265.31 90.1545 265.434 89.0566 265.336C87.9588 265.238 86.8922 264.918 85.9209 264.397L72.7057 257.216C71.7672 256.709 70.9378 256.022 70.2653 255.194C69.5927 254.366 69.0902 253.414 68.7864 252.391C68.4826 251.369 68.3836 250.296 68.495 249.235C68.6064 248.174 68.926 247.146 69.4356 246.209L69.9244 245.332L69.857 245.332Z" fill="white"/>
<path d="M115.622 263.773C117.041 264.542 118.097 265.843 118.557 267.391C119.017 268.938 118.843 270.605 118.074 272.024C117.305 273.444 116.004 274.499 114.457 274.959C112.909 275.419 111.243 275.246 109.823 274.477" fill="white"/>
<path d="M26.8573 311.409C26.5245 312.485 26.5183 313.636 26.8394 314.716C27.1606 315.796 27.7948 316.756 28.6617 317.476C29.5287 318.195 30.5895 318.642 31.7101 318.758C32.8307 318.875 33.9607 318.657 34.9574 318.132C35.954 317.606 36.7725 316.797 37.3094 315.807C37.8462 314.816 38.0774 313.689 37.9735 312.567C37.8697 311.445 37.4356 310.379 36.7261 309.504C36.0166 308.629 35.0636 307.983 33.9874 307.65C33.2725 307.426 32.5203 307.346 31.7743 307.413C31.0282 307.481 30.3029 307.696 29.6402 308.046C28.9774 308.395 28.3904 308.872 27.9128 309.449C27.4352 310.026 27.0764 310.692 26.8573 311.409Z" fill="white"/>
<path d="M39.162 314.695C39.7993 312.648 41.2201 310.936 43.1146 309.932C45.0091 308.928 47.2237 308.713 49.2756 309.335L63.6539 313.802C64.7036 314.13 65.6754 314.668 66.5101 315.384C67.3447 316.1 68.0247 316.978 68.5085 317.966L87.5391 323.865C89.0815 324.344 90.3706 325.415 91.1229 326.844C91.8753 328.273 92.0292 329.942 91.5509 331.484C91.0725 333.026 90.0011 334.316 88.5723 335.068C87.1434 335.82 85.4742 335.974 83.9319 335.496L64.9013 329.596C63.9411 330.137 62.8807 330.475 61.7851 330.591C60.6894 330.707 59.5817 330.598 58.5297 330.271L44.1682 325.804C42.1189 325.17 40.4049 323.749 39.4029 321.853C38.4009 319.956 38.193 317.74 38.8248 315.69L39.1282 314.729L39.162 314.695Z" fill="white"/>
<path d="M87.573 323.882C88.3637 324.095 89.1033 324.465 89.7475 324.97C90.3918 325.476 90.9274 326.106 91.3224 326.823C91.7174 327.54 91.9636 328.33 92.0463 329.144C92.129 329.959 92.0464 330.782 91.8036 331.564C91.5607 332.345 91.1626 333.07 90.6329 333.695C90.1033 334.319 89.4532 334.83 88.7214 335.197C87.9896 335.565 87.1912 335.78 86.3741 335.832C85.5569 335.883 84.7378 335.769 83.9658 335.496" fill="white"/>
<path d="M7.53978 387.7C7.41861 388.822 7.63338 389.954 8.15685 390.954C8.68032 391.954 9.48891 392.776 10.4801 393.315C11.4713 393.855 12.6003 394.088 13.7241 393.985C14.848 393.882 15.9159 393.448 16.7925 392.737C17.669 392.026 18.3148 391.071 18.6479 389.993C18.9809 388.915 18.9862 387.762 18.6632 386.68C18.3401 385.599 17.7032 384.638 16.8332 383.919C15.9632 383.2 14.8994 382.756 13.7766 382.643C12.28 382.492 10.7844 382.939 9.616 383.886C8.44762 384.833 7.70128 386.204 7.53978 387.7Z" fill="#00AA6D"/>
<path d="M20.2494 388.475C20.3526 387.413 20.6647 386.383 21.1677 385.442C21.6707 384.502 22.3546 383.67 23.1802 382.995C24.0057 382.32 24.9566 381.814 25.9782 381.508C26.9997 381.202 28.0717 381.1 29.1326 381.21L44.1009 382.71C45.1971 382.82 46.2591 383.154 47.2215 383.69C48.1839 384.227 49.0264 384.954 49.6971 385.828L69.5199 387.834C70.3343 387.889 71.1293 388.106 71.8578 388.474C72.5863 388.842 73.2333 389.353 73.7604 389.976C74.2874 390.599 74.6837 391.322 74.9258 392.101C75.1678 392.881 75.2505 393.701 75.1691 394.513C75.0877 395.325 74.8437 396.112 74.4518 396.828C74.0598 397.544 73.5278 398.174 72.8876 398.68C72.2473 399.186 71.5117 399.558 70.7247 399.774C69.9376 399.99 69.1152 400.045 68.3063 399.937L48.4835 397.931C47.6508 398.656 46.678 399.202 45.6254 399.536C44.5729 399.869 43.463 399.983 42.3647 399.87L27.3964 398.42C25.2559 398.199 23.2906 397.137 21.9318 395.469C20.5729 393.8 19.9315 391.661 20.1483 389.52L20.2494 388.525L20.2494 388.475Z" fill="#00AA6D"/>
<path d="M69.5198 387.835C70.3342 387.889 71.1292 388.107 71.8577 388.475C72.5862 388.842 73.2332 389.353 73.7602 389.976C74.2873 390.599 74.6836 391.322 74.9256 392.102C75.1677 392.881 75.2504 393.701 75.169 394.513C75.0876 395.325 74.8436 396.113 74.4516 396.829C74.0597 397.544 73.5277 398.174 72.8874 398.68C72.2472 399.186 71.5116 399.558 70.7246 399.774C69.9375 399.99 69.1151 400.046 68.3062 399.937" fill="#00AA6D"/>
<path d="M0.890967 456.181C0.834343 457.308 1.11372 458.427 1.69366 459.395C2.27361 460.363 3.12799 461.137 4.14846 461.619C5.16894 462.101 6.30953 462.269 7.42559 462.101C8.54165 461.934 9.58289 461.439 10.4172 460.679C11.2516 459.919 11.8416 458.929 12.1122 457.833C12.3829 456.738 12.3221 455.586 11.9376 454.525C11.553 453.464 10.862 452.542 9.9523 451.874C9.04253 451.206 7.95495 450.824 6.82748 450.775C5.32355 450.705 3.85353 451.236 2.74039 452.249C1.62726 453.263 0.962069 454.677 0.890967 456.181Z" fill="white"/>
<path d="M13.6564 456.207C13.7008 455.143 13.9548 454.098 14.4041 453.132C14.8533 452.166 15.4888 451.299 16.2742 450.579C17.0595 449.859 17.9793 449.302 18.9806 448.939C19.982 448.575 21.0452 448.413 22.1093 448.462L37.139 449.101C38.2313 449.156 39.3011 449.431 40.2836 449.912C41.2661 450.392 42.1407 451.068 42.8544 451.896L62.8091 452.742C64.4229 452.811 65.9433 453.518 67.0359 454.707C68.1286 455.897 68.7039 457.472 68.6354 459.085C68.5669 460.699 67.8602 462.219 66.6706 463.312C65.4811 464.405 63.9062 464.98 62.2925 464.912L42.3873 464.046C41.5952 464.814 40.655 465.413 39.6238 465.806C38.5927 466.199 37.4923 466.378 36.3897 466.332L21.3591 465.676C19.216 465.586 17.1964 464.648 15.7443 463.069C14.2922 461.491 13.5264 459.4 13.6154 457.257L13.6583 456.241L13.6564 456.207Z" fill="white"/>
<path d="M62.8096 452.742C64.4233 452.811 65.9438 453.518 67.0364 454.707C68.1291 455.897 68.7044 457.471 68.6359 459.085C68.5674 460.699 67.8606 462.219 66.6711 463.312C65.4816 464.405 63.9067 464.98 62.293 464.912" fill="white"/>
<path d="M9.58043 538.986C9.83559 540.089 10.4129 541.093 11.2389 541.866C12.065 542.641 13.1026 543.153 14.22 543.337C15.3376 543.521 16.4845 543.369 17.5152 542.899C18.5459 542.43 19.4141 541.666 20.0092 540.702C20.6044 539.739 20.8999 538.62 20.8582 537.488C20.8164 536.356 20.4394 535.263 19.7747 534.346C19.1102 533.428 18.1881 532.73 17.1256 532.338C16.0631 531.946 14.9081 531.878 13.8072 532.144C12.3432 532.497 11.0779 533.414 10.2864 534.695C9.49484 535.977 9.2412 537.519 9.58043 538.986Z" fill="white"/>
<path d="M21.8641 535.638C21.3787 533.54 21.7468 531.334 22.8876 529.506C24.0283 527.678 25.8483 526.378 27.9473 525.892L42.6064 522.514C43.6776 522.263 44.7891 522.233 45.8721 522.429C46.9548 522.624 47.9862 523.04 48.902 523.649L68.315 519.173C69.1023 518.967 69.9228 518.92 70.7284 519.037C71.5339 519.153 72.3079 519.429 73.0045 519.85C73.7013 520.27 74.3067 520.827 74.7847 521.485C75.2627 522.144 75.6038 522.892 75.7877 523.685C75.9715 524.477 75.9945 525.299 75.8552 526.101C75.716 526.903 75.4173 527.669 74.9768 528.353C74.5364 529.037 73.9632 529.626 73.2911 530.085C72.6189 530.544 71.8616 530.863 71.0638 531.024L51.6362 535.519C51.0812 536.471 50.3374 537.299 49.4503 537.953C48.5633 538.606 47.552 539.071 46.4785 539.319L31.8195 542.698C30.781 542.938 29.7054 542.971 28.6541 542.795C27.6028 542.618 26.5967 542.237 25.6929 541.672C24.7892 541.107 24.0059 540.369 23.3877 539.501C22.7695 538.633 22.3285 537.651 22.0901 536.612L21.8641 535.638Z" fill="white"/>
<path d="M68.315 519.173C69.1023 518.967 69.9229 518.92 70.7284 519.036C71.5339 519.153 72.3079 519.429 73.0046 519.85C73.7013 520.27 74.3067 520.827 74.7847 521.485C75.2627 522.144 75.6038 522.892 75.7877 523.685C75.9715 524.477 75.9945 525.299 75.8553 526.101C75.716 526.903 75.4173 527.669 74.9769 528.353C74.5364 529.037 73.9632 529.626 73.2912 530.085C72.619 530.544 71.8616 530.863 71.0639 531.024" fill="white"/>
<path d="M9.58043 538.986C9.83559 540.089 10.4129 541.093 11.2389 541.866C12.065 542.641 13.1026 543.153 14.22 543.337C15.3376 543.521 16.4845 543.369 17.5152 542.899C18.5459 542.43 19.4141 541.666 20.0092 540.702C20.6044 539.739 20.8999 538.62 20.8582 537.488C20.8164 536.356 20.4394 535.263 19.7747 534.346C19.1102 533.428 18.1881 532.73 17.1256 532.338C16.0631 531.946 14.9081 531.878 13.8072 532.144C12.3432 532.497 11.0779 533.414 10.2864 534.695C9.49484 535.977 9.2412 537.519 9.58043 538.986Z" fill="white"/>
<path d="M21.8641 535.638C21.3787 533.54 21.7468 531.334 22.8876 529.506C24.0283 527.678 25.8483 526.378 27.9473 525.892L42.6064 522.514C43.6776 522.263 44.7891 522.233 45.8721 522.429C46.9548 522.624 47.9862 523.04 48.902 523.649L68.315 519.173C69.1023 518.967 69.9228 518.92 70.7284 519.037C71.5339 519.153 72.3079 519.429 73.0045 519.85C73.7013 520.27 74.3067 520.827 74.7847 521.485C75.2627 522.144 75.6038 522.892 75.7877 523.685C75.9715 524.477 75.9945 525.299 75.8552 526.101C75.716 526.903 75.4173 527.669 74.9768 528.353C74.5364 529.037 73.9632 529.626 73.2911 530.085C72.6189 530.544 71.8616 530.863 71.0638 531.024L51.6362 535.519C51.0812 536.471 50.3374 537.299 49.4503 537.953C48.5633 538.606 47.552 539.071 46.4785 539.319L31.8195 542.698C30.781 542.938 29.7054 542.971 28.6541 542.795C27.6028 542.618 26.5967 542.237 25.6929 541.672C24.7892 541.107 24.0059 540.369 23.3877 539.501C22.7695 538.633 22.3285 537.651 22.0901 536.612L21.8641 535.638Z" fill="white"/>
<path d="M68.315 519.173C69.1023 518.967 69.9229 518.92 70.7284 519.036C71.5339 519.153 72.3079 519.429 73.0046 519.85C73.7013 520.27 74.3067 520.827 74.7847 521.485C75.2627 522.144 75.6038 522.892 75.7877 523.685C75.9715 524.477 75.9945 525.299 75.8553 526.101C75.716 526.903 75.4173 527.669 74.9769 528.353C74.5364 529.037 73.9632 529.626 73.2912 530.085C72.619 530.544 71.8616 530.863 71.0639 531.024" fill="white"/>
<path d="M38.065 612.336C38.5307 613.367 39.2921 614.237 40.2527 614.835C41.2131 615.433 42.3295 615.732 43.4603 615.695C44.5912 615.658 45.6854 615.286 46.6046 614.626C47.5238 613.966 48.2263 613.048 48.6235 611.989C49.0205 610.93 49.0942 609.776 48.835 608.675C48.5756 607.573 47.9954 606.573 47.1675 605.803C46.3397 605.031 45.3014 604.523 44.1846 604.343C43.0677 604.162 41.9223 604.317 40.8935 604.788C39.5234 605.421 38.4578 606.568 37.9282 607.981C37.3987 609.394 37.4478 610.959 38.065 612.336Z" fill="white"/>
<path d="M49.4343 606.607C48.5578 604.652 48.489 602.431 49.2424 600.425C49.996 598.419 51.5111 596.793 53.4579 595.899L67.1592 589.669C68.1617 589.213 69.2468 588.965 70.3481 588.942C71.4495 588.919 72.5441 589.12 73.5649 589.533L91.6796 581.264C92.407 580.932 93.193 580.746 93.9923 580.717C94.7918 580.689 95.5889 580.817 96.3385 581.096C97.0881 581.376 97.7752 581.8 98.3609 582.345C98.9464 582.89 99.4189 583.545 99.7514 584.272C100.084 585 100.27 585.786 100.299 586.585C100.327 587.384 100.198 588.182 99.919 588.931C99.6396 589.68 99.2154 590.368 98.6705 590.954C98.1257 591.539 97.4707 592.012 96.7431 592.344L78.6077 600.583C78.2472 601.623 77.6798 602.58 76.9397 603.396C76.1995 604.211 75.3019 604.869 74.3009 605.328L60.5995 611.558C58.6454 612.439 56.4219 612.51 54.4154 611.756C52.4087 611.002 50.7825 609.484 49.8921 607.535L49.4698 606.62L49.4343 606.607Z" fill="white"/>
<path d="M91.6918 581.228C92.4234 580.861 93.2214 580.644 94.0385 580.592C94.8555 580.539 95.6748 580.653 96.4471 580.924C97.2194 581.196 97.9289 581.621 98.5332 582.174C99.1373 582.726 99.6238 583.395 99.9634 584.14C100.303 584.885 100.489 585.691 100.51 586.509C100.531 587.328 100.386 588.142 100.085 588.904C99.7835 589.665 99.3316 590.358 98.7563 590.94C98.181 591.522 97.494 591.983 96.7366 592.294" fill="white"/>
<path d="M78.1688 679.635C78.8238 680.556 79.7371 681.262 80.7933 681.664C81.8495 682.066 83.001 682.145 84.1025 681.893C85.2037 681.64 86.2056 681.067 86.9811 680.245C87.7566 679.423 88.2711 678.39 88.4595 677.275C88.6478 676.161 88.5016 675.017 88.0392 673.985C87.5769 672.954 86.8193 672.084 85.8621 671.483C84.9048 670.882 83.7911 670.579 82.6615 670.611C81.532 670.644 80.4374 671.01 79.5162 671.664C78.9023 672.097 78.3801 672.648 77.98 673.284C77.5797 673.92 77.3092 674.629 77.1839 675.37C77.0586 676.11 77.0813 676.868 77.2503 677.601C77.4192 678.333 77.7315 679.025 78.1688 679.635Z" fill="white"/>
<path d="M88.1994 671.8C86.9351 670.061 86.4133 667.891 86.7485 665.768C87.0837 663.645 88.2484 661.741 89.9865 660.477L102.189 651.685C103.087 651.045 104.105 650.593 105.181 650.357C106.258 650.12 107.371 650.105 108.454 650.31L124.61 638.67C125.259 638.202 125.994 637.867 126.773 637.684C127.551 637.5 128.358 637.472 129.148 637.6C129.937 637.729 130.694 638.01 131.374 638.432C132.054 638.852 132.645 639.402 133.113 640.051C133.581 640.7 133.915 641.435 134.099 642.214C134.282 642.992 134.311 643.799 134.182 644.588C134.054 645.378 133.772 646.135 133.351 646.815C132.93 647.495 132.38 648.086 131.731 648.554L115.558 660.196C115.418 661.292 115.053 662.348 114.487 663.297C113.921 664.246 113.165 665.068 112.267 665.712L100.064 674.504C98.3173 675.76 96.1434 676.273 94.0193 675.928C91.8953 675.584 89.9946 674.41 88.7344 672.666L88.1367 671.842L88.1994 671.8Z" fill="white"/>
<path d="M124.695 638.658C126.005 637.716 127.637 637.334 129.23 637.595C130.823 637.856 132.247 638.739 133.189 640.05C134.131 641.36 134.514 642.992 134.253 644.585C133.992 646.178 133.108 647.602 131.798 648.544" fill="white"/>
<path d="M128.75 739.144C129.571 739.916 130.601 740.428 131.713 740.613C132.824 740.799 133.966 740.652 134.992 740.188C136.02 739.726 136.887 738.969 137.484 738.013C138.081 737.058 138.382 735.947 138.348 734.822C138.313 733.695 137.947 732.605 137.292 731.687C136.638 730.77 135.727 730.066 134.674 729.667C133.62 729.267 132.472 729.188 131.375 729.442C130.277 729.695 129.279 730.267 128.506 731.087C127.473 732.19 126.919 733.656 126.965 735.166C127.011 736.676 127.652 738.106 128.75 739.144Z" fill="white"/>
<path d="M137.093 729.535C135.527 728.06 134.609 726.022 134.542 723.871C134.475 721.719 135.265 719.629 136.738 718.06L147.05 707.095C147.801 706.289 148.711 705.646 149.723 705.207C150.733 704.768 151.825 704.544 152.928 704.546L166.557 690.016C167.105 689.433 167.762 688.964 168.491 688.635C169.219 688.305 170.006 688.124 170.804 688.098C171.603 688.073 172.401 688.205 173.148 688.488C173.896 688.771 174.581 689.198 175.164 689.744C175.747 690.292 176.217 690.949 176.545 691.677C176.875 692.406 177.056 693.192 177.082 693.991C177.107 694.79 176.974 695.588 176.692 696.335C176.41 697.083 175.983 697.768 175.435 698.351L161.787 712.882C161.853 713.981 161.694 715.082 161.32 716.116C160.947 717.152 160.367 718.1 159.614 718.903L149.302 729.867C147.827 731.435 145.79 732.352 143.639 732.419C141.487 732.486 139.397 731.696 137.827 730.223L137.093 729.535Z" fill="white"/>
<path d="M166.558 690.016C167.105 689.433 167.762 688.964 168.49 688.635C169.22 688.305 170.006 688.124 170.805 688.098C171.603 688.073 172.4 688.205 173.148 688.488C173.896 688.771 174.581 689.198 175.164 689.744C175.747 690.292 176.216 690.949 176.545 691.677C176.875 692.406 177.056 693.192 177.081 693.991C177.107 694.79 176.974 695.588 176.692 696.335C176.409 697.083 175.983 697.768 175.435 698.351" fill="white"/>
<path d="M188.454 789.42C189.407 790.02 190.517 790.325 191.643 790.294C192.77 790.264 193.861 789.9 194.781 789.25C195.701 788.598 196.407 787.69 196.81 786.638C197.213 785.585 197.295 784.438 197.047 783.339C196.797 782.24 196.228 781.24 195.41 780.465C194.593 779.69 193.564 779.174 192.454 778.983C191.343 778.793 190.202 778.935 189.172 779.394C188.143 779.853 187.273 780.606 186.672 781.558C185.869 782.839 185.606 784.383 185.94 785.857C186.274 787.331 187.178 788.611 188.454 789.42Z" fill="#FFFF2D" fill-opacity="0.83"/>
<path d="M194.816 778.398C192.997 777.247 191.709 775.422 191.234 773.322C190.76 771.222 191.138 769.02 192.287 767.199L200.32 754.486C200.908 753.554 201.68 752.753 202.587 752.129C203.496 751.505 204.521 751.072 205.601 750.857L216.251 734.005C216.678 733.329 217.235 732.743 217.888 732.283C218.541 731.822 219.279 731.494 220.058 731.318C220.838 731.143 221.646 731.122 222.434 731.258C223.221 731.395 223.975 731.684 224.65 732.112C225.327 732.539 225.912 733.095 226.373 733.748C226.834 734.402 227.162 735.139 227.337 735.919C227.513 736.699 227.534 737.506 227.397 738.294C227.261 739.082 226.971 739.835 226.544 740.511L215.894 757.364C216.172 758.43 216.226 759.542 216.056 760.632C215.884 761.721 215.49 762.762 214.899 763.692L206.865 776.405C205.717 778.223 203.894 779.51 201.797 779.985C199.7 780.458 197.501 780.08 195.683 778.933L194.816 778.398Z" fill="#FFFF2D" fill-opacity="0.83"/>
<path d="M255.901 829.246C256.954 829.657 258.107 829.746 259.211 829.503C260.315 829.259 261.322 828.693 262.105 827.876C262.887 827.06 263.41 826.03 263.606 824.916C263.803 823.802 263.665 822.656 263.209 821.62C262.753 820.585 262.002 819.709 261.047 819.102C260.093 818.494 258.98 818.184 257.85 818.209C256.719 818.235 255.621 818.596 254.696 819.246C253.77 819.896 253.058 820.805 252.65 821.86C252.375 822.558 252.241 823.303 252.256 824.053C252.271 824.804 252.434 825.544 252.736 826.23C253.039 826.916 253.474 827.537 254.017 828.054C254.56 828.572 255.2 828.977 255.901 829.246Z" fill="white"/>
<path d="M259.962 817.225C258.966 816.841 258.057 816.264 257.285 815.527C256.514 814.791 255.895 813.91 255.464 812.934C255.034 811.958 254.801 810.906 254.777 809.84C254.753 808.774 254.94 807.713 255.328 806.719L260.78 792.686C261.182 791.657 261.79 790.721 262.567 789.936C263.343 789.15 264.272 788.532 265.296 788.118L272.491 769.616C272.78 768.871 273.212 768.189 273.765 767.611C274.317 767.034 274.978 766.57 275.709 766.247C276.44 765.925 277.228 765.749 278.027 765.731C278.827 765.713 279.621 765.852 280.366 766.141C281.111 766.43 281.792 766.863 282.371 767.415C282.948 767.967 283.412 768.627 283.734 769.359C284.057 770.09 284.233 770.877 284.251 771.677C284.269 772.476 284.13 773.271 283.841 774.016L276.622 792.59C277.1 793.582 277.367 794.662 277.407 795.761C277.448 796.862 277.26 797.959 276.858 798.983L271.405 813.015C271.019 814.009 270.441 814.917 269.704 815.688C268.967 816.458 268.085 817.075 267.108 817.504C266.132 817.933 265.081 818.165 264.016 818.187C262.95 818.209 261.89 818.021 260.897 817.633L259.968 817.276L259.962 817.225Z" fill="white"/>
<path d="M272.508 769.614C272.785 768.851 273.211 768.15 273.762 767.555C274.312 766.96 274.977 766.48 275.716 766.145C276.455 765.81 277.253 765.626 278.065 765.604C278.876 765.582 279.683 765.723 280.439 766.018C281.195 766.312 281.885 766.755 282.467 767.32C283.049 767.885 283.513 768.561 283.83 769.308C284.147 770.055 284.311 770.857 284.314 771.67C284.316 772.481 284.156 773.284 283.843 774.033" fill="white"/>
<path d="M316.276 852.759C317.329 853.17 318.482 853.259 319.586 853.016C320.69 852.773 321.698 852.206 322.48 851.39C323.262 850.573 323.785 849.543 323.982 848.429C324.178 847.316 324.04 846.169 323.585 845.134C323.129 844.099 322.377 843.222 321.422 842.615C320.468 842.008 319.355 841.698 318.225 841.723C317.095 841.749 315.997 842.11 315.071 842.759C314.146 843.409 313.434 844.319 313.026 845.373C312.479 846.784 312.515 848.353 313.125 849.739C313.734 851.123 314.867 852.209 316.276 852.759Z" fill="white"/>
<path d="M320.418 840.711C319.424 840.328 318.515 839.753 317.744 839.018C316.973 838.283 316.354 837.403 315.923 836.429C315.494 835.453 315.259 834.403 315.237 833.339C315.213 832.273 315.4 831.214 315.787 830.221L321.239 816.189C321.642 815.159 322.249 814.224 323.025 813.438C323.802 812.653 324.732 812.034 325.756 811.621L332.959 793.049C333.544 791.544 334.705 790.332 336.182 789.683C337.661 789.032 339.338 788.996 340.843 789.581C342.349 790.167 343.56 791.327 344.21 792.806C344.86 794.285 344.897 795.961 344.311 797.467L337.092 816.04C337.569 817.032 337.836 818.112 337.877 819.212C337.918 820.312 337.731 821.409 337.328 822.433L331.875 836.466C331.092 838.47 329.546 840.082 327.575 840.948C325.606 841.813 323.372 841.862 321.367 841.083L320.435 840.708L320.418 840.711Z" fill="white"/>
<path d="M332.958 793.049C333.234 792.286 333.661 791.586 334.211 790.99C334.762 790.395 335.427 789.915 336.166 789.58C336.905 789.245 337.703 789.061 338.515 789.039C339.326 789.017 340.133 789.158 340.889 789.452C341.646 789.747 342.335 790.19 342.917 790.755C343.499 791.321 343.962 791.997 344.28 792.744C344.597 793.491 344.762 794.293 344.764 795.104C344.766 795.916 344.607 796.719 344.294 797.468" fill="white"/>
<path d="M391.389 869.554C392.503 869.751 393.648 869.613 394.684 869.159C395.719 868.704 396.596 867.953 397.204 866.999C397.811 866.046 398.123 864.934 398.099 863.804C398.075 862.674 397.715 861.576 397.067 860.65C396.419 859.724 395.51 859.011 394.456 858.601C393.402 858.192 392.251 858.103 391.147 858.349C390.044 858.594 389.038 859.161 388.257 859.978C387.474 860.794 386.953 861.825 386.758 862.939C386.501 864.429 386.843 865.961 387.71 867.201C388.578 868.44 389.9 869.286 391.389 869.554Z" fill="white"/>
<path d="M394.83 856.218C392.721 855.84 390.847 854.644 389.615 852.892C388.383 851.14 387.893 848.972 388.252 846.86L390.87 832.049C391.055 830.963 391.463 829.925 392.068 829.003C392.673 828.081 393.462 827.294 394.385 826.691L397.835 807.067C397.973 806.28 398.266 805.528 398.695 804.853C399.124 804.178 399.682 803.595 400.336 803.137C400.992 802.678 401.731 802.353 402.511 802.179C403.291 802.006 404.098 801.988 404.886 802.126C405.673 802.265 406.426 802.556 407.101 802.987C407.775 803.416 408.358 803.974 408.818 804.628C409.276 805.283 409.602 806.022 409.775 806.803C409.948 807.583 409.966 808.39 409.828 809.178L406.361 828.803C407.02 829.687 407.492 830.694 407.749 831.766C408.005 832.837 408.04 833.951 407.851 835.036L405.235 849.863C404.858 851.972 403.663 853.847 401.91 855.078C400.158 856.31 397.989 856.8 395.878 856.442L394.886 856.261L394.83 856.218Z" fill="white"/>
<path d="M397.828 807.018C397.966 806.231 398.258 805.478 398.687 804.804C399.117 804.129 399.676 803.546 400.33 803.086C400.985 802.628 401.724 802.302 402.504 802.129C403.285 801.955 404.092 801.938 404.879 802.076C405.666 802.215 406.419 802.507 407.094 802.936C407.769 803.365 408.352 803.924 408.81 804.579C409.269 805.234 409.594 805.973 409.768 806.753C409.941 807.533 409.959 808.341 409.82 809.127" fill="white"/>
<path d="M471.482 872.53C472.614 872.512 473.716 872.157 474.646 871.511C475.577 870.866 476.294 869.958 476.708 868.904C477.122 867.85 477.213 866.696 476.97 865.59C476.726 864.484 476.16 863.475 475.343 862.691C474.526 861.908 473.493 861.385 472.377 861.188C471.262 860.993 470.113 861.133 469.078 861.59C468.042 862.049 467.166 862.803 466.56 863.76C465.955 864.717 465.647 865.833 465.676 866.965C465.719 868.469 466.353 869.896 467.439 870.937C468.525 871.978 469.978 872.55 471.482 872.53Z" fill="white"/>
<path d="M470.897 859.111C468.744 859.166 466.656 858.363 465.094 856.88C463.531 855.396 462.623 853.352 462.567 851.199L462.182 836.159C462.15 835.059 462.344 833.964 462.752 832.942C463.159 831.92 463.772 830.992 464.552 830.216L464.039 810.298C463.99 809.484 464.106 808.668 464.379 807.899C464.652 807.129 465.076 806.423 465.628 805.822C466.18 805.22 466.846 804.736 467.59 804.398C468.332 804.059 469.135 803.873 469.951 803.851C470.766 803.83 471.579 803.972 472.339 804.271C473.098 804.569 473.79 805.018 474.372 805.589C474.955 806.16 475.417 806.843 475.731 807.596C476.044 808.35 476.204 809.158 476.198 809.974L476.73 829.907C477.55 830.64 478.211 831.535 478.671 832.534C479.132 833.533 479.381 834.616 479.407 835.717L479.809 850.755C479.864 852.905 479.062 854.99 477.583 856.551C476.103 858.112 474.064 859.023 471.914 859.083L470.897 859.111Z" fill="white"/>
<path d="M464.039 810.298C463.996 808.684 464.595 807.117 465.707 805.946C466.818 804.773 468.349 804.09 469.963 804.047C471.578 804.004 473.144 804.604 474.316 805.715C475.488 806.826 476.171 808.358 476.214 809.972" fill="white"/>
<path d="M470.897 859.111C468.744 859.166 466.656 858.363 465.094 856.88C463.531 855.396 462.623 853.352 462.567 851.199L462.182 836.159C462.15 835.059 462.344 833.964 462.752 832.942C463.159 831.92 463.772 830.992 464.552 830.216L464.039 810.298C463.99 809.484 464.106 808.668 464.379 807.899C464.652 807.129 465.076 806.423 465.628 805.822C466.18 805.22 466.846 804.736 467.59 804.398C468.332 804.059 469.135 803.873 469.951 803.851C470.766 803.83 471.579 803.972 472.339 804.271C473.098 804.569 473.79 805.018 474.372 805.589C474.955 806.16 475.417 806.843 475.731 807.596C476.044 808.35 476.204 809.158 476.198 809.974L476.73 829.907C477.55 830.64 478.211 831.535 478.671 832.534C479.132 833.533 479.381 834.616 479.407 835.717L479.809 850.755C479.864 852.905 479.062 854.99 477.583 856.551C476.103 858.112 474.064 859.023 471.914 859.083L470.897 859.111Z" fill="white"/>
<path d="M464.039 810.298C463.996 808.684 464.595 807.117 465.707 805.946C466.818 804.773 468.349 804.09 469.963 804.047C471.578 804.004 473.144 804.604 474.316 805.715C475.488 806.826 476.171 808.358 476.214 809.972" fill="white"/>
<path d="M549.67 862.666C550.769 862.409 551.766 861.832 552.536 861.008C553.305 860.183 553.812 859.149 553.994 858.036C554.175 856.923 554.023 855.781 553.555 854.755C553.086 853.729 552.325 852.865 551.365 852.272C550.406 851.679 549.292 851.386 548.165 851.426C547.038 851.467 545.949 851.84 545.035 852.501C544.121 853.162 543.423 854.078 543.03 855.135C542.638 856.193 542.567 857.342 542.829 858.44C543 859.167 543.312 859.853 543.749 860.459C544.185 861.066 544.738 861.58 545.373 861.972C546.009 862.365 546.715 862.629 547.453 862.748C548.19 862.867 548.944 862.839 549.67 862.666Z" fill="white"/>
<path d="M546.401 849.687C544.304 850.168 542.101 849.797 540.278 848.656C538.454 847.515 537.157 845.697 536.671 843.602L533.276 828.945C533.029 827.869 533.004 826.755 533.202 825.669C533.399 824.584 533.816 823.55 534.427 822.63L529.934 803.219C529.571 801.646 529.849 799.991 530.706 798.622C531.562 797.253 532.928 796.28 534.501 795.917C536.075 795.555 537.728 795.832 539.099 796.689C540.468 797.546 541.441 798.911 541.804 800.485L546.28 819.898C547.231 820.453 548.059 821.197 548.713 822.084C549.366 822.971 549.832 823.982 550.079 825.055L553.474 839.713C553.714 840.751 553.747 841.827 553.571 842.878C553.396 843.929 553.014 844.935 552.448 845.84C551.884 846.743 551.146 847.527 550.277 848.144C549.409 848.763 548.428 849.203 547.389 849.442L546.401 849.687Z" fill="white"/>
<path d="M529.934 803.219C529.571 801.646 529.849 799.991 530.706 798.622C531.562 797.253 532.928 796.28 534.501 795.917C536.075 795.555 537.728 795.832 539.099 796.689C540.468 797.546 541.441 798.911 541.804 800.485" fill="white"/>
<path d="M626.757 840.256C627.786 839.787 628.653 839.024 629.248 838.064C629.843 837.102 630.14 835.986 630.101 834.856C630.062 833.726 629.688 832.634 629.027 831.716C628.366 830.799 627.449 830.098 626.39 829.701C625.331 829.306 624.178 829.233 623.078 829.493C621.978 829.753 620.979 830.333 620.209 831.16C619.438 831.988 618.93 833.024 618.749 834.141C618.569 835.257 618.723 836.401 619.192 837.429C619.825 838.803 620.975 839.872 622.392 840.401C623.809 840.93 625.378 840.878 626.757 840.256Z" fill="#C91459"/>
<path d="M619.397 828.178C617.443 829.059 615.219 829.13 613.213 828.377C611.207 827.623 609.58 826.105 608.69 824.155L602.443 810.455C601.986 809.456 601.738 808.373 601.716 807.274C601.693 806.177 601.895 805.084 602.309 804.067L594.055 785.933C593.385 784.464 593.327 782.789 593.893 781.276C594.459 779.764 595.602 778.538 597.072 777.868C598.542 777.2 600.217 777.142 601.729 777.707C603.242 778.273 604.467 779.417 605.137 780.886L613.392 799.02C614.433 799.375 615.39 799.938 616.205 800.676C617.021 801.414 617.677 802.309 618.135 803.31L624.382 817.008C625.263 818.963 625.334 821.187 624.579 823.193C623.826 825.199 622.308 826.826 620.358 827.716L619.426 828.14L619.397 828.178Z" fill="#C91459"/>
<path d="M594.052 785.917C593.72 785.189 593.536 784.403 593.508 783.604C593.481 782.805 593.61 782.009 593.891 781.259C594.17 780.511 594.595 779.825 595.141 779.24C595.686 778.656 596.342 778.184 597.07 777.852C597.797 777.521 598.583 777.336 599.382 777.308C600.181 777.281 600.977 777.411 601.727 777.691C602.475 777.971 603.162 778.396 603.747 778.941C604.331 779.487 604.803 780.142 605.134 780.869" fill="#C91459"/>
<path d="M695.63 804.865C696.549 804.205 697.25 803.288 697.648 802.229C698.046 801.171 698.12 800.018 697.861 798.917C697.602 797.816 697.023 796.816 696.197 796.045C695.369 795.273 694.333 794.764 693.217 794.583C692.1 794.401 690.955 794.554 689.926 795.024C688.897 795.493 688.031 796.257 687.437 797.219C686.842 798.181 686.547 799.298 686.587 800.428C686.628 801.558 687.003 802.651 687.665 803.568C688.551 804.794 689.887 805.62 691.379 805.862C692.872 806.105 694.401 805.747 695.63 804.865Z" fill="white"/>
<path d="M687.788 794.92C686.041 796.176 683.867 796.689 681.743 796.344C679.619 796 677.719 794.826 676.459 793.083L667.737 780.769C667.098 779.874 666.647 778.859 666.412 777.785C666.175 776.711 666.159 775.601 666.364 774.521L654.689 758.351C653.744 757.041 653.36 755.409 653.619 753.814C653.878 752.22 654.76 750.794 656.071 749.85C657.381 748.906 659.014 748.521 660.608 748.779C662.203 749.039 663.628 749.921 664.572 751.231L676.232 767.403C677.327 767.547 678.381 767.912 679.329 768.478C680.278 769.044 681.101 769.798 681.748 770.693L690.526 782.915C691.149 783.778 691.597 784.756 691.841 785.792C692.087 786.828 692.125 787.902 691.954 788.953C691.783 790.004 691.407 791.012 690.846 791.917C690.284 792.822 689.551 793.607 688.685 794.228L687.861 794.826L687.788 794.92Z" fill="white"/>
<path d="M654.689 758.351C653.744 757.041 653.36 755.409 653.619 753.814C653.878 752.22 654.76 750.794 656.071 749.85C657.381 748.906 659.014 748.521 660.608 748.779C662.203 749.039 663.628 749.921 664.572 751.231" fill="white"/>
<path d="M748.274 766.967C749.192 766.308 749.895 765.391 750.292 764.331C750.69 763.272 750.764 762.12 750.505 761.019C750.246 759.918 749.668 758.919 748.841 758.147C748.013 757.375 746.976 756.866 745.86 756.684C744.744 756.503 743.599 756.657 742.57 757.125C741.541 757.595 740.675 758.359 740.081 759.321C739.486 760.283 739.19 761.4 739.231 762.53C739.272 763.66 739.647 764.753 740.309 765.669C741.194 766.896 742.53 767.721 744.024 767.965C745.516 768.207 747.044 767.849 748.274 766.967Z" fill="white"/>
<path d="M740.421 756.938C739.557 757.562 738.579 758.01 737.541 758.255C736.504 758.501 735.428 758.539 734.375 758.369C733.323 758.198 732.315 757.822 731.408 757.261C730.502 756.701 729.715 755.966 729.091 755.101L720.298 742.882C719.658 741.987 719.206 740.972 718.971 739.898C718.734 738.823 718.719 737.714 718.925 736.633L707.283 720.46C706.341 719.149 705.958 717.517 706.219 715.924C706.48 714.332 707.363 712.907 708.673 711.965C709.985 711.023 711.616 710.641 713.209 710.902C714.802 711.163 716.226 712.046 717.168 713.356L728.81 729.53C729.906 729.673 730.96 730.04 731.909 730.605C732.857 731.171 733.68 731.925 734.327 732.821L743.102 745.025C743.726 745.889 744.175 746.869 744.42 747.906C744.665 748.943 744.704 750.019 744.533 751.071C744.363 752.124 743.986 753.132 743.425 754.039C742.865 754.946 742.13 755.733 741.265 756.355L740.438 756.936L740.421 756.938Z" fill="white"/>
<path d="M707.283 720.46C706.339 719.149 705.954 717.518 706.212 715.923C706.471 714.329 707.353 712.902 708.664 711.958C709.975 711.014 711.607 710.629 713.202 710.889C714.796 711.147 716.222 712.029 717.166 713.34" fill="white"/>
<path d="M748.274 766.967C749.192 766.308 749.895 765.391 750.292 764.331C750.69 763.272 750.764 762.12 750.505 761.019C750.246 759.918 749.668 758.919 748.841 758.147C748.013 757.375 746.976 756.866 745.86 756.684C744.744 756.503 743.599 756.657 742.57 757.125C741.541 757.595 740.675 758.359 740.081 759.321C739.486 760.283 739.19 761.4 739.231 762.53C739.272 763.66 739.647 764.753 740.309 765.669C741.194 766.896 742.53 767.721 744.024 767.965C745.516 768.207 747.044 767.849 748.274 766.967Z" fill="white"/>
<path d="M740.421 756.938C739.557 757.562 738.579 758.01 737.541 758.255C736.504 758.501 735.428 758.539 734.375 758.369C733.323 758.198 732.315 757.822 731.408 757.261C730.502 756.701 729.715 755.966 729.091 755.101L720.298 742.882C719.658 741.987 719.206 740.972 718.971 739.898C718.734 738.823 718.719 737.714 718.925 736.633L707.283 720.46C706.341 719.149 705.958 717.517 706.219 715.924C706.48 714.332 707.363 712.907 708.673 711.965C709.985 711.023 711.616 710.641 713.209 710.902C714.802 711.163 716.226 712.046 717.168 713.356L728.81 729.53C729.906 729.673 730.96 730.04 731.909 730.605C732.857 731.171 733.68 731.925 734.327 732.821L743.102 745.025C743.726 745.889 744.175 746.869 744.42 747.906C744.665 748.943 744.704 750.019 744.533 751.071C744.363 752.124 743.986 753.132 743.425 754.039C742.865 754.946 742.13 755.733 741.265 756.355L740.438 756.936L740.421 756.938Z" fill="white"/>
<path d="M707.283 720.46C706.339 719.149 705.954 717.518 706.212 715.923C706.471 714.329 707.353 712.902 708.664 711.958C709.975 711.014 711.607 710.629 713.202 710.889C714.796 711.147 716.222 712.029 717.166 713.34" fill="white"/>
<path d="M803.611 711.648C804.379 710.827 804.888 709.795 805.073 708.685C805.256 707.575 805.107 706.435 804.643 705.409C804.179 704.383 803.423 703.518 802.468 702.922C801.513 702.325 800.402 702.026 799.278 702.061C798.153 702.095 797.063 702.461 796.146 703.114C795.229 703.767 794.526 704.677 794.126 705.729C793.726 706.781 793.647 707.929 793.897 709.026C794.149 710.123 794.719 711.121 795.536 711.895C796.64 712.932 798.11 713.488 799.625 713.443C801.139 713.396 802.572 712.751 803.611 711.648Z" fill="white"/>
<path d="M793.977 703.24C792.502 704.808 790.464 705.726 788.312 705.792C786.161 705.859 784.071 705.07 782.502 703.596L771.537 693.284C770.739 692.531 770.101 691.622 769.663 690.615C769.225 689.608 768.996 688.522 768.991 687.424L754.475 673.774C753.297 672.669 752.608 671.141 752.556 669.527C752.506 667.914 753.098 666.346 754.203 665.169C755.308 663.991 756.837 663.301 758.45 663.25C760.065 663.199 761.632 663.792 762.81 664.897L777.324 678.546C778.425 678.479 779.528 678.639 780.564 679.015C781.6 679.392 782.547 679.978 783.347 680.736L794.309 691.032C795.088 691.76 795.716 692.635 796.156 693.606C796.596 694.576 796.841 695.625 796.875 696.691C796.91 697.757 796.734 698.819 796.357 699.816C795.981 700.814 795.412 701.728 794.681 702.505L793.977 703.24Z" fill="white"/>
<path d="M754.483 673.841C753.901 673.294 753.431 672.637 753.101 671.909C752.773 671.179 752.59 670.393 752.565 669.594C752.54 668.796 752.672 667.999 752.955 667.251C753.238 666.503 753.665 665.818 754.212 665.235C754.759 664.652 755.415 664.183 756.145 663.854C756.873 663.524 757.659 663.343 758.458 663.317C759.258 663.292 760.054 663.425 760.802 663.707C761.55 663.989 762.234 664.417 762.818 664.964" fill="white"/>
<path d="M848.929 648.107C849.529 647.153 849.834 646.044 849.803 644.918C849.774 643.792 849.41 642.7 848.759 641.78C848.109 640.86 847.199 640.155 846.148 639.751C845.095 639.348 843.948 639.266 842.849 639.515C841.75 639.763 840.75 640.333 839.975 641.151C839.199 641.968 838.684 642.996 838.494 644.107C838.302 645.217 838.446 646.359 838.904 647.389C839.362 648.418 840.116 649.288 841.068 649.89C841.701 650.289 842.407 650.56 843.144 650.686C843.882 650.813 844.638 650.793 845.368 650.628C846.099 650.462 846.788 650.154 847.4 649.722C848.011 649.289 848.531 648.74 848.929 648.107Z" fill="white"/>
<path d="M837.907 641.744C836.757 643.563 834.931 644.852 832.831 645.326C830.732 645.8 828.53 645.422 826.709 644.275L813.979 636.243C813.049 635.653 812.25 634.881 811.63 633.973C811.008 633.064 810.579 632.039 810.367 630.959L793.449 620.334C792.774 619.907 792.189 619.351 791.728 618.698C791.267 618.045 790.939 617.307 790.763 616.527C790.587 615.747 790.567 614.94 790.703 614.152C790.839 613.364 791.129 612.611 791.557 611.935C791.984 611.259 792.539 610.674 793.193 610.213C793.846 609.753 794.584 609.425 795.364 609.249C796.144 609.073 796.951 609.053 797.739 609.189C798.527 609.324 799.28 609.614 799.956 610.042L816.806 620.675C817.873 620.397 818.986 620.342 820.074 620.514C821.163 620.685 822.205 621.079 823.135 621.671L835.848 629.704C837.667 630.855 838.955 632.681 839.43 634.78C839.904 636.879 839.526 639.082 838.378 640.903L837.841 641.753L837.907 641.744Z" fill="white"/>
<path d="M793.447 620.319C792.772 619.891 792.187 619.335 791.726 618.682C791.264 618.028 790.937 617.29 790.761 616.51C790.585 615.73 790.565 614.923 790.7 614.136C790.837 613.348 791.127 612.595 791.554 611.918C791.981 611.243 792.537 610.658 793.191 610.197C793.844 609.736 794.581 609.408 795.361 609.232C796.141 609.056 796.948 609.036 797.737 609.172C798.524 609.308 799.278 609.599 799.953 610.026" fill="white"/>
<path d="M883.205 577.9C883.616 576.846 883.705 575.694 883.462 574.59C883.217 573.486 882.652 572.479 881.835 571.696C881.019 570.914 879.989 570.391 878.875 570.194C877.761 569.998 876.615 570.136 875.58 570.591C874.544 571.048 873.668 571.799 873.061 572.754C872.453 573.708 872.143 574.821 872.168 575.951C872.194 577.082 872.555 578.179 873.205 579.105C873.855 580.031 874.764 580.743 875.819 581.151C877.229 581.697 878.799 581.661 880.183 581.052C881.569 580.442 882.654 579.309 883.205 577.9Z" fill="white"/>
<path d="M871.09 573.767C870.31 575.773 868.766 577.389 866.796 578.258C864.826 579.127 862.591 579.178 860.584 578.4L846.568 572.946C845.539 572.544 844.603 571.936 843.817 571.159C843.032 570.383 842.413 569.454 841.999 568.43L823.426 561.21C822.648 560.947 821.931 560.528 821.32 559.98C820.708 559.431 820.214 558.765 819.866 558.021C819.518 557.276 819.326 556.469 819.298 555.649C819.271 554.828 819.411 554.01 819.708 553.244C820.005 552.478 820.455 551.781 821.029 551.193C821.604 550.606 822.29 550.141 823.049 549.827C823.808 549.512 824.623 549.354 825.444 549.363C826.266 549.371 827.077 549.546 827.828 549.877L846.403 557.096C847.397 556.618 848.48 556.35 849.583 556.309C850.685 556.268 851.785 556.455 852.812 556.858L866.829 562.313C867.821 562.698 868.728 563.274 869.498 564.01C870.268 564.744 870.886 565.624 871.317 566.599C871.746 567.572 871.981 568.622 872.005 569.687C872.03 570.751 871.845 571.81 871.46 572.802L871.088 573.75L871.09 573.767Z" fill="white"/>
<path d="M823.428 561.227C821.922 560.644 820.711 559.485 820.06 558.009C819.408 556.532 819.369 554.857 819.953 553.352C820.537 551.846 821.694 550.634 823.171 549.983C824.648 549.331 826.324 549.293 827.828 549.877" fill="white"/>
<path d="M905.243 502.742C905.438 501.633 905.298 500.49 904.844 499.459C904.389 498.428 903.639 497.556 902.688 496.951C901.737 496.347 900.628 496.038 899.501 496.064C898.375 496.09 897.282 496.449 896.359 497.096C895.437 497.743 894.727 498.649 894.32 499.699C893.912 500.75 893.825 501.897 894.07 502.997C894.315 504.097 894.88 505.099 895.694 505.878C896.509 506.656 897.535 507.176 898.645 507.371C899.383 507.503 900.139 507.487 900.87 507.326C901.601 507.164 902.295 506.86 902.907 506.429C903.521 506 904.043 505.452 904.444 504.819C904.844 504.186 905.116 503.48 905.243 502.742Z" fill="#2261E9"/>
<path d="M892.639 501.033C892.261 503.141 891.066 505.015 889.314 506.247C887.561 507.48 885.393 507.969 883.28 507.61L868.456 505.011C867.374 504.819 866.341 504.407 865.423 503.802C864.504 503.199 863.719 502.412 863.115 501.494L843.489 498.028C842.678 497.917 841.898 497.642 841.195 497.223C840.492 496.803 839.881 496.246 839.399 495.584C838.917 494.923 838.572 494.171 838.388 493.373C838.202 492.576 838.181 491.749 838.323 490.942C838.464 490.136 838.769 489.366 839.215 488.681C839.662 487.995 840.242 487.405 840.922 486.948C841.6 486.492 842.366 486.177 843.17 486.023C843.974 485.869 844.801 485.879 845.601 486.051L865.224 489.501C866.109 488.844 867.117 488.374 868.19 488.121C869.262 487.867 870.374 487.835 871.459 488.028L886.27 490.646C888.383 491.015 890.263 492.208 891.496 493.963C892.73 495.718 893.216 497.891 892.848 500.003L892.685 500.993L892.639 501.033Z" fill="#2261E9"/>
<path d="M843.438 498.035C842.652 497.896 841.899 497.604 841.224 497.175C840.549 496.745 839.966 496.187 839.508 495.532C839.049 494.877 838.724 494.139 838.55 493.358C838.377 492.577 838.359 491.77 838.497 490.983C838.636 490.196 838.927 489.443 839.358 488.768C839.787 488.094 840.345 487.51 840.999 487.052C841.654 486.593 842.393 486.268 843.174 486.094C843.954 485.921 844.761 485.903 845.549 486.042" fill="#2261E9"/>
</svg>
