<svg width="58" height="86" viewBox="0 0 58 86" fill="none" xmlns="http://www.w3.org/2000/svg">
<path d="M29.1631 86C25.0031 86 21.1231 85.28 17.5231 83.84C14.0031 82.32 10.9231 80.24 8.28313 77.6C5.72313 74.96 3.68313 71.84 2.16313 68.24C0.723125 64.64 0.00312534 60.68 0.00312534 56.36C0.00312534 54.2 0.283125 51.8 0.843125 49.16C1.48313 46.44 2.40313 43.48 3.60313 40.28C4.88313 37.08 6.40313 33.72 8.16313 30.2C9.92313 26.6 11.9631 22.88 14.2831 19.04L25.2031 0.559999H37.8031L38.2831 1.76L25.0831 23.96C22.6831 28.04 20.5231 31.92 18.6031 35.6C16.7631 39.28 15.2031 42.76 13.9231 46.04C12.6431 49.24 11.6831 52.16 11.0431 54.8L8.16313 42.44C9.68313 39.96 11.3231 37.8 13.0831 35.96C14.8431 34.04 16.7231 32.44 18.7231 31.16C20.8031 29.88 22.9631 28.92 25.2031 28.28C27.4431 27.64 29.7631 27.32 32.1631 27.32C36.8031 27.32 41.0431 28.6 44.8831 31.16C48.8031 33.64 51.9231 36.96 54.2431 41.12C56.6431 45.28 57.8431 49.84 57.8431 54.8C57.8431 60.8 56.6031 66.16 54.1231 70.88C51.7231 75.52 48.3631 79.2 44.0431 81.92C39.7231 84.64 34.7631 86 29.1631 86ZM29.1631 74C32.2831 74 35.0431 73.28 37.4431 71.84C39.9231 70.32 41.8431 68.24 43.2031 65.6C44.6431 62.88 45.3631 59.8 45.3631 56.36C45.3631 53.4 44.6431 50.64 43.2031 48.08C41.7631 45.44 39.8431 43.32 37.4431 41.72C35.0431 40.12 32.3631 39.32 29.4031 39.32C26.1231 39.32 23.2031 40.08 20.6431 41.6C18.0831 43.12 16.0831 45.16 14.6431 47.72C13.2031 50.28 12.4831 53.12 12.4831 56.24C12.4831 59.6 13.2031 62.64 14.6431 65.36C16.0831 68 18.0431 70.12 20.5231 71.72C23.0031 73.24 25.8831 74 29.1631 74Z" fill="white"/>
</svg>
