<?xml version="1.0" standalone="no"?>
<!DOCTYPE svg PUBLIC "-//W3C//DTD SVG 20010904//EN"
 "http://www.w3.org/TR/2001/REC-SVG-20010904/DTD/svg10.dtd">
<svg version="1.0" xmlns="http://www.w3.org/2000/svg"
 width="450.000000pt" height="600.000000pt" viewBox="0 0 450.000000 600.000000"
 preserveAspectRatio="xMidYMid meet">

<g transform="translate(0.000000,600.000000) scale(0.100000,-0.100000)"
fill="#000000" stroke="none">
<path d="M2100 5984 c-106 -22 -222 -86 -309 -169 -88 -84 -141 -168 -175
-275 -115 -363 95 -747 464 -846 87 -23 243 -23 330 0 369 99 579 483 464 846
-34 107 -87 191 -175 275 -161 154 -381 216 -599 169z"/>
<path d="M1558 4900 c-165 -57 -322 -156 -449 -283 -432 -432 -598 -1192 -484
-2215 17 -148 31 -191 78 -241 46 -48 101 -71 175 -71 98 0 174 47 220 136 9
18 4 30 -34 80 -93 123 -169 315 -193 488 -16 110 -13 334 4 450 19 127 64
297 108 411 34 90 34 90 72 93 28 3 36 0 32 -10 -117 -287 -160 -478 -161
-728 0 -168 12 -259 51 -385 124 -396 465 -642 986 -710 151 -19 413 -19 564
0 521 68 862 314 986 710 39 126 51 217 51 385 -1 250 -44 441 -161 728 -4 10
4 13 32 10 38 -3 38 -3 72 -93 44 -114 89 -284 108 -411 17 -116 20 -340 4
-450 -24 -173 -100 -365 -193 -488 -38 -50 -43 -62 -34 -80 46 -89 122 -136
220 -136 74 0 129 23 175 71 47 50 61 93 78 241 114 1023 -52 1783 -484 2215
-133 133 -337 256 -485 294 l-43 11 -94 -95 c-82 -81 -108 -101 -189 -140
-114 -54 -209 -77 -325 -77 -116 0 -211 23 -325 77 -81 39 -107 59 -188 139
-52 52 -99 94 -105 94 -7 -1 -38 -10 -69 -20z"/>
<path d="M1153 2179 c10 -43 375 -1893 382 -1939 15 -94 71 -160 175 -209 47
-22 69 -26 150 -26 81 0 103 4 150 26 74 34 123 79 152 137 l23 47 3 807 3
806 -98 7 c-367 26 -663 131 -876 309 -58 49 -69 55 -64 35z"/>
<path d="M3269 2141 c-206 -174 -507 -280 -872 -306 l-98 -7 3 -806 3 -807 23
-47 c29 -58 78 -103 152 -137 47 -22 69 -26 150 -26 81 0 103 4 150 26 113 53
160 114 179 234 6 39 94 488 196 999 101 512 183 931 182 932 -1 0 -32 -24
-68 -55z"/>
</g>
</svg>
