<?xml version="1.0" encoding="UTF-8"?>
<svg version="1.1" xmlns="http://www.w3.org/2000/svg" width="540" height="1080">
<path d="M0 0 C0 2.31 0 4.62 0 7 C-0.97308105 7.03963867 -1.94616211 7.07927734 -2.94873047 7.12011719 C-89.38382528 10.73814738 -173.69573843 30.62475606 -249.953125 72.35546875 C-252.8707471 73.93023658 -255.82366874 75.37866879 -258.8125 76.8125 C-276.00331972 85.33859204 -292.21790404 96.48376971 -307.4375 108.12109375 C-309.43828043 109.5881294 -311.30853841 110.80489365 -313.5 111.9375 C-318.23727942 114.42282147 -322.13105694 118.25497712 -326.1328125 121.7578125 C-328.75443163 123.80796152 -330.86145082 124.97680997 -334 126 C-334 126.66 -334 127.32 -334 128 C-335.546875 129.33984375 -335.546875 129.33984375 -337.75 130.9375 C-343.30544848 135.13668876 -348.35595943 139.81120945 -353.44287109 144.55175781 C-355.99175384 146.9224026 -358.55859665 149.27335843 -361.125 151.625 C-361.62563965 152.08503418 -362.1262793 152.54506836 -362.64208984 153.01904297 C-365.71269754 155.8368597 -368.81714263 158.61255115 -371.9375 161.375 C-380.8349279 169.36833442 -389.28172852 177.86208873 -397 187 C-397.86753906 187.99 -398.73507812 188.98 -399.62890625 190 C-406.5178136 197.881707 -412.97761329 206.02960657 -419.28515625 214.3828125 C-419.76355957 215.01606445 -420.24196289 215.64931641 -420.73486328 216.30175781 C-421.76244721 217.68112366 -422.75911603 219.08348105 -423.74609375 220.4921875 C-424.15988281 220.98976562 -424.57367188 221.48734375 -425 222 C-425.66 222 -426.32 222 -427 222 C-427.27980713 222.5875708 -427.55961426 223.1751416 -427.84790039 223.78051758 C-428.91765604 225.84136704 -430.07382485 227.63409091 -431.43359375 229.51171875 C-431.91159424 230.17743896 -432.38959473 230.84315918 -432.88208008 231.52905273 C-433.39536865 232.24134033 -433.90865723 232.95362793 -434.4375 233.6875 C-451.9935072 258.37966732 -467.07286957 284.703207 -480.44897461 311.87719727 C-481.48541247 313.96394002 -482.53771094 316.04287793 -483.60546875 318.11376953 C-487.88061135 326.45739022 -491.54236317 334.91789234 -494.875 343.6875 C-495.12979126 344.35296844 -495.38458252 345.01843689 -495.64709473 345.70407104 C-522.79805132 416.70754732 -535.15006561 491.49057506 -531.25 567.5 C-531.20709839 568.33871643 -531.16419678 569.17743286 -531.11999512 570.04156494 C-527.70697704 634.79893157 -512.04223888 697.29837589 -486.25390625 756.73046875 C-485.96514618 757.39951736 -485.67638611 758.06856598 -485.37887573 758.75788879 C-483.65868523 762.68434216 -481.74154262 766.24292025 -479.359375 769.79296875 C-477.46891768 772.86224572 -475.9036949 776.08192749 -474.3125 779.3125 C-462.16095016 803.83305148 -448.72291319 827.30583014 -432.28198242 849.24536133 C-431.06303513 850.91372434 -429.91490464 852.61021967 -428.78515625 854.33984375 C-427.0738262 857.07504539 -427.0738262 857.07504539 -424.6875 859.3125 C-415 869 -415 869 -415 873 C-414.34 873 -413.68 873 -413 873 C-411.65620684 874.7681489 -410.32110653 876.54322232 -409.015625 878.33984375 C-396.00887988 895.50572248 -380.5566153 912.20310965 -364.13671875 926.14453125 C-361.86968736 928.11315997 -359.67174218 930.14888168 -357.47680664 932.19726562 C-348.25684342 940.79913831 -338.70146419 948.92738654 -328.8125 956.75 C-328.27890869 957.1735376 -327.74531738 957.5970752 -327.19555664 958.03344727 C-323.09271774 961.24606511 -318.85162459 964.2378451 -314.57250977 967.21044922 C-312.14308622 968.90046294 -309.7277521 970.6085463 -307.31640625 972.32421875 C-296.10693358 980.27035167 -284.72696772 987.83910719 -273 995 C-272.26652344 995.44859375 -271.53304688 995.8971875 -270.77734375 996.359375 C-261.39986286 1002.06303064 -251.8601536 1007.23549558 -241.98828125 1012.02783203 C-239.29771897 1013.34337955 -236.62600886 1014.69513187 -233.953125 1016.04614258 C-218.2686373 1023.95487832 -202.41771576 1030.756925 -186 1037 C-185.17983398 1037.31469238 -184.35966797 1037.62938477 -183.51464844 1037.95361328 C-178.03778076 1040.05067407 -172.53475749 1042.06090115 -167 1044 C-166.1234375 1044.30760254 -165.246875 1044.61520508 -164.34375 1044.93212891 C-111.5508264 1063.20018586 -55.65720695 1071.16563868 0 1073 C0 1075.31 0 1077.62 0 1080 C-43.06550748 1081.19503464 -86.30149254 1074.33953985 -128 1064 C-129.05735352 1063.74702148 -130.11470703 1063.49404297 -131.20410156 1063.23339844 C-187.02835958 1049.82073246 -242.05696309 1025.46452168 -290 994 C-290.77891602 993.48904785 -291.55783203 992.9780957 -292.36035156 992.45166016 C-297.5986136 989.00452486 -302.8054489 985.51255394 -308 982 C-308.60038086 981.5968457 -309.20076172 981.19369141 -309.81933594 980.77832031 C-317.89964887 975.34668302 -325.57403232 969.52081027 -333.17236328 963.44677734 C-335.09971461 961.92106482 -337.04517425 960.42121845 -338.99609375 958.92578125 C-339.64521729 958.42546387 -340.29434082 957.92514648 -340.96313477 957.40966797 C-342.21661405 956.44446811 -343.47350997 955.48368561 -344.73413086 954.52783203 C-346.19305842 953.39808222 -347.60216512 952.20451729 -349 951 C-349 950.34 -349 949.68 -349 949 C-349.54398438 948.77570312 -350.08796875 948.55140625 -350.6484375 948.3203125 C-353.71916505 946.5962163 -356.09482633 944.2881455 -358.625 941.875 C-362.36441748 938.36854485 -366.13366661 935.0216375 -370.1875 931.875 C-377.3051527 926.28581759 -383.37627057 919.81982301 -389.25390625 912.96484375 C-391.09615675 910.89179676 -393.02401662 908.94564198 -395 907 C-398.88040506 903.16394243 -402.44727901 899.13826204 -406 895 C-407.01481528 893.83653282 -408.03052047 892.67384155 -409.046875 891.51171875 C-414.48477123 885.28461696 -419.88196498 879.04980106 -424.98144531 872.53955078 C-427.0287268 869.96385872 -429.13475 867.44520551 -431.24609375 864.921875 C-435.81473446 859.34263793 -439.8642133 853.52865753 -443.8125 847.5 C-444.49973145 846.45900146 -445.18696289 845.41800293 -445.89501953 844.34545898 C-457.80162121 826.2503575 -469.13233988 807.88921759 -479.625 788.9375 C-480.04402588 788.183479 -480.46305176 787.42945801 -480.89477539 786.65258789 C-488.22045519 773.30460468 -494.636705 759.68715438 -500.3125 745.5625 C-500.63293274 744.76797424 -500.95336548 743.97344849 -501.2835083 743.15484619 C-524.81928461 684.60388036 -539.97484884 621.17122859 -540.203125 557.828125 C-540.21013931 556.51890076 -540.21715363 555.20967651 -540.22438049 553.86077881 C-540.2437801 549.6571809 -540.2488147 545.45363816 -540.25 541.25 C-540.25044186 540.53370422 -540.25088371 539.81740845 -540.25133896 539.07940674 C-540.25840025 517.25215284 -539.95757025 495.66405907 -537 474 C-536.91278687 473.34584106 -536.82557373 472.69168213 -536.73571777 472.0177002 C-529.80804321 420.12702243 -515.87015529 369.95478498 -495 322 C-494.35321289 320.50001465 -494.35321289 320.50001465 -493.69335938 318.96972656 C-492.51534339 316.24544864 -491.32461692 313.52732696 -490.125 310.8125 C-489.79226074 310.05348389 -489.45952148 309.29446777 -489.11669922 308.51245117 C-486.93202123 303.67092286 -484.37114615 299.17704945 -481.59765625 294.6496582 C-479.34944488 290.9210766 -477.25995265 287.1106025 -475.15600586 283.29931641 C-459.75146931 255.40526571 -442.90131203 226.7796911 -421.10546875 203.31640625 C-416.72901034 198.50149004 -412.60984745 193.41477117 -409 188 C-408.34 188 -407.68 188 -407 188 C-406.72631592 187.40413086 -406.45263184 186.80826172 -406.1706543 186.19433594 C-405.04042541 184.07577551 -403.91520728 182.62210241 -402.26953125 180.890625 C-401.72127686 180.30869385 -401.17302246 179.7267627 -400.6081543 179.12719727 C-399.71930542 178.19798462 -399.71930542 178.19798462 -398.8125 177.25 C-397.54410217 175.91031592 -396.27587902 174.57046643 -395.0078125 173.23046875 C-394.34942383 172.53743652 -393.69103516 171.8444043 -393.01269531 171.13037109 C-391.01207812 169.01278429 -389.03067388 166.87885128 -387.0546875 164.73828125 C-380.64295086 157.80404121 -374.24999309 151.07509302 -367 145 C-365.6435766 143.81507841 -364.28939517 142.62758532 -362.9375 141.4375 C-362.29425781 140.87804687 -361.65101563 140.31859375 -360.98828125 139.7421875 C-359.58016418 138.50835604 -358.18272811 137.26228555 -356.79296875 136.0078125 C-356.07753906 135.36585938 -355.36210937 134.72390625 -354.625 134.0625 C-353.97789062 133.47597656 -353.33078125 132.88945312 -352.6640625 132.28515625 C-351 131 -351 131 -349 131 C-349 130.34 -349 129.68 -349 129 C-346.8828125 127.0546875 -346.8828125 127.0546875 -344.125 124.875 C-343.22007812 124.15054688 -342.31515625 123.42609375 -341.3828125 122.6796875 C-339 121 -339 121 -337 121 C-337 120.34 -337 119.68 -337 119 C-334.525 118.01 -334.525 118.01 -332 117 C-332 116.34 -332 115.68 -332 115 C-329.9453125 113.30078125 -329.9453125 113.30078125 -327.125 111.3125 C-326.22007812 110.66925781 -325.31515625 110.02601562 -324.3828125 109.36328125 C-323.25538239 108.57527174 -322.12775506 107.78754439 -321 107 C-320.2692627 106.4851001 -319.53852539 105.9702002 -318.78564453 105.43969727 C-285.65493754 82.13366347 -250.81669897 61.26567925 -213.6875 44.9375 C-212.74245605 44.52153564 -211.79741211 44.10557129 -210.82373047 43.67700195 C-170.68436372 26.37434907 -128.02701091 14.3714156 -85 7 C-83.8764209 6.80567383 -82.7528418 6.61134766 -81.59521484 6.41113281 C-54.69199504 1.85234383 -27.29525907 -0.7574224 0 0 Z " fill="#424242" transform="translate(540,0)"/>
</svg>
