<?xml version="1.0" standalone="no"?>
<!DOCTYPE svg PUBLIC "-//W3C//DTD SVG 20010904//EN"
 "http://www.w3.org/TR/2001/REC-SVG-20010904/DTD/svg10.dtd">
<svg version="1.0" xmlns="http://www.w3.org/2000/svg"
 width="1120.000000pt" height="1079.000000pt" viewBox="0 0 1120.000000 1079.000000"
 preserveAspectRatio="xMidYMid meet">

<g transform="translate(0.000000,1079.000000) scale(0.100000,-0.100000)"
fill="#000000" stroke="none">
<path d="M60 5400 l0 -5350 883 -2 c485 -2 2184 -4 3776 -6 l2894 -2 -6 212
c-4 116 -7 297 -7 403 l0 191 -145 58 -144 57 -3 52 -3 51 -77 28 c-43 15 -78
24 -78 19 0 -4 30 -19 68 -33 l67 -25 3 -106 3 -107 -3261 0 -3260 0 0 4515 0
4515 3110 0 3110 0 0 -140 0 -140 -2980 0 -2980 0 0 -3622 c0 -1993 3 -3876 7
-4185 l6 -563 2953 0 2952 0 32 36 c35 41 50 73 50 111 0 19 4 24 18 21 9 -3
75 -18 147 -34 83 -19 721 -226 1805 -585 1104 -366 1677 -552 1682 -545 4 6
4 13 0 17 -4 3 -671 226 -1483 495 -812 269 -1475 490 -1474 492 1 1 333 -74
738 -168 l736 -170 391 90 c216 50 396 90 401 90 5 0 9 -101 9 -225 0 -243 4
-269 53 -314 19 -17 43 -25 91 -30 59 -6 69 -11 115 -54 28 -26 58 -47 68 -48
10 0 61 0 113 1 75 1 102 6 128 22 l32 20 0 4730 c0 3779 -3 4729 -12 4726
-10 -4 -13 -958 -15 -4719 l-3 -4714 -21 -17 c-12 -10 -24 -18 -28 -18 -10 0
-16 2565 -14 5823 2 2460 0 3017 -11 3017 -10 0 -14 -238 -19 -1247 -10 -1767
-8 -4331 3 -5683 6 -635 7 -1327 4 -1538 l-7 -383 -31 3 -31 3 4 4428 c3 4078
2 4427 -13 4427 -15 0 -16 -200 -16 -2497 0 -1374 -3 -3365 -7 -4425 l-6
-1928 -30 0 c-21 0 -39 11 -66 39 -46 49 -69 61 -123 61 -54 0 -87 17 -109 55
-16 28 -16 163 -9 2035 5 1103 9 2738 9 3634 1 1219 4 1632 13 1637 8 5 9 98
3 366 -4 197 -7 468 -6 603 2 276 -6 347 -47 405 -45 64 -109 97 -195 102 -39
2 -575 24 -1190 49 l-1118 45 -52 -29 c-61 -34 -110 -105 -126 -184 -6 -27
-11 -147 -11 -267 l0 -219 -92 -17 c-51 -10 -116 -17 -145 -17 l-52 0 -5 -41
c-18 -152 -19 -144 12 -155 38 -13 42 -37 42 -274 0 -186 0 -188 23 -192 12
-3 67 -11 122 -18 l100 -13 5 -335 c5 -315 4 -337 -14 -375 -11 -22 -22 -53
-26 -70 l-6 -30 -174 -17 c-96 -10 -196 -15 -221 -12 l-46 5 -6 -68 c-11 -114
-10 -120 21 -131 29 -10 29 -10 35 -123 4 -63 7 -164 7 -225 0 -108 1 -112 23
-117 12 -3 108 -15 213 -27 l191 -23 6 -351 c4 -193 7 -495 7 -672 l0 -320
-214 -28 c-126 -16 -229 -24 -250 -20 -36 6 -36 6 -36 -28 0 -19 -3 -75 -6
-125 l-7 -90 30 -10 30 -11 6 -122 c4 -68 7 -208 7 -311 0 -170 2 -188 18
-193 9 -2 107 -19 218 -37 l201 -33 6 -215 c4 -119 7 -435 7 -702 l0 -486 -93
-5 c-52 -3 -102 -10 -113 -17 -16 -10 -11 -11 26 -5 25 3 101 10 170 14 69 4
106 8 83 8 l-41 2 -4 698 c-2 383 -3 698 -3 699 1 2 411 -65 911 -148 l909
-151 385 62 c212 34 395 64 408 67 l22 5 -2 -763 -3 -764 -155 -32 c-136 -28
-422 -70 -592 -87 l-57 -6 -5 32 c-3 18 -12 114 -21 213 -9 99 -18 195 -21
213 -6 30 -7 32 -19 14 -20 -28 -92 -75 -104 -67 -6 3 -11 16 -11 28 0 50 -79
182 -94 158 -4 -6 2 -19 13 -30 22 -22 61 -126 61 -163 0 -30 -24 -41 -130
-57 -199 -31 -407 -10 -531 55 -25 13 -29 20 -29 59 0 129 43 222 156 335 59
59 84 91 84 108 0 21 3 23 23 17 40 -12 115 -18 152 -11 30 6 36 11 32 27 -5
19 -1 20 48 23 9 1 25 -19 38 -45 14 -28 56 -77 112 -129 50 -46 101 -100 114
-119 14 -20 31 -42 38 -49 7 -7 13 -21 13 -29 0 -9 3 -13 6 -10 4 4 -1 28 -11
54 -14 36 -44 74 -127 155 -60 59 -115 123 -123 142 -8 20 -15 62 -15 95 0 33
-4 71 -10 85 -8 23 -12 25 -36 16 -29 -11 -44 -6 -44 16 0 8 11 14 28 15 24 0
25 1 7 9 -23 10 -157 11 -200 1 l-30 -7 31 -6 c37 -8 74 -40 54 -46 -7 -3 -17
3 -22 12 -13 23 -37 21 -31 -4 8 -31 -13 -23 -27 10 -12 30 -21 36 -33 23 -4
-3 1 -15 10 -25 17 -19 16 -19 -11 -12 l-29 7 6 -109 c8 -126 8 -126 -93 -239
-69 -78 -91 -115 -114 -195 -14 -50 -40 -316 -31 -329 1 -3 -53 -6 -122 -6
-138 1 -128 -3 -184 76 -13 19 -27 24 -82 27 -37 2 -67 0 -67 -5 0 -5 24 -9
53 -9 50 -1 97 -16 97 -32 0 -15 -58 -30 -140 -36 -47 -4 -117 -10 -157 -13
-100 -8 -185 4 -181 25 2 9 17 20 33 24 17 4 49 12 72 18 l42 10 -29 44 c-34
49 -46 56 -98 55 -20 -1 -28 -3 -17 -6 58 -13 101 -43 60 -43 -8 0 -15 -4 -15
-8 0 -11 -235 -32 -345 -31 -112 1 -77 17 41 18 63 1 83 4 88 16 3 8 12 15 21
15 8 0 15 5 15 10 0 16 -68 11 -154 -10 -87 -22 -120 -25 -111 -10 3 6 -9 1
-27 -9 -26 -16 -125 -38 -148 -34 -3 0 -19 4 -36 7 l-31 7 -7 -163 -7 -163 32
-26 32 -26 5 -426 5 -427 36 -10 c20 -5 42 -10 49 -10 15 0 16 -54 1 -83 -6
-12 -23 -34 -37 -49 l-26 -28 -2937 0 -2937 0 -6 743 c-4 408 -6 2280 -4 4160
l3 3418 195 -100 195 -99 6 -269 c4 -147 7 -423 8 -612 1 -230 5 -365 13 -405
10 -47 10 -60 0 -64 -9 -3 -12 -38 -12 -128 0 -68 -4 -124 -9 -124 -5 0 -35
-37 -67 -82 -31 -46 -78 -110 -104 -143 -77 -97 -97 -154 -84 -234 l7 -41 123
0 124 0 0 -1070 0 -1070 -115 -202 c-63 -111 -120 -218 -125 -238 -13 -46 -13
-100 1 -138 l11 -31 116 -3 117 -3 8 -339 c7 -310 6 -341 -9 -358 -10 -10 -26
-18 -36 -18 -10 0 -21 -7 -24 -15 -3 -8 -28 -28 -54 -45 -74 -48 -80 -58 -46
-85 l28 -22 -58 -114 c-107 -214 -96 -93 -105 -1164 -4 -517 -5 -942 -1 -945
4 -3 1264 -4 2801 -2 l2794 3 -7 859 c-4 588 -3 860 4 865 14 8 13 164 -1 223
-8 32 -45 95 -114 194 l-102 147 -20 -21 c-27 -27 -306 -88 -673 -148 -69 -12
-133 -25 -142 -30 -34 -19 -107 -10 -210 26 -141 49 -452 165 -458 171 -3 3
11 3 30 -1 33 -6 32 -5 -16 21 -28 16 -61 34 -73 41 -18 11 -21 10 -21 -2 0
-8 8 -20 17 -25 24 -14 7 -14 -18 0 -11 6 -17 15 -12 22 4 7 0 7 -10 -2 -20
-16 -16 -25 31 -56 21 -14 55 -39 76 -55 21 -17 46 -30 55 -30 9 1 1 7 -18 16
-54 23 -31 26 30 3 30 -11 92 -33 139 -49 292 -99 366 -130 312 -130 -20 0
-341 118 -385 142 -10 5 -21 7 -24 4 -8 -7 82 -50 245 -117 l147 -61 115 5
c125 6 483 68 652 113 64 18 124 42 171 70 39 24 72 42 73 41 0 -1 38 -55 82
-119 45 -65 82 -120 82 -123 0 -2 -1233 -5 -2740 -5 -1507 0 -2740 2 -2740 5
0 15 106 215 114 215 5 0 17 -7 26 -15 39 -35 212 -80 560 -144 201 -37 243
-43 321 -48 74 -5 78 -4 230 57 85 35 192 82 239 105 47 24 96 45 110 49 14 3
51 25 82 48 32 24 68 50 80 59 19 14 21 19 9 33 -12 15 -7 16 57 16 l71 0 -5
-32 c-7 -60 -16 -88 -25 -83 -5 4 -6 -1 -3 -9 3 -8 1 -23 -6 -33 -10 -16 -10
-15 -6 7 4 18 2 16 -10 -9 -26 -58 -27 -84 -4 -114 51 -64 13 -62 896 -65
l801 -3 32 36 c44 50 40 110 -18 253 l-21 52 95 0 c57 0 95 4 95 10 0 6 -40
10 -100 10 l-100 0 -11 44 c-12 48 -41 86 -65 86 -10 0 -7 -7 10 -22 29 -26
64 -114 107 -268 36 -134 40 -130 -135 -130 -1219 -1 -1530 1 -1542 11 -31 25
-5 122 84 321 28 60 73 110 88 95 3 -3 -6 -13 -20 -22 -32 -21 -69 -101 -97
-212 -18 -71 -20 -92 -11 -117 7 -16 9 -32 6 -35 -2 -3 -7 5 -11 17 -6 25 -23
20 -23 -7 0 -10 8 -21 19 -24 10 -2 124 -3 252 -1 129 1 248 3 264 2 17 0 260
-2 542 -4 l511 -4 27 22 c26 23 26 25 16 88 -23 146 -51 224 -98 265 -45 39
-48 29 -6 -19 43 -49 71 -136 81 -255 5 -68 -2 -81 -47 -81 -24 0 -24 0 -6 21
16 17 17 25 7 51 -9 25 -8 36 4 61 13 24 14 31 2 38 -14 9 -20 49 -7 49 5 0 9
5 9 10 0 7 -6 7 -19 0 -32 -17 -38 -11 -11 12 24 20 24 20 2 14 -19 -6 -24 -3
-33 23 -6 17 -17 31 -25 31 -17 0 -17 -1 0 -35 8 -15 13 -45 12 -66 -3 -30 0
-39 12 -37 8 2 17 -3 19 -9 3 -7 -2 -13 -11 -13 -21 0 -21 0 9 -51 29 -51 29
-53 12 -71 -10 -9 -53 -14 -153 -15 -106 -2 -133 0 -111 8 32 12 37 34 6 24
-12 -4 -40 -8 -63 -9 -22 -1 -54 -5 -71 -9 -27 -7 -28 -6 -8 4 12 6 24 18 28
26 4 12 0 14 -20 9 -14 -4 -25 -2 -25 3 0 6 -7 7 -17 4 -10 -4 -14 -2 -10 5 9
14 -98 9 -116 -6 -6 -5 -21 -12 -32 -15 -17 -3 -15 -6 12 -17 18 -6 31 -16 28
-20 -3 -4 -164 -8 -358 -8 -208 0 -342 3 -327 8 17 6 -5 8 -67 7 -50 -1 -89
-5 -87 -9 3 -5 -5 -8 -18 -7 -13 0 -17 3 -10 6 16 6 -3 33 -24 33 -40 0 -43
127 -3 137 10 3 19 9 19 14 0 5 15 9 34 9 19 0 38 5 41 10 3 6 1 10 -6 10 -7
0 -5 8 6 20 22 25 9 26 -19 3 -18 -15 -18 -14 2 8 33 38 27 44 -13 13 -20 -15
-38 -24 -42 -21 -12 12 19 66 60 104 48 45 83 59 165 69 49 5 72 2 138 -21 43
-16 104 -29 134 -30 30 -1 107 -6 170 -11 63 -5 159 -7 213 -6 75 2 97 0 97
-10 0 -11 38 -14 185 -13 102 0 185 2 185 5 0 19 -69 30 -194 32 -120 1 -129
3 -61 7 48 4 -63 9 -276 14 -276 6 -368 11 -405 23 -27 8 -103 18 -169 21
-105 5 -128 3 -184 -16 -65 -21 -111 -53 -111 -77 0 -8 -9 -33 -21 -56 l-21
-43 -121 7 c-119 7 -262 33 -302 55 -24 13 -138 44 -143 38 -7 -7 33 -23 75
-30 52 -8 81 -35 37 -35 -16 1 -47 8 -69 16 -22 9 -69 17 -105 18 -36 1 -72 6
-80 11 -8 6 -30 15 -47 21 -26 9 -35 9 -44 -2 -13 -16 -49 -19 -49 -4 0 6 -14
10 -31 10 -16 0 -28 -4 -25 -9 4 -5 -3 -7 -14 -4 -11 3 -20 14 -20 24 0 11 -6
19 -12 19 -7 0 -24 10 -38 21 -21 17 -22 20 -5 15 11 -2 36 -8 55 -12 19 -3
44 -13 55 -20 21 -15 75 -19 75 -6 0 4 -19 13 -42 20 -24 7 -88 27 -143 44
l-100 31 -60 -23 c-38 -15 -93 -26 -150 -30 -61 -4 -104 -13 -135 -28 -25 -12
-54 -22 -65 -22 -12 0 -45 -16 -75 -35 -30 -19 -60 -35 -66 -35 -12 0 -24 245
-24 508 l0 162 1548 0 c852 0 1975 3 2495 7 l947 6 0 -366 0 -366 -30 -3 -30
-3 42 -21 43 -20 -3 388 -2 387 132 3 133 3 3 65 c7 124 -5 149 -142 318
l-123 153 -6 421 c-4 232 -7 726 -7 1099 l0 678 138 3 137 3 3 65 c6 110 -5
130 -149 276 l-129 131 0 689 c0 379 3 745 6 815 l7 125 237 93 c131 51 247
95 259 98 20 5 21 11 21 164 l0 159 183 0 c101 0 218 3 260 6 l77 7 0 142 c0
78 -3 271 -7 428 l-6 287 -3729 0 -3728 0 0 -5350z m6870 4161 c-8 -5 -114
-47 -235 -94 l-220 -85 -2500 -5 -2500 -6 -195 99 -195 99 2930 0 c1684 0
2924 -3 2915 -8z m1692 -176 c601 -24 1129 -46 1173 -48 95 -4 150 -29 191
-89 36 -52 44 -139 37 -413 l-6 -221 -396 -32 -396 -32 -340 30 c-187 16 -352
30 -367 30 -23 0 -28 5 -28 24 0 13 8 34 19 47 16 20 16 25 4 37 -12 12 -12
17 2 31 31 35 14 234 -19 213 -6 -3 -36 -12 -66 -18 -46 -9 -54 -14 -52 -30 5
-29 15 -294 11 -294 -2 0 -112 9 -244 20 -132 11 -246 20 -252 20 -24 0 -8
153 20 197 4 7 35 18 67 25 54 11 60 14 60 38 0 48 -10 52 -81 34 -81 -21
-258 -15 -306 9 l-31 17 -11 -32 c-6 -17 -11 -85 -11 -150 l0 -120 -27 6 c-16
3 -72 8 -126 12 l-97 6 2 272 c3 259 4 273 26 321 13 28 35 63 50 79 24 25 73
54 94 56 4 0 499 -20 1100 -45z m-2156 -77 c-3 -29 -6 -389 -6 -800 l0 -748
-179 0 c-196 0 -191 -2 -191 61 0 17 -4 28 -10 24 -5 -3 -7 -12 -3 -20 4 -11
-2 -15 -23 -15 -16 -1 -40 -8 -54 -16 -25 -15 -24 -15 13 -9 21 3 45 9 53 12
8 3 14 1 14 -4 0 -5 -28 -15 -62 -21 -58 -11 -64 -10 -82 8 -19 19 -19 19 0
26 10 4 32 16 48 27 15 11 42 23 59 26 44 9 45 28 2 25 l-35 -3 20 21 c11 12
20 32 20 45 0 13 5 23 10 23 18 0 25 2 44 12 17 9 18 7 12 -18 -6 -26 -4 -26
16 9 16 27 27 36 40 31 22 -6 24 14 3 22 -20 8 -20 82 -1 103 8 9 16 24 18 35
4 21 15 21 -1085 24 -586 2 -647 4 -633 17 9 9 20 24 25 33 9 16 57 17 583 22
l573 5 -395 4 c-217 2 -447 6 -510 10 l-115 6 -5 40 -6 40 -8 -42 -8 -42 -51
1 c-44 0 -54 -4 -74 -28 -18 -23 -23 -25 -28 -13 -3 9 -5 20 -4 25 4 23 -2 54
-11 54 -6 0 -7 -18 -4 -44 4 -24 1 -67 -6 -96 -12 -48 -11 -54 9 -81 12 -16
26 -39 31 -51 6 -13 14 -30 19 -38 34 -59 77 -251 62 -278 -5 -10 -6 -24 -2
-31 6 -10 10 -8 15 5 5 12 10 15 14 7 4 -6 34 -25 68 -42 55 -29 74 -33 199
-43 175 -14 1045 5 1127 25 l53 12 -64 3 -64 3 38 34 c26 24 52 37 87 43 l50
10 -6 -27 -6 -26 20 24 c11 13 20 19 20 15 0 -5 80 -8 177 -6 l178 2 122 -129
122 -129 -2132 -6 c-1173 -4 -2394 -6 -2714 -4 l-582 3 90 132 c88 130 90 132
122 127 54 -10 57 -12 83 -71 14 -32 31 -61 37 -65 14 -9 911 -2 1021 8 106 9
123 28 119 132 -1 6 1 12 4 12 15 0 72 -38 105 -71 33 -32 36 -39 20 -39 -11
0 -41 9 -67 20 -57 24 -55 24 -55 2 0 -15 16 -20 93 -31 50 -7 115 -17 142
-22 130 -20 440 -6 534 26 58 19 121 77 122 113 1 15 3 36 5 47 1 11 6 56 10
100 10 123 19 130 33 29 19 -139 19 -169 -1 -169 -9 0 -20 -4 -24 -8 -4 -4 0
-7 9 -7 8 0 27 -15 42 -32 l26 -33 -5 35 c-20 138 -40 313 -53 453 l-6 67 30
0 c26 0 30 -4 32 -30 5 -72 7 -80 19 -80 7 0 18 11 24 25 11 24 28 34 28 16 0
-15 32 -22 46 -10 18 15 18 43 -1 59 -13 10 -19 10 -35 -5 -16 -14 -20 -15
-21 -4 0 8 -5 4 -11 -9 -15 -29 -32 -23 -38 14 -5 26 -9 29 -43 29 -29 0 -37
4 -37 18 0 14 10 17 69 17 39 0 73 -4 76 -10 3 -5 14 -10 23 -10 12 0 13 3 4
12 -18 18 -14 46 7 58 25 13 34 -1 21 -34 -5 -14 -7 -26 -5 -26 3 0 10 12 16
27 14 37 -10 61 -44 46 -19 -9 -26 -8 -35 8 -7 10 -12 28 -12 40 0 20 -4 21
-72 17 -44 -2 -73 1 -73 7 0 6 30 11 68 13 38 2 67 7 67 13 0 7 -25 10 -67 7
-65 -3 -68 -2 -71 21 -4 23 -2 24 42 19 25 -3 46 -2 46 3 0 4 -21 9 -47 11
-48 3 -48 3 -50 41 l-2 37 67 2 c65 2 66 2 12 5 -87 5 -102 10 -98 36 4 28 45
34 249 36 140 2 148 1 175 -22 16 -13 54 -39 84 -59 30 -20 63 -45 73 -56 17
-19 16 -20 -35 -38 -40 -15 -54 -25 -56 -42 -4 -25 11 -28 54 -12 15 6 28 9
30 8 1 -2 -33 -62 -77 -133 -43 -72 -88 -148 -100 -170 -11 -22 -31 -58 -44
-80 -13 -22 -45 -80 -70 -130 -26 -49 -50 -92 -54 -95 -13 -9 -93 -161 -88
-166 5 -5 77 91 77 104 0 5 14 21 30 37 17 16 30 33 30 38 0 20 72 97 91 97
10 0 19 5 19 11 0 5 -4 7 -10 4 -24 -15 -7 27 23 57 18 19 42 49 53 68 10 19
27 43 37 54 9 11 17 24 17 29 0 5 7 6 16 3 14 -5 15 -4 5 8 -9 11 -7 19 11 40
l23 27 49 -88 c27 -48 73 -129 102 -179 29 -49 56 -98 60 -108 4 -11 23 -42
42 -70 19 -28 46 -73 60 -101 14 -27 27 -45 29 -39 2 7 -10 35 -27 63 -16 29
-30 55 -30 58 0 3 -10 20 -23 37 -13 17 -41 63 -62 101 -21 39 -46 81 -55 95
-30 43 -170 295 -170 305 -1 6 14 40 32 76 l33 66 110 36 c183 60 325 111 325
119 0 8 -128 -28 -195 -55 -79 -32 -330 -115 -334 -111 -8 8 7 14 110 45 57
16 115 36 129 43 14 7 84 33 155 56 139 45 168 60 119 60 -16 0 -34 -4 -40
-10 -5 -5 -56 -25 -114 -44 -58 -20 -132 -45 -164 -56 -33 -11 -68 -20 -78
-20 -18 0 -48 21 -48 34 0 3 26 19 58 35 31 17 52 30 45 31 -16 0 -96 -41
-105 -54 -9 -14 -22 -1 -13 13 3 6 31 23 61 37 30 14 52 30 48 35 -5 9 -82
-30 -117 -59 -9 -8 -20 -12 -24 -9 -3 4 -4 8 -2 10 2 2 26 19 52 38 27 18 44
35 38 37 -5 2 -33 -13 -62 -33 -50 -34 -53 -35 -78 -19 -14 9 -33 24 -41 33
-13 15 -41 19 -165 24 -82 4 -151 10 -154 13 -3 3 -6 46 -5 95 1 87 -4 102
-25 77 -6 -7 -22 -28 -37 -45 -29 -37 -49 -43 -39 -13 4 11 2 20 -4 20 -6 0
-11 3 -11 8 0 8 111 58 121 55 4 -1 12 41 19 95 6 53 12 101 13 106 3 13 -77
39 -81 26 -2 -5 -12 -10 -23 -10 -24 0 -25 -20 -1 -21 9 -1 1 -5 -18 -10 -21
-5 -48 -4 -67 2 -20 6 -39 7 -50 1 -28 -14 -112 -25 -93 -12 44 31 86 46 110
39 36 -10 70 -10 70 0 0 15 -134 37 -192 32 -10 0 -18 -7 -18 -14 0 -13 -116
-75 -124 -66 -14 13 62 69 93 69 12 0 21 5 21 10 0 25 -56 7 -111 -36 -55 -42
-63 -45 -99 -39 -43 7 -50 18 -22 34 14 9 15 10 1 11 -9 0 -24 -9 -34 -20 -19
-21 -55 -27 -55 -10 0 5 19 22 41 37 23 15 36 29 30 31 -11 4 -91 -56 -91 -69
0 -4 -14 -4 -31 1 -18 5 -36 7 -41 4 -5 -3 -16 -3 -25 0 -14 6 -14 9 2 26 10
11 15 23 12 27 -4 4 -14 -2 -21 -13 -12 -16 -17 -17 -28 -5 -10 11 -10 14 0
18 25 9 11 20 -25 18 -31 -1 -37 -5 -35 -20 3 -17 2 -17 -13 -1 -10 9 -31 16
-53 15 -31 -1 -33 -2 -12 -8 25 -6 83 -41 78 -47 -10 -9 -94 20 -106 37 -7 10
-18 17 -23 13 -6 -4 -6 -11 2 -20 9 -11 8 -14 -4 -14 -9 0 -19 5 -22 10 -8 13
-45 13 -45 0 0 -11 -32 -1 -41 13 -9 13 -42 0 -34 -13 8 -14 69 -28 145 -33
36 -3 103 -10 150 -16 196 -23 394 -34 507 -27 65 4 152 9 193 10 46 1 89 9
109 19 19 9 41 17 50 16 26 0 -26 -32 -72 -44 -22 -6 -42 -16 -45 -23 -5 -17
17 -15 53 4 51 27 75 34 75 23 0 -16 -80 -47 -140 -53 -124 -13 -214 -18 -378
-21 -95 -1 -175 -5 -179 -9 -9 -9 283 -7 402 3 97 8 138 1 107 -18 -10 -6 -9
-10 7 -14 12 -3 23 -2 26 3 2 4 24 10 47 14 23 4 48 12 55 18 8 6 16 8 19 5
10 -10 -71 -54 -113 -61 -23 -4 -95 -8 -162 -8 -67 0 -121 -5 -121 -9 0 -5 13
-9 29 -9 16 0 31 -6 34 -12 3 -10 9 -10 28 -1 35 17 79 25 79 14 0 -12 -51
-22 -125 -25 -188 -8 -461 -6 -539 5 -144 19 -164 27 -68 28 47 1 82 5 82 11
0 6 -18 10 -40 10 -27 0 -40 4 -40 14 0 8 -16 15 -44 18 -59 7 -136 38 -136
54 0 18 17 18 27 -1 10 -16 129 -33 183 -25 48 7 28 16 -52 25 -71 7 -135 32
-169 66 -11 11 -22 19 -24 17 -1 -1 3 -32 11 -68 7 -36 14 -77 14 -91 0 -15 7
-32 14 -39 8 -6 20 -28 27 -48 6 -20 16 -43 22 -49 14 -19 -4 -16 -26 5 -19
17 -19 16 -14 -58 4 -41 7 -84 7 -94 0 -11 3 -16 6 -13 11 11 64 -26 64 -44 0
-9 6 -22 14 -28 17 -14 67 -11 66 4 -1 6 -12 9 -25 7 -14 -2 -25 1 -25 7 0 6
12 11 28 11 24 1 21 4 -23 25 -76 37 -111 74 -85 90 16 10 47 -13 60 -45 8
-19 19 -30 28 -28 21 4 28 28 8 28 -9 0 -16 5 -16 11 0 6 8 9 18 7 20 -5 31 5
49 42 l12 25 7 -22 c9 -32 30 -29 70 11 25 25 34 29 34 18 0 -10 11 -39 25
-66 14 -27 25 -55 25 -63 0 -7 7 -13 15 -13 13 0 12 8 -5 53 l-20 52 39 -45
c37 -43 68 -50 43 -10 -19 31 -14 45 7 19 l20 -24 -4 43 c-4 43 2 51 23 30 6
-6 14 -9 18 -6 3 4 -16 29 -43 57 -27 28 -43 51 -36 51 7 0 13 5 13 11 0 8 4
8 13 0 7 -6 38 -10 68 -9 30 1 64 -4 74 -10 17 -10 18 -11 3 -12 -9 0 -21 -6
-25 -14 -4 -7 -18 -18 -30 -25 -13 -6 -23 -18 -23 -26 0 -21 14 -19 36 6 10
12 32 27 49 35 17 8 22 9 11 2 -11 -7 -39 -32 -63 -55 -33 -32 -40 -43 -26
-43 10 0 24 -9 31 -20 13 -22 36 -28 30 -8 -3 7 13 20 34 30 21 9 38 24 38 33
0 21 -16 19 -57 -6 -37 -23 -53 -21 -25 3 9 9 38 37 64 62 38 37 53 46 78 44
16 -1 30 -5 30 -8 0 -3 -18 -18 -40 -33 -36 -25 -51 -47 -34 -47 4 0 32 21 62
46 38 31 64 44 81 43 14 -1 34 2 45 6 26 11 50 -6 57 -41 6 -32 20 -14 16 21
-1 15 5 21 25 23 27 3 27 3 13 -25 -20 -39 -19 -69 5 -93 l20 -20 -23 -9 c-22
-9 -24 -15 -26 -92 -1 -77 -1 -81 16 -68 10 8 23 21 30 29 11 13 12 13 13 -2
0 -9 -13 -26 -30 -38 -16 -12 -30 -28 -30 -36 0 -17 2 -17 45 0 28 12 36 12
45 1 8 -10 3 -19 -20 -39 -35 -29 -60 -34 -60 -11 0 8 -4 15 -10 15 -6 0 -9
-58 -9 -157 1 -87 4 -149 6 -137 3 15 16 24 49 31 l45 10 -23 -25 c-13 -13
-37 -30 -53 -38 -30 -12 -31 -15 -33 -80 -2 -37 -5 -71 -8 -76 -14 -22 31 -17
80 10 39 21 56 26 60 17 4 -12 -43 -40 -108 -65 -39 -14 -25 -25 15 -11 49 17
46 6 -5 -19 -37 -17 -46 -27 -48 -48 0 -15 -2 -31 -3 -37 -2 -5 -3 -25 -4 -42
-1 -21 -6 -33 -15 -33 -11 0 -14 15 -12 62 1 55 -1 63 -18 66 -11 2 -24 -2
-30 -10 -6 -8 -37 -27 -69 -42 -44 -21 -63 -26 -83 -19 -25 8 -24 10 30 37 31
16 56 32 56 37 0 13 -4 12 -75 -26 -56 -29 -71 -33 -102 -27 l-37 8 65 18 c35
9 78 26 94 36 17 10 46 21 65 25 73 15 110 36 110 61 0 13 -4 24 -10 24 -5 0
-10 -8 -10 -19 0 -11 -9 -21 -22 -24 -138 -34 -168 -38 -168 -27 0 5 18 14 40
20 22 6 38 15 35 21 -4 5 -11 7 -16 3 -5 -3 -24 -10 -41 -14 -29 -9 -30 -9
-13 10 10 11 37 21 68 25 93 11 137 26 137 46 0 23 1 23 -75 4 -74 -18 -117
-18 -55 0 25 7 39 13 33 14 -20 2 -15 22 6 28 12 3 17 11 14 20 -4 9 0 14 8
12 8 -1 29 2 47 6 37 9 38 32 2 27 -23 -2 -23 -2 4 22 18 15 24 26 17 30 -6 4
-11 2 -11 -3 0 -6 -6 -11 -12 -11 -7 0 -39 -16 -71 -35 -67 -40 -98 -46 -90
-15 3 11 0 27 -7 35 -10 12 -9 16 6 21 11 3 36 15 58 26 28 15 49 19 81 15 23
-4 45 -3 49 0 9 10 -52 43 -80 43 -13 0 -40 7 -59 14 -44 19 -48 39 -5 25 16
-6 37 -9 47 -7 11 3 -1 10 -31 20 -41 12 -46 16 -27 21 12 3 34 -1 49 -9 15
-8 32 -14 39 -14 6 0 25 -8 42 -17 31 -18 49 -14 35 9 -5 7 -7 20 -6 30 2 9
-2 19 -8 23 -16 10 -12 65 5 65 8 0 15 7 15 15 0 18 -16 20 -26 3 -8 -13 -21
18 -23 56 -1 15 4 18 29 12 l31 -6 -3 57 c-3 46 -7 57 -24 64 -16 5 -28 2 -44
-13 -20 -19 -21 -27 -15 -87 4 -36 13 -93 20 -125 15 -62 12 -83 -8 -68 -17
13 -90 32 -121 32 -35 0 -54 -39 -38 -75 6 -14 20 -25 29 -25 17 -1 53 -22 53
-32 0 -3 -18 -11 -40 -18 -22 -7 -40 -17 -40 -22 0 -4 -16 -8 -35 -8 -19 0
-35 -4 -35 -10 0 -5 -7 -10 -15 -10 -9 0 -15 9 -15 24 0 13 7 26 15 30 9 3 15
18 15 36 0 19 5 30 14 30 28 0 35 60 10 80 -13 12 -12 16 13 36 33 27 49 30
56 10 9 -22 66 -48 92 -42 13 3 26 13 29 22 8 20 -10 54 -29 54 -10 0 -15 11
-15 36 0 49 -14 70 -55 84 -44 14 -44 25 -2 45 17 8 50 28 72 44 38 28 40 29
49 10 5 -10 12 -19 17 -19 10 0 -2 122 -14 138 -13 16 -61 7 -89 -17 -12 -9
-40 -32 -63 -51 -24 -19 -68 -55 -99 -80 -48 -38 -56 -49 -51 -69 4 -14 13
-30 22 -36 13 -10 12 -14 -11 -28 -14 -9 -29 -17 -34 -17 -4 0 -28 20 -52 45
-44 45 -83 58 -107 34 -7 -7 -18 2 -35 33 -31 54 -42 80 -39 96 1 6 -2 12 -8
12 -10 0 -54 -80 -47 -87 2 -3 11 8 19 24 l15 28 11 -30 c6 -16 16 -38 22 -48
6 -11 8 -21 6 -24 -3 -3 -10 5 -17 16 -13 25 -71 29 -90 6 -17 -21 1 -80 35
-117 29 -32 30 -35 11 -54 -18 -18 -26 -18 -26 1 0 22 -33 35 -89 35 -44 0
-52 4 -75 33 l-26 32 0 -30 c-1 -58 4 -56 -286 -66 -148 -4 -384 -8 -524 -9
l-255 0 -28 -61 c-16 -33 -30 -59 -31 -57 -2 1 -6 240 -10 530 l-7 528 768 3
c422 1 1548 3 2502 5 l1734 2 -7 -52z m-3031 -234 c-21 -14 -47 -23 -59 -21
-20 3 -19 4 6 15 14 6 29 16 33 21 3 6 18 11 32 11 25 0 24 -1 -12 -26z m250
-114 c-3 -5 -14 -10 -23 -10 -15 0 -15 2 -2 10 20 13 33 13 25 0z m-1062 -17
c9 -3 17 -10 17 -15 0 -13 -42 1 -60 19 -13 14 -13 15 5 8 11 -4 28 -10 38
-12z m1094 -38 c-4 -8 -17 -15 -29 -15 l-23 0 25 20 c27 20 36 19 27 -5z m-57
-36 c-39 -16 -150 -24 -150 -11 0 7 27 12 68 15 37 2 76 4 87 4 16 1 15 0 -5
-8z m-992 -41 c14 -14 16 -44 4 -52 -5 -3 -16 10 -25 29 -13 27 -14 35 -4 35
7 0 18 -5 25 -12z m257 -28 c3 -5 1 -10 -4 -10 -6 0 -11 5 -11 10 0 6 2 10 4
10 3 0 8 -4 11 -10z m778 -22 c-3 -13 -20 -38 -37 -57 l-31 -34 33 6 c30 6 32
5 22 -13 -12 -22 -74 -25 -65 -2 6 16 -5 15 -25 -3 -15 -13 -17 -13 -17 1 0 9
10 20 21 26 12 5 37 30 56 53 40 49 51 55 43 23z m-775 -23 c6 -14 10 -25 8
-25 -2 0 -11 11 -20 25 -9 14 -13 25 -8 25 5 0 14 -11 20 -25z m-224 -1 c9
-22 8 -23 -14 -17 -21 5 -25 15 -13 26 11 11 20 8 27 -9z m646 -32 c-22 -22
-40 -45 -40 -52 0 -10 5 -9 18 3 52 49 92 78 92 66 0 -23 -12 -34 -83 -83 -63
-43 -70 -45 -94 -33 l-25 14 24 15 c12 9 37 28 53 43 27 24 85 65 93 65 2 0
-15 -17 -38 -38z m-510 14 c0 -2 -7 -9 -15 -16 -12 -10 -15 -10 -15 4 0 9 7
16 15 16 8 0 15 -2 15 -4z m125 -15 c-3 -6 -11 -11 -16 -11 -5 0 -4 6 3 14 14
16 24 13 13 -3z m4355 4 c0 -12 -13 -15 -57 -15 -62 0 -64 9 -6 20 58 12 63
11 63 -5z m440 -31 c0 -27 -30 -33 -49 -10 -9 11 -8 17 4 30 21 20 45 10 45
-20z m-5022 -13 c2 -6 -2 -11 -10 -11 -17 0 -58 28 -58 40 0 12 63 -15 68 -29z
m5109 4 c8 -23 -1 -28 -37 -20 -25 6 -29 9 -19 21 15 19 48 18 56 -1z m335
-80 c573 -47 1042 -86 1043 -88 0 -1 -1 -32 -3 -69 -4 -68 -4 -68 -33 -68 -17
0 -491 41 -1055 90 -563 50 -1035 90 -1049 90 -24 0 -25 2 -25 65 l0 65 41 0
c22 0 509 -38 1081 -85z m-499 78 c-7 -2 -19 -2 -25 0 -7 3 -2 5 12 5 14 0 19
-2 13 -5z m-4079 -48 c-4 -8 -11 -15 -16 -15 -6 0 -5 6 2 15 7 8 14 15 16 15
2 0 1 -7 -2 -15z m-380 -49 c-4 -11 -45 -36 -59 -36 -15 0 -1 22 23 34 34 19
43 20 36 2z m361 -6 c-3 -5 -11 -10 -16 -10 -6 0 -7 5 -4 10 3 6 11 10 16 10
6 0 7 -4 4 -10z m6448 -157 c12 -268 9 -503 -5 -508 -28 -10 -763 -101 -769
-96 -10 9 -21 674 -11 689 6 9 110 21 338 41 181 16 354 29 385 30 l56 1 6
-157z m-6431 125 c-7 -7 -12 -8 -12 -2 0 14 12 26 19 19 2 -3 -1 -11 -7 -17z
m-547 -65 c49 -50 65 -73 65 -95 l0 -29 -55 42 c-30 23 -55 43 -55 44 0 2 -3
11 -7 21 -4 12 -3 15 5 10 26 -16 10 12 -18 32 -24 18 -30 20 -30 7 0 -8 5
-15 10 -15 6 0 10 -5 10 -11 0 -8 -5 -8 -15 1 -8 7 -15 18 -15 24 0 14 20 36
32 36 5 0 38 -30 73 -67z m5145 -39 c553 -48 1009 -90 1013 -94 4 -4 11 -124
14 -268 6 -253 6 -261 -13 -257 -10 3 -485 64 -1054 136 -569 72 -1038 134
-1042 137 -3 4 -8 105 -10 225 l-3 219 45 -5 c25 -3 497 -45 1050 -93z m-5283
64 c-3 -8 -6 -5 -6 6 -1 11 2 17 5 13 3 -3 4 -12 1 -19z m343 -15 c0 -40 -40
-93 -71 -93 -24 0 -72 51 -60 63 16 16 104 65 119 66 7 1 12 -12 12 -36z
m-324 -28 c-11 -8 -22 -12 -25 -9 -6 6 19 24 34 24 6 -1 1 -7 -9 -15z m52 -67
c-13 -10 -42 -30 -65 -44 -24 -14 -43 -30 -43 -35 0 -5 -11 -9 -24 -9 -19 0
-24 6 -29 37 -7 40 7 57 53 68 14 3 39 14 55 25 29 19 30 19 53 -2 l23 -22
-23 -18z m-1428 -18 c-8 -5 -17 -7 -19 -4 -3 3 1 9 9 14 8 5 17 7 19 4 3 -3
-1 -9 -9 -14z m47 14 c-3 -3 -12 -4 -19 -1 -8 3 -5 6 6 6 11 1 17 -2 13 -5z
m176 -1 c-7 -2 -21 -2 -30 0 -10 3 -4 5 12 5 17 0 24 -2 18 -5z m483 -1 c-7
-11 -248 -13 -284 -2 -17 5 32 9 131 9 87 1 156 -3 153 -7z m71 2 c-3 -3 -12
-4 -19 -1 -8 3 -5 6 6 6 11 1 17 -2 13 -5z m110 0 c-3 -3 -12 -4 -19 -1 -8 3
-5 6 6 6 11 1 17 -2 13 -5z m191 -1 c-10 -2 -28 -2 -40 0 -13 2 -5 4 17 4 22
1 32 -1 23 -4z m102 -1 c0 -4 -18 -6 -40 -4 -22 2 -40 6 -40 8 0 2 18 4 40 4
22 0 40 -3 40 -8z m30 -7 c0 -8 5 -15 10 -15 6 0 10 -12 10 -27 0 -26 -1 -25
-20 12 -23 46 -23 45 -10 45 6 0 10 -7 10 -15z m332 -48 c15 -16 28 -30 28
-31 0 -8 -72 9 -75 18 -2 6 -6 24 -10 40 -6 27 -5 28 11 15 10 -8 30 -27 46
-42z m-76 -47 c-3 -25 -2 -72 4 -104 10 -60 6 -86 -6 -50 -4 10 -15 28 -24 39
-14 16 -45 125 -45 159 0 5 14 17 30 26 29 16 30 16 38 -4 5 -12 6 -41 3 -66z
m684 69 c10 -17 8 -21 -9 -26 -31 -8 -26 -25 7 -23 71 5 68 -10 -3 -17 -37 -4
-44 -2 -39 10 3 9 0 25 -6 36 -6 12 -8 26 -5 31 11 17 44 11 55 -11z m60 2 c0
-11 -5 -23 -11 -27 -15 -9 -33 12 -26 30 9 23 37 20 37 -3z m-2093 -26 c10
-18 18 -25 21 -17 3 10 7 10 18 1 8 -6 14 -16 14 -21 0 -7 -5 -6 -13 1 -8 6
-17 8 -21 4 -4 -4 -12 -1 -17 7 -8 11 -12 12 -16 3 -8 -21 -22 -15 -38 17 -9
17 -20 28 -26 24 -6 -4 -4 -13 6 -24 16 -18 8 -34 -11 -22 -11 7 -34 46 -34
56 0 3 23 5 51 4 45 -2 52 -6 66 -33z m17 19 c3 -8 2 -12 -4 -9 -6 3 -10 10
-10 16 0 14 7 11 14 -7z m932 -31 l24 -41 -37 3 c-21 1 -42 10 -50 21 -7 10
-13 16 -14 13 -7 -36 -3 -49 14 -55 29 -9 5 -27 -44 -31 -35 -4 -41 -2 -36 11
4 10 1 16 -8 16 -8 0 -15 -7 -15 -15 0 -13 -21 -15 -131 -15 -71 0 -128 -4
-125 -8 2 -4 65 -9 138 -11 73 -1 147 -4 163 -5 17 -1 38 2 48 6 10 5 25 4 38
-3 16 -8 28 -8 45 0 14 6 26 7 29 1 5 -8 70 -8 128 -1 4 1 8 16 8 34 l1 32 8
-30 c16 -64 21 -61 -109 -61 -66 1 -118 4 -116 7 2 3 -2 6 -10 6 -8 0 -12 -3
-10 -7 6 -10 -190 -6 -198 5 -6 6 -10 6 -14 -2 -2 -7 -9 -13 -14 -13 -6 0 -8
4 -5 9 7 10 -45 1 -61 -11 -7 -5 -14 -5 -18 2 -3 6 -28 10 -54 9 -26 -1 -54 2
-61 6 -7 5 -11 4 -8 -1 4 -5 -49 -9 -123 -10 -71 -1 -129 3 -129 7 0 5 -7 6
-15 3 -25 -10 -274 -10 -268 0 4 5 0 6 -7 1 -7 -5 -27 -9 -43 -11 -20 -1 -25
1 -16 7 9 6 10 9 2 9 -6 0 -15 -5 -18 -11 -4 -6 -14 -8 -24 -5 -9 4 -7 -2 8
-14 13 -11 19 -20 13 -20 -20 0 -42 32 -42 60 0 27 1 28 24 16 14 -7 55 -12
98 -11 40 1 79 -2 86 -8 6 -5 12 -6 12 -1 0 5 68 9 150 9 82 0 150 3 150 8 0
4 -72 7 -160 7 -131 0 -158 2 -154 14 3 7 -2 21 -12 30 -15 16 -14 17 25 12
67 -8 76 1 41 40 -16 19 -30 37 -30 39 0 3 203 4 452 2 l451 -2 23 -42z m39
-7 c16 -25 35 -48 43 -51 7 -3 0 14 -17 37 -35 48 -44 89 -10 48 14 -16 19
-19 15 -7 -4 13 0 17 20 17 28 0 33 -8 36 -70 3 -44 2 -45 -27 -45 -24 0 -36
9 -67 54 -36 52 -48 78 -30 67 5 -3 21 -25 37 -50z m-1102 -4 c-4 -9 -14 -22
-22 -29 -21 -16 -6 -17 19 -1 16 10 22 10 32 -1 10 -11 10 -14 1 -18 -7 -3
-13 -10 -13 -16 0 -8 4 -7 12 1 16 16 28 15 28 -2 0 -11 -14 -14 -56 -14 l-56
2 7 34 c3 19 11 45 16 59 8 20 12 23 24 13 7 -6 11 -19 8 -28z m2237 -8 c0
-14 -12 -19 -23 -8 -9 9 4 35 14 28 5 -3 9 -12 9 -20z m-164 -6 c-1 -19 -7
-23 -39 -24 l-37 -1 32 23 c41 29 46 29 44 2z m-2000 -15 c7 -10 14 -24 14
-30 0 -19 -17 -16 -24 5 -3 9 -9 23 -12 30 -9 18 7 15 22 -5z m1281 -65 l62
-63 -34 -2 c-30 -1 -39 4 -60 35 -14 20 -25 32 -26 27 -1 -15 -17 28 -18 48
-1 28 11 20 76 -45z m1223 47 c-7 -8 -16 -12 -21 -9 -13 8 -1 24 18 24 13 0
13 -3 3 -15z m-1510 -6 c0 -8 5 -7 15 1 9 7 19 10 23 6 9 -9 -28 -38 -43 -33
-14 5 -19 37 -6 37 6 0 11 -5 11 -11z m1471 -42 c-10 -9 -11 -8 -5 6 3 10 9
15 12 12 3 -3 0 -11 -7 -18z m-961 -56 c0 -51 -21 -69 -55 -47 -14 9 -25 25
-25 35 0 11 -3 26 -6 35 -5 13 2 16 40 16 l46 0 0 -39z m715 29 c3 -6 -1 -13
-10 -16 -19 -8 -30 0 -20 15 8 14 22 14 30 1z m226 -38 c-6 -2 -11 -11 -11
-20 -1 -24 -27 -55 -40 -47 -8 5 -6 15 6 33 10 15 25 41 33 57 l16 30 3 -25
c2 -13 -1 -26 -7 -28z m-435 22 c-3 -9 -6 -26 -6 -38 0 -14 -11 -28 -30 -39
-36 -22 -41 -5 -9 29 11 12 22 30 24 40 2 11 4 20 4 22 1 1 6 2 12 2 6 0 8 -7
5 -16z m-777 -45 c-23 -15 -28 -10 -16 15 10 21 13 22 21 9 5 -10 4 -18 -5
-24z m-1296 24 c-7 -2 -21 -2 -30 0 -10 3 -4 5 12 5 17 0 24 -2 18 -5z m470 0
c-7 -2 -21 -2 -30 0 -10 3 -4 5 12 5 17 0 24 -2 18 -5z m404 1 c-3 -3 -12 -4
-19 -1 -8 3 -5 6 6 6 11 1 17 -2 13 -5z m70 0 c-3 -3 -12 -4 -19 -1 -8 3 -5 6
6 6 11 1 17 -2 13 -5z m721 -6 c16 -16 15 -29 -1 -22 -7 2 -24 -7 -37 -21 -14
-15 -18 -25 -10 -25 7 0 19 8 26 17 7 10 15 16 18 13 6 -6 -125 -140 -137
-140 -1 0 -3 14 -3 31 -2 32 18 63 65 104 13 11 31 28 40 37 20 20 24 21 39 6z
m1232 -33 c0 -5 -5 -3 -10 5 -5 8 -10 20 -10 25 0 6 5 3 10 -5 5 -8 10 -19 10
-25z m1328 26 c66 -1 92 -4 92 -13 0 -10 -125 -13 -597 -11 -329 2 -601 3
-605 3 -5 0 -8 6 -8 13 0 11 319 13 1118 8z m348 -8 c-10 -11 -236 -12 -236
-1 0 4 55 8 122 8 67 0 118 -3 114 -7z m-1480 -30 c21 -95 11 -85 109 -104
121 -23 287 -39 408 -39 84 0 98 -2 93 -15 -4 -11 2 -15 20 -15 22 0 25 -4 22
-32 -3 -31 -5 -33 -41 -33 -46 0 -50 5 -37 39 6 18 6 26 -1 26 -6 0 -13 -9
-16 -20 -8 -31 -79 -27 -155 9 -33 16 -67 27 -75 24 -8 -3 -18 -1 -22 6 -6 8
-17 7 -46 -4 -25 -11 -41 -13 -48 -6 -5 5 -15 7 -22 4 -8 -2 -18 5 -25 16 -22
43 -130 15 -130 -33 0 -33 28 -66 55 -66 14 0 29 -9 35 -20 9 -16 8 -20 -7
-20 -27 0 -3 -15 45 -29 46 -13 48 -32 4 -30 -15 1 -41 -4 -59 -9 -35 -11 -43
-8 -43 20 0 27 -19 22 -31 -9 -13 -34 -6 -50 31 -71 42 -24 37 -30 -17 -25
-63 7 -109 36 -122 76 -12 38 -44 169 -61 252 -7 33 -16 73 -21 89 -5 16 -9
33 -9 37 0 5 36 9 80 9 79 0 80 0 86 -27z m-2403 -27 c-5 -37 -2 -46 14 -57
16 -10 19 -20 15 -54 -4 -36 -1 -45 22 -62 15 -12 24 -27 21 -35 -10 -25 13
-68 35 -68 16 0 20 -7 20 -30 0 -52 64 -67 115 -26 28 22 29 25 17 62 -6 22
-14 49 -17 62 -4 15 -14 22 -30 22 -19 0 -23 4 -19 18 3 9 -8 -7 -25 -35 -32
-54 -65 -70 -77 -38 -11 29 5 65 29 65 12 0 29 5 37 11 11 8 0 9 -43 5 -54 -4
-59 -3 -67 20 -14 36 -4 50 47 67 49 16 73 13 73 -9 0 -17 41 -28 69 -19 11 3
20 11 18 18 -1 6 8 13 21 15 18 3 26 -4 38 -35 26 -60 60 -86 106 -80 l38 5 0
-48 c0 -50 -14 -100 -27 -100 -5 0 -7 29 -7 65 1 55 -1 65 -16 65 -23 0 -100
-61 -100 -79 0 -12 2 -12 13 2 14 19 65 40 78 31 5 -3 9 -21 9 -40 0 -27 -5
-37 -26 -46 -23 -11 -29 -10 -45 11 -14 17 -19 19 -19 7 0 -21 36 -39 67 -33
l25 5 -20 -21 c-17 -17 -24 -18 -36 -8 -29 25 -84 -28 -71 -69 6 -19 -4 -19
-432 -19 -532 0 -507 -5 -565 112 -12 24 -9 27 43 33 24 3 49 10 54 15 7 7 -8
8 -47 4 -40 -5 -58 -4 -58 4 0 6 17 11 39 11 22 0 42 3 44 8 3 4 -18 6 -46 5
-38 -2 -47 0 -32 6 26 12 108 14 101 2 -8 -13 31 -44 44 -36 7 4 16 1 21 -6 7
-12 12 -12 30 0 20 12 24 11 34 -3 11 -14 14 -14 30 4 14 16 16 23 7 32 -9 9
-12 8 -12 -5 0 -23 -17 -21 -30 3 -14 26 -29 25 -39 -2 -9 -23 -9 -23 -20 5
-10 27 -12 27 -96 27 l-85 0 0 48 c0 26 -3 56 -6 67 -6 23 24 68 32 48 4 -8
16 -10 35 -6 31 6 37 -5 17 -25 -9 -9 -10 -15 -2 -20 6 -4 15 -22 19 -39 7
-35 25 -55 25 -29 0 9 5 16 10 16 6 0 10 -4 10 -10 0 -5 12 -10 26 -10 14 0
33 -4 43 -10 16 -8 20 -5 25 22 3 17 6 41 6 53 0 31 28 54 41 34 5 -8 9 -25 9
-39 1 -35 31 -73 53 -64 9 3 17 16 17 27 0 20 1 20 14 2 24 -33 46 -12 46 45
0 65 15 65 23 -1 7 -59 6 -56 32 -61 18 -3 20 3 23 60 4 82 22 80 22 -3 0 -51
3 -65 15 -65 8 0 15 1 16 3 0 1 2 35 5 75 6 72 6 72 -19 72 -50 0 -57 -9 -59
-69 l-1 -56 -6 55 -6 55 -42 3 c-40 3 -43 1 -43 -21 0 -14 -7 -27 -15 -31 -8
-3 -15 -17 -15 -31 0 -40 -17 -21 -23 25 -7 54 -23 72 -61 68 -28 -3 -31 -7
-41 -58 -12 -67 -38 -77 -43 -17 -2 28 0 37 12 37 9 0 16 7 16 15 0 12 -9 15
-35 13 -26 -1 -35 -7 -35 -20 0 -10 -7 -18 -15 -18 -8 0 -15 9 -15 20 0 16 -7
20 -32 20 -31 0 -33 2 -36 40 l-2 39 227 2 c187 0 436 10 464 17 4 1 4 -18 2
-42z m176 30 c17 -20 -42 -44 -64 -26 -20 16 -19 27 3 33 33 9 50 7 61 -7z
m305 -18 c-7 -38 -28 -58 -60 -58 -21 0 -21 2 -11 35 7 23 17 35 28 35 10 0
21 5 24 10 13 22 24 8 19 -22z m96 12 c12 -12 25 -32 30 -45 5 -14 16 -25 24
-25 15 0 26 -29 26 -70 0 -15 4 -30 9 -35 15 -16 18 -87 4 -92 -7 -3 -13 1
-13 8 0 19 -43 79 -57 79 -14 0 -18 52 -6 64 4 3 8 15 10 25 2 14 -5 20 -27
24 -29 6 -63 47 -39 47 7 0 18 -8 25 -17 10 -14 15 -15 25 -6 9 9 4 17 -25 33
-20 12 -36 24 -36 26 0 12 33 1 50 -16z m145 8 c25 -7 45 -16 45 -21 0 -4 10
-5 21 -2 14 5 19 3 15 -3 -3 -6 0 -12 6 -15 10 -3 9 -9 -4 -22 -15 -16 -21
-16 -50 -5 -49 20 -57 31 -18 25 33 -5 32 -4 -15 19 -62 30 -73 32 -50 6 22
-24 18 -25 -25 -4 -24 12 -29 19 -19 25 19 12 41 11 94 -3z m-640 -18 c3 -10
1 -29 -5 -41 -11 -19 -10 -20 9 -14 12 4 21 2 21 -4 0 -15 -73 -14 -88 1 -7 7
-12 22 -12 35 0 39 63 60 75 23z m282 -10 c1 -14 4 -34 8 -45 4 -14 -1 -24
-15 -33 -17 -11 -25 -10 -49 4 -19 11 -27 23 -23 33 5 16 -11 5 -56 -36 -7 -7
-21 -13 -30 -12 -16 0 -16 1 0 7 12 5 14 11 9 21 -5 8 -16 11 -25 8 -20 -8
-20 2 0 24 12 13 25 16 51 12 27 -5 34 -3 28 6 -4 7 -15 11 -25 8 -23 -6 -45
8 -35 22 4 8 33 11 83 9 74 -3 77 -4 79 -28z m3391 23 c-21 -2 -57 -2 -80 0
-24 2 -7 4 37 4 44 0 63 -2 43 -4z m125 -5 c-2 -5 -3 -23 -3 -40 0 -48 -11
-58 -66 -64 -46 -6 -52 -4 -67 20 -15 22 -25 26 -62 26 -38 0 -45 3 -45 20 0
18 8 20 103 22 78 2 101 6 99 16 -2 9 6 12 20 10 13 -2 22 -6 21 -10z m-4623
-8 c0 -5 -4 -10 -10 -10 -5 0 -10 5 -10 10 0 6 5 10 10 10 6 0 10 -4 10 -10z
m30 0 c0 -5 -4 -10 -10 -10 -5 0 -10 5 -10 10 0 6 5 10 10 10 6 0 10 -4 10
-10z m4334 -18 c-15 -60 -60 -82 -200 -97 -43 -5 -64 -3 -69 5 -10 17 -3 21
53 25 53 4 99 23 122 50 20 24 3 31 -23 9 -12 -11 -35 -26 -50 -32 -36 -16
-227 -16 -227 -1 0 7 -14 9 -42 5 -24 -4 -121 -11 -217 -16 -96 -6 -176 -12
-179 -15 -3 -3 66 -5 153 -5 140 0 157 -2 145 -15 -13 -12 -41 -13 -185 -5
-217 12 -356 26 -406 42 -38 11 -69 39 -69 63 0 8 172 12 600 13 l600 1 -6
-27z m-3224 4 c0 -3 -4 -8 -10 -11 -5 -3 -10 -1 -10 4 0 6 5 11 10 11 6 0 10
-2 10 -4z m605 -6 c-28 -12 -37 -12 -30 0 3 6 16 10 28 9 21 0 21 -1 2 -9z
m369 -17 c-2 -40 -2 -40 -22 -45 -11 -3 -23 2 -30 13 -15 24 -15 29 2 29 7 0
19 7 26 15 18 22 26 18 24 -12z m-2084 -8 c0 -14 -4 -25 -10 -25 -5 0 -10 11
-10 25 0 14 5 25 10 25 6 0 10 -11 10 -25z m2456 -12 c-11 -11 -17 4 -9 23 7
18 8 18 11 1 2 -10 1 -21 -2 -24z m-1096 17 c0 -5 -2 -10 -4 -10 -3 0 -8 5
-11 10 -3 6 -1 10 4 10 6 0 11 -4 11 -10z m397 -6 c-3 -3 -12 -4 -19 -1 -8 3
-5 6 6 6 11 1 17 -2 13 -5z m-572 -78 c-7 -50 -10 -56 -31 -56 l-24 0 21 36
c13 23 15 34 7 32 -7 -3 -19 -17 -26 -31 -13 -27 -45 -36 -57 -17 -3 6 3 10
14 10 12 0 21 5 21 11 0 5 -4 7 -10 4 -17 -11 -11 7 8 21 16 12 15 13 -8 14
-22 1 -23 2 -8 11 12 7 24 6 37 -1 24 -13 34 -13 26 -1 -5 9 26 33 33 26 2 -2
1 -28 -3 -59z m102 22 c-8 -12 -19 -16 -37 -11 -32 7 -30 5 -24 29 5 18 9 19
39 10 28 -9 31 -13 22 -28z m3169 -9 c20 -39 18 -45 -16 -59 -16 -7 -30 -16
-30 -21 0 -13 -52 -37 -80 -37 -24 0 -65 -21 -198 -105 -47 -30 -66 -37 -74
-29 -9 9 -7 12 7 12 17 0 17 1 0 19 -17 20 -18 20 -56 -5 -21 -13 -50 -24 -63
-24 -25 0 -66 41 -66 66 0 25 39 15 61 -15 21 -29 21 -29 41 -9 10 10 18 29
16 40 -2 16 5 24 29 32 18 6 37 16 44 23 9 9 16 9 30 0 10 -6 22 -7 26 -3 4 5
2 11 -4 13 -23 8 -14 22 27 43 33 17 43 18 59 8 25 -15 38 -4 21 17 -10 12 -9
16 6 21 11 4 35 14 54 22 19 9 55 21 80 27 50 13 63 7 86 -36z m2314 -70 l945
-120 360 45 c199 25 369 46 378 46 16 0 17 -29 17 -394 l0 -394 -27 -6 c-16
-3 -73 -10 -128 -16 -287 -30 -483 -41 -808 -47 l-357 -6 8 22 c5 15 1 45 -15
92 -40 125 -67 371 -43 395 6 6 7 24 4 42 -5 26 -12 33 -40 38 -44 8 -50 21
-59 117 -4 42 -11 80 -16 83 -5 3 -9 -1 -10 -8 0 -7 -6 -51 -13 -98 l-11 -85
-40 -5 c-38 -5 -40 -7 -43 -43 -2 -21 2 -44 7 -51 23 -27 -19 -313 -63 -430
l-23 -60 -59 2 c-32 1 -96 5 -141 8 l-83 6 0 42 c0 23 -5 47 -12 54 -8 8 -8
15 1 25 14 18 9 33 -60 173 l-49 101 -70 0 c-39 1 -74 4 -77 7 -10 10 -21 7
-26 -8 -4 -9 0 -12 13 -9 28 7 31 -11 11 -58 -25 -57 -38 -125 -22 -115 16 10
14 -45 -3 -66 -9 -13 -27 -18 -60 -18 l-46 0 0 35 c0 22 15 64 40 111 22 42
40 82 40 90 0 20 -78 -129 -95 -181 -11 -32 -14 -35 -14 -15 -1 14 8 43 18 63
26 50 32 69 23 63 -9 -6 -72 114 -72 136 0 10 3 9 10 -2 7 -11 8 -5 4 20 -9
45 -14 51 -14 16 l0 -28 -89 4 c-74 4 -91 2 -96 -10 -4 -12 -3 -12 8 -3 11 9
17 8 25 -2 8 -9 5 -31 -13 -80 -29 -80 -31 -99 -9 -90 12 4 14 0 8 -23 -4 -16
-11 -34 -15 -40 -5 -6 -6 -14 -2 -17 3 -4 -10 -7 -30 -7 -21 0 -37 5 -37 10 0
6 -9 10 -20 10 -32 0 -25 53 15 118 38 63 65 153 65 220 0 36 3 43 16 38 9 -3
28 -6 44 -6 26 0 29 -4 41 -55 14 -63 31 -64 23 -1 -5 36 -3 44 12 50 11 3 25
9 32 12 8 4 12 -5 13 -28 1 -27 3 -24 10 17 4 27 4 52 -1 55 -4 3 -10 21 -12
40 -4 40 -20 47 -113 49 -70 1 -85 -9 -85 -58 0 -39 16 -32 22 9 3 24 6 25 81
28 48 2 77 -1 77 -8 0 -5 -18 -10 -39 -10 -50 0 -91 -15 -91 -34 0 -7 -10 -16
-22 -20 -22 -5 -23 -11 -23 -88 -1 -70 -5 -92 -28 -138 -15 -30 -24 -46 -20
-35 5 11 9 161 11 333 1 171 6 312 10 312 4 0 432 -54 952 -121z m-5104 96 c4
-8 14 -16 23 -16 9 -1 -2 -5 -24 -8 -22 -4 -50 -11 -62 -15 -33 -11 -28 5 10
32 37 26 46 27 53 7z m764 -10 c-7 -9 -15 -13 -17 -11 -7 7 7 26 19 26 6 0 6
-6 -2 -15z m-440 -4 c0 -5 -7 -11 -15 -15 -15 -5 -20 5 -8 17 9 10 23 9 23 -2z
m2045 -8 c3 -10 -17 -13 -82 -13 -54 0 -83 4 -77 9 19 19 151 22 159 4z
m-4081 -155 c4 -56 3 -68 -9 -68 -12 0 -15 21 -14 118 1 123 9 105 23 -50z
m3309 118 c24 -18 22 -22 -15 -35 -38 -14 -42 -11 -27 23 14 30 17 31 42 12z
m-3156 -18 c-3 -8 -6 -5 -6 6 -1 11 2 17 5 13 3 -3 4 -12 1 -19z m2283 13 c0
-5 -9 -19 -21 -32 l-20 -24 17 33 c19 33 24 38 24 23z m1667 -6 c2 -1 -16 -12
-38 -24 -39 -22 -42 -23 -72 -6 -24 12 -49 16 -95 14 -53 -4 -62 -2 -62 13 0
16 12 17 133 11 72 -3 133 -7 134 -8z m83 6 c-8 -5 -25 -12 -37 -15 -18 -6
-22 -4 -17 8 4 10 18 16 38 16 22 -1 27 -3 16 -9z m-2071 -32 c-20 -13 -29
-11 -29 5 0 16 33 27 39 13 2 -5 -3 -13 -10 -18z m-399 6 c0 -7 8 -19 18 -24
15 -9 15 -12 2 -21 -8 -5 -22 -10 -30 -10 -9 0 -58 -14 -109 -30 -52 -17 -94
-29 -95 -28 0 2 -7 14 -14 27 -20 35 -2 48 108 72 52 11 96 22 99 25 9 9 21 3
21 -11z m1805 -5 c3 -5 15 -10 25 -10 11 0 34 -9 52 -20 18 -11 48 -20 67 -20
36 0 71 -29 71 -60 0 -9 10 -27 22 -40 l22 -23 -30 6 c-192 40 -232 50 -253
64 -20 13 -22 20 -17 56 4 22 9 44 12 49 7 11 21 10 29 -2z m-2159 -72 l15
-43 -32 32 c-26 26 -30 36 -25 59 7 25 9 26 17 12 5 -10 16 -37 25 -60z m764
43 c0 -20 -46 -47 -99 -57 -24 -5 -31 -3 -31 9 0 10 20 21 55 33 31 9 58 21
61 25 8 14 14 10 14 -10z m1278 -4 c2 -11 -3 -17 -15 -17 -11 0 -24 -5 -31
-12 -9 -9 -15 -9 -23 -1 -17 17 -4 41 23 46 33 6 43 3 46 -16z m-2414 -58 c9
-63 -4 -81 -53 -77 -29 2 -37 8 -39 26 -2 14 5 32 20 47 13 13 29 30 36 39 21
26 29 19 36 -35z m417 9 c8 -15 8 -18 0 -14 -6 4 -16 16 -22 28 -8 15 -8 18 0
14 6 -4 16 -16 22 -28z m2446 21 c9 -9 19 -9 42 0 16 7 39 10 50 6 23 -7 29
-23 9 -22 -65 2 -78 -3 -78 -31 0 -16 -7 -37 -15 -48 -14 -18 -14 -17 -15 15
0 33 -1 34 -19 17 -22 -20 -54 -10 -65 20 -11 29 -6 34 29 34 19 0 35 5 35 10
0 13 13 13 27 -1z m-2504 -77 c-5 -11 -2 -14 10 -9 22 8 47 -1 47 -18 0 -7 9
-23 19 -37 23 -28 14 -53 -16 -44 -11 3 -33 21 -49 38 -16 18 -20 25 -9 17 36
-30 65 -41 65 -27 0 7 -21 25 -46 40 -29 18 -44 34 -42 44 2 11 -5 18 -20 19
-12 1 -28 8 -35 15 -10 10 -8 12 10 7 17 -4 20 -1 16 12 -4 9 6 4 25 -13 19
-18 28 -34 25 -44z m-1163 49 c0 -6 -4 -13 -10 -16 -5 -3 -10 1 -10 9 0 9 5
16 10 16 6 0 10 -4 10 -9z m1933 -28 c-9 -67 -19 -97 -32 -101 -10 -3 -10 0 0
16 11 18 10 24 -5 41 -17 19 -17 20 3 31 28 14 27 29 -1 23 -23 -5 -23 -5 -3
10 33 27 44 21 38 -20z m-463 -5 c19 -5 49 -16 67 -24 17 -8 42 -14 55 -14 12
0 43 -6 68 -14 l45 -13 -40 -13 c-29 -8 -50 -9 -75 -2 -26 7 -29 10 -12 11 12
1 22 5 22 10 0 13 -61 20 -88 10 -13 -5 -34 -9 -48 -9 -30 0 -32 -20 -1 -21
12 0 16 -3 9 -6 -7 -3 -42 0 -77 7 -58 11 -63 14 -67 41 -4 26 0 30 36 43 23
8 48 12 56 9 8 -3 31 -9 50 -15z m250 -26 c17 -38 29 -52 60 -66 22 -10 40
-21 40 -26 0 -9 -78 -33 -142 -44 -50 -9 -349 -7 -402 2 -5 1 3 13 18 27 14
13 26 29 26 35 0 12 2 12 60 -1 25 -5 87 -16 139 -23 l94 -14 50 25 c27 14 51
32 54 40 8 20 -15 40 -57 51 l-35 9 35 16 c19 8 36 16 37 16 1 1 12 -21 23
-47z m1616 -9 c-4 -10 3 -27 19 -43 22 -23 32 -26 58 -21 18 4 52 2 77 -3 44
-11 42 -11 -47 -14 -143 -4 -282 2 -255 12 24 9 42 42 42 78 0 11 7 26 16 33
24 17 99 -19 90 -42z m871 22 c3 -30 0 -35 -20 -36 -67 -5 -87 -9 -113 -22
-27 -14 -27 -14 -6 -26 32 -17 27 -26 -15 -25 -55 2 -55 2 -48 23 5 15 1 18
-20 13 -33 -6 -33 15 1 30 22 10 27 9 35 -5 9 -16 12 -16 37 0 15 9 38 27 52
39 20 17 66 39 90 43 3 1 6 -15 7 -34z m-580 -41 c-3 -3 -12 -4 -19 -1 -8 3
-5 6 6 6 11 1 17 -2 13 -5z m79 -15 c-23 -18 -29 -19 -43 -7 -14 12 -13 14 13
19 52 12 57 9 30 -12z m-2695 -26 c-7 -44 -28 -54 -37 -19 -7 27 9 56 31 56 8
0 10 -11 6 -37z m522 30 c-7 -2 -19 -2 -25 0 -7 3 -2 5 12 5 14 0 19 -2 13 -5z
m327 -2 c0 -12 -28 -22 -34 -12 -3 5 -3 11 1 15 9 9 33 7 33 -3z m1549 0 c9
-6 10 -10 2 -16 -15 -8 -41 1 -41 15 0 12 20 13 39 1z m269 -37 c7 -4 24 4 37
16 l25 23 26 -26 27 -27 -79 -1 c-44 -1 -86 0 -94 1 -24 3 -30 23 -12 36 14
10 21 10 37 -2 11 -8 26 -17 33 -20z m187 26 c3 -5 1 -10 -4 -10 -6 0 -11 5
-11 10 0 6 2 10 4 10 3 0 8 -4 11 -10z m65 -15 l23 -25 -37 0 c-33 0 -37 2
-26 15 6 8 9 19 5 25 -12 20 12 10 35 -15z m-2987 -16 c23 -33 10 -59 -28 -59
-38 0 -53 26 -35 60 14 26 45 26 63 -1z m580 14 c-7 -2 -19 -2 -25 0 -7 3 -2
5 12 5 14 0 19 -2 13 -5z m3511 -268 c10 -21 16 -53 14 -78 l-3 -42 -2755 0
-2755 0 1 41 c0 23 6 56 13 73 l13 31 1852 3 c1018 1 2245 3 2727 5 l877 2 16
-35z m-264 -918 c0 -420 2 -901 5 -1068 3 -192 2 -295 -4 -279 -5 14 -24 77
-41 140 -33 119 -79 233 -86 214 -3 -6 6 -42 20 -80 26 -75 47 -150 71 -259
14 -63 14 -71 0 -81 -26 -20 -18 -36 15 -29 32 7 37 0 17 -27 -16 -20 -102
-35 -111 -19 -5 8 -162 11 -532 11 -348 0 -523 3 -519 10 3 6 17 10 31 10 13
0 24 4 24 9 0 5 3 16 6 24 4 12 -10 16 -70 22 -88 8 -189 -2 -183 -19 2 -6 23
-10 48 -10 38 2 46 -2 56 -22 l11 -24 -405 0 c-342 0 -404 2 -394 14 9 10 8
16 -4 26 -12 10 -50 11 -163 6 -194 -10 -214 -30 -37 -39 33 -2 5 -4 -62 -5
-68 -1 -123 2 -123 6 0 4 -15 13 -34 20 -19 7 -36 21 -39 32 -6 24 -27 27 -27
5 0 -9 7 -26 15 -39 14 -21 14 -24 -1 -30 -24 -9 -44 12 -44 48 l0 31 -205 -3
c-122 -2 -205 -7 -205 -12 0 -6 77 -10 196 -10 l196 0 -7 -55 -6 -55 30 0 c31
0 66 -28 77 -62 7 -24 21 -23 34 2 7 13 21 20 40 20 17 0 30 5 30 10 0 6 29
10 68 10 l67 0 -42 -20 c-31 -14 -41 -23 -37 -35 4 -8 14 -14 22 -13 9 2 17
-4 17 -12 0 -8 10 -16 22 -18 14 -2 20 -8 16 -18 -6 -17 18 -19 35 -2 9 9 12
9 12 0 0 -7 -18 -20 -40 -29 -22 -10 -40 -21 -40 -26 0 -12 132 4 157 19 19
12 30 11 85 -11 l63 -24 -1410 1 c-796 0 -1388 4 -1360 9 135 22 361 29 1007
29 l698 0 0 333 0 334 -442 6 c-243 4 -445 10 -450 15 -4 4 -11 240 -14 522
l-6 515 -56 94 c-31 52 -65 104 -76 115 -12 12 -23 41 -27 66 l-6 45 -2 -44
-1 -44 -109 7 c-63 3 -125 13 -147 22 -42 18 -150 13 -183 -8 -13 -8 -66 -8
-187 -2 l-169 9 -6 35 c-8 46 -12 29 -10 -45 2 -42 -5 -78 -21 -120 l-23 -60
-5 -750 -5 -750 -3 1082 -2 1083 1728 3 c950 1 2072 3 2495 5 l767 2 0 -763z
m838 656 c3 -26 0 -33 -15 -33 -34 -1 -288 45 -268 48 86 12 179 20 225 18 54
-1 55 -1 58 -33z m19 -30 c-3 -10 -5 -2 -5 17 0 19 2 27 5 18 2 -10 2 -26 0
-35z m331 -28 l0 -30 -8 30 c-4 17 -8 39 -8 50 l-1 20 9 -20 c5 -11 8 -33 8
-50z m-537 20 c903 -153 1904 -182 2790 -81 l106 12 6 -156 c4 -85 7 -235 7
-332 l0 -177 -32 -6 c-25 -4 -783 -95 -793 -95 -5 0 -15 298 -16 473 0 117 -4
197 -10 197 -5 0 -9 -19 -9 -42 0 -76 19 -72 -337 -65 -548 11 -1074 55 -1648
137 -313 45 -300 42 -299 68 3 89 5 102 17 102 8 0 106 -16 218 -35z m274 10
c0 -16 -6 -19 -25 -17 -31 5 -34 7 -26 27 9 24 51 15 51 -10z m282 -42 c-3
-10 -5 -2 -5 17 0 19 2 27 5 18 2 -10 2 -26 0 -35z m71 0 c3 -17 -2 -23 -15
-23 -28 0 -47 16 -40 35 10 25 51 15 55 -12z m-573 -122 c572 -82 1125 -128
1685 -140 l305 -6 7 -259 c4 -143 5 -262 3 -265 -7 -6 -2218 260 -2226 268 -4
3 -10 104 -13 224 -7 208 -6 218 11 213 10 -3 113 -19 228 -35z m-5289 -216
c9 -2 9 -14 1 -44 -17 -62 -2 -82 77 -105 129 -36 212 -6 217 80 2 22 -1 46
-5 52 -6 10 14 12 90 10 l98 -3 39 -55 c44 -63 82 -139 73 -148 -10 -9 -480
-2 -581 9 -49 5 -128 9 -174 8 l-85 -2 -27 75 c-15 41 -32 84 -38 96 -6 11
-11 24 -11 29 0 8 303 6 326 -2z m226 -2 c21 -9 38 -23 38 -31 0 -12 -15 -14
-82 -10 -101 7 -155 28 -131 51 13 14 137 7 175 -10z m-135 -90 c-3 -10 -5 -4
-5 12 0 17 2 24 5 18 2 -7 2 -21 0 -30z m-396 -13 c4 -3 9 -14 11 -25 2 -14
-3 -20 -18 -21 -12 -1 -26 -4 -33 -8 -20 -12 -23 20 -6 60 15 36 17 38 27 19
6 -11 15 -22 19 -25z m509 4 c0 -8 5 -12 11 -9 6 4 8 13 5 21 -3 8 1 14 10 14
11 0 13 -7 8 -27 -4 -16 -12 -31 -18 -35 -16 -11 -76 -9 -76 2 0 6 9 10 20 10
15 0 20 7 20 26 0 14 4 23 10 19 6 -3 10 -13 10 -21z m-470 -166 c0 -48 -13
-90 -23 -78 -2 3 -11 16 -20 30 -9 13 -17 19 -17 13 0 -7 5 -15 10 -18 6 -3
10 -14 10 -23 -1 -13 -7 -9 -26 13 -13 17 -23 38 -20 48 2 9 1 15 -4 12 -4 -3
-13 1 -19 9 -9 11 -6 16 17 24 18 6 35 6 45 0 10 -5 17 -6 16 -1 -3 17 1 23
16 23 11 0 15 -12 15 -52z m113 1 c7 26 27 27 34 2 4 -17 8 -18 24 -8 16 10
22 9 30 -3 8 -11 12 -12 16 -2 2 6 10 12 16 12 13 0 57 -40 57 -52 0 -14 -27
-9 -40 7 -9 11 -16 12 -26 4 -7 -6 -18 -8 -23 -5 -6 4 -20 1 -31 -6 -17 -11
-22 -11 -30 1 -7 12 -11 12 -24 2 -12 -10 -17 -8 -31 12 -9 14 -13 32 -9 42 6
16 8 15 19 -5 l12 -22 6 21z m336 -3 c20 4 31 2 31 -5 0 -6 5 -11 10 -11 6 0
10 6 10 14 0 8 7 17 16 20 22 9 54 -11 54 -34 0 -26 17 -26 25 0 8 25 14 25
44 -1 18 -15 21 -23 13 -31 -8 -8 -15 -8 -27 2 -8 7 -15 8 -15 2 0 -17 -30
-22 -50 -9 -11 6 -20 20 -20 29 0 10 -4 18 -10 18 -5 0 -10 -9 -10 -19 0 -27
-31 -36 -47 -15 -12 17 -14 17 -27 -1 -13 -18 -14 -18 -32 3 l-19 22 -16 -21
c-21 -28 -49 -19 -49 16 0 28 20 35 21 8 0 -11 4 -7 11 10 10 27 11 27 33 13
16 -10 35 -14 54 -10z m321 -8 c0 -20 1 -20 19 -4 24 22 34 8 18 -24 -19 -38
-44 -37 -55 2 l-9 33 -12 -30 c-12 -29 -13 -29 -27 -11 -27 37 -15 52 44 55
16 1 22 -5 22 -21z m5915 -108 l909 -110 375 45 c207 25 391 47 409 50 l32 6
-1 -568 c-1 -312 -4 -631 -8 -708 l-6 -140 -45 -7 c-253 -43 -863 -95 -887
-76 -7 6 -13 18 -13 27 -1 12 -7 8 -26 -13 l-25 -29 -340 5 c-229 3 -343 8
-350 15 -14 14 -2 226 15 247 20 26 53 29 75 7 l21 -21 -6 48 c-9 77 -23 131
-49 183 -14 27 -25 64 -25 83 0 57 -56 60 -84 5 -14 -28 -47 -32 -88 -12 -54
26 -101 13 -127 -35 -12 -23 -12 -23 18 -8 60 31 56 10 -10 -57 -53 -54 -68
-88 -69 -160 l0 -38 22 21 c27 25 26 25 118 -8 l75 -27 3 -112 3 -112 -48 4
c-26 3 -97 10 -158 15 -173 17 -175 17 -175 52 0 20 -12 44 -35 71 -19 22 -40
57 -45 77 -13 50 -30 211 -29 290 0 62 1 66 32 85 24 15 33 29 35 55 l4 35
-38 -48 c-20 -26 -47 -50 -60 -53 -13 -3 -63 -4 -111 -3 l-88 4 0 -140 c0
-120 -3 -150 -24 -212 -23 -71 -60 -123 -87 -123 -12 0 -14 83 -14 488 0 268
-3 605 -7 750 -5 230 -4 262 9 262 8 0 424 -49 923 -110z m-6777 75 c17 -36
15 -45 -7 -45 -15 0 -19 7 -18 35 1 41 9 45 25 10z m969 3 c-3 -8 -6 -5 -6 6
-1 11 2 17 5 13 3 -3 4 -12 1 -19z m-162 -43 c6 -2 -10 -4 -35 -4 -25 0 -51 3
-59 8 -13 8 69 5 94 -4z m165 0 c0 -17 -46 -20 -90 -7 -20 6 -15 8 30 13 30 3
56 6 58 7 1 1 2 -5 2 -13z m-365 -11 c99 -4 194 -8 210 -9 17 -2 58 -3 93 -4
102 -2 72 -21 -33 -21 -52 0 -95 -4 -95 -9 0 -6 10 -9 23 -9 12 1 55 1 95 0
65 -2 72 -4 72 -22 0 -18 -7 -20 -77 -20 -43 0 -85 -5 -93 -10 -10 -7 14 -10
78 -10 107 0 129 -19 25 -22 -38 0 -52 -3 -33 -5 79 -8 100 -14 100 -30 0 -13
-9 -15 -62 -9 -39 4 -59 3 -53 -3 9 -8 55 -18 103 -20 9 -1 12 -76 12 -342 0
-292 -2 -340 -14 -336 -8 3 -41 9 -73 12 -54 6 -59 5 -68 -17 -10 -22 -15 -23
-147 -28 -131 -5 -137 -6 -155 -30 -36 -47 -39 -73 -37 -250 2 -96 0 -191 -2
-210 l-5 -35 -92 -3 c-113 -5 -161 -8 -207 -16 l-35 -5 38 11 c46 14 43 34 -4
31 l-34 -2 32 11 32 11 -40 40 c-21 22 -39 46 -39 52 0 8 34 17 95 26 52 7 95
15 95 19 0 3 -5 11 -11 17 -5 5 -12 27 -14 47 -2 21 -5 40 -8 42 -2 2 -39 -9
-81 -26 -42 -17 -81 -28 -87 -24 -11 6 -13 928 -2 1011 5 40 7 42 42 46 36 4
36 4 -6 5 -38 2 -43 4 -39 25 3 20 9 22 79 25 44 2 77 7 77 13 0 6 -30 9 -77
8 -62 -2 -78 1 -78 12 0 11 20 13 108 11 73 -3 107 -1 107 7 0 7 -26 12 -67
12 -38 1 -75 3 -83 4 -8 1 -27 3 -42 4 -17 0 -27 6 -25 14 1 8 40 14 132 18
72 3 144 4 160 3 17 -2 111 -6 210 -10z m-515 -20 c0 -22 -2 -25 -15 -14 -12
10 -15 10 -15 -1 -1 -10 -5 -8 -15 5 -26 34 -24 12 2 -24 21 -29 24 -31 17
-10 -6 22 -5 23 8 12 14 -11 16 -101 17 -750 l1 -737 -26 33 c-55 70 -118 214
-78 182 7 -7 14 -16 14 -21 0 -5 14 -28 30 -51 45 -62 36 -32 -16 51 -25 40
-44 77 -42 82 2 6 19 -15 38 -45 19 -30 36 -53 38 -51 3 3 -14 34 -58 108 -34
58 -9 43 30 -18 19 -30 39 -55 43 -55 9 0 -23 56 -61 108 -20 26 -26 48 -29
113 -3 52 -2 79 5 75 14 -8 22 -45 11 -52 -5 -3 -6 -10 -3 -16 4 -6 10 -5 16
3 7 11 8 9 4 -5 -4 -11 7 -39 30 -75 l35 -56 -7 40 c-7 46 -27 93 -63 150 -23
37 -25 49 -26 172 -1 73 2 130 7 127 4 -3 8 -1 8 5 0 5 -4 13 -10 16 -5 3 -10
15 -10 26 0 12 4 17 11 13 8 -5 8 -1 0 14 -14 27 -14 35 2 29 17 -7 16 35 -2
56 -7 9 -10 25 -7 34 6 15 8 15 16 3 6 -8 10 -22 10 -31 0 -8 11 -26 25 -39
l26 -24 -17 39 c-9 22 -26 58 -37 80 -16 31 -21 59 -22 123 -1 45 0 82 1 82 2
0 17 -20 35 -45 18 -25 34 -43 37 -41 2 3 -15 31 -38 64 -24 33 -40 67 -38 78
2 14 12 3 37 -39 18 -32 35 -56 38 -54 2 3 -4 20 -14 37 -55 97 -62 116 -61
162 0 26 2 48 4 48 2 0 8 -10 15 -21 8 -16 8 -23 -1 -29 -14 -8 6 -53 47 -108
30 -40 41 -36 18 8 -9 18 -12 29 -6 26 6 -4 11 -3 11 3 0 12 -41 94 -50 101
-13 9 -32 52 -26 57 3 3 10 -5 15 -18 11 -27 50 -78 51 -66 0 4 -16 33 -35 63
-19 30 -36 60 -38 67 -1 7 15 14 38 18 73 11 75 11 75 -17z m-100 -584 c0 -5
-4 -10 -10 -10 -5 0 -10 5 -10 10 0 6 5 10 10 10 6 0 10 -4 10 -10z m610 -337
c0 -3 -8 -16 -17 -27 -15 -18 -14 -18 8 2 32 28 48 29 23 1 -18 -20 -18 -20
11 -14 17 4 36 14 42 23 13 15 83 24 83 10 0 -4 -8 -12 -17 -18 -15 -9 -13
-10 10 -5 17 3 27 1 27 -6 0 -7 9 -5 25 5 28 18 39 21 30 6 -3 -5 -2 -10 4
-10 5 0 13 4 16 10 3 5 16 15 27 21 18 10 20 9 15 -5 -6 -14 -3 -15 21 -4 16
8 69 13 132 13 l105 0 0 -29 0 -29 -312 -1 c-172 -1 -313 1 -313 3 0 7 64 60
73 61 4 0 7 -3 7 -7z m200 -8 c-7 -8 -18 -15 -24 -15 -6 0 -2 7 8 15 25 19 32
19 16 0z m343 -345 l2 -275 -287 -3 c-237 -2 -294 0 -324 13 l-35 15 3 255 c2
214 5 257 18 265 9 6 138 9 318 7 l303 -2 2 -275z m635 263 c11 -22 26 -331
17 -355 -4 -9 -21 -21 -38 -27 -49 -15 -553 -11 -575 5 -14 11 -17 35 -18 196
0 100 0 185 2 188 1 3 137 6 302 8 282 3 301 2 310 -15z m4957 -105 c4 -34 2
-59 -4 -62 -14 -9 -18 2 -26 79 -6 62 -5 68 8 55 8 -8 18 -40 22 -72z m-717
-104 c-6 -67 -34 -144 -59 -159 -20 -13 -22 5 -5 62 10 32 24 87 32 123 28
123 27 120 33 80 3 -19 3 -67 -1 -106z m492 67 c0 -11 -4 -23 -10 -26 -6 -4
-10 5 -10 19 0 14 5 26 10 26 6 0 10 -9 10 -19z m-430 -15 c0 -13 -20 -26 -41
-26 -5 0 -9 9 -9 20 0 15 7 20 25 20 15 0 25 -6 25 -14z m556 -11 c19 -14 19
-14 -2 -15 -12 0 -27 7 -34 15 -17 20 9 21 36 0z m-136 -35 c0 -5 -4 -10 -10
-10 -5 0 -10 5 -10 10 0 6 5 10 10 10 6 0 10 -4 10 -10z m247 -111 c1 -122 -9
-101 -21 45 -6 62 -4 77 6 74 10 -3 13 -35 15 -119z m-927 6 c0 -63 -1 -65
-22 -60 -13 2 -95 21 -183 40 -88 20 -161 37 -162 39 -4 3 290 43 335 45 l32
1 0 -65z m-5862 -46 c3 -58 6 -67 41 -104 20 -22 49 -56 64 -77 15 -20 34 -43
43 -52 14 -15 -1 -16 -171 -16 -102 0 -184 3 -182 8 3 4 44 76 92 160 48 84
92 151 99 149 6 -2 12 -31 14 -68z m3802 61 c0 -12 -8 -12 -35 0 -18 8 -17 9
8 9 15 1 27 -3 27 -9z m1826 -59 c550 -129 1092 -191 1679 -191 400 0 727 22
1076 74 l146 21 6 -305 c9 -384 9 -620 1 -620 -4 0 -186 -29 -405 -65 -219
-36 -402 -65 -407 -65 -12 0 -22 284 -23 638 -1 159 -5 282 -10 282 -5 0 -9
-22 -9 -49 0 -27 -3 -63 -7 -81 l-6 -33 -246 6 c-529 15 -1062 71 -1591 168
-223 41 -429 84 -433 90 -1 2 -1 44 1 93 l4 88 26 -6 c15 -3 104 -23 198 -45z
m-2783 22 c-7 -2 -19 -2 -25 0 -7 3 -2 5 12 5 14 0 19 -2 13 -5z m54 1 c-3 -3
-12 -4 -19 -1 -8 3 -5 6 6 6 11 1 17 -2 13 -5z m2296 -226 l39 -48 -234 0
-233 0 34 21 c44 27 33 36 -19 15 -37 -15 -44 -15 -70 -1 -17 9 -29 21 -27 28
1 7 -7 11 -21 9 -28 -4 -72 23 -72 43 0 12 17 15 86 15 64 0 85 3 81 13 -2 6
-14 11 -25 9 -23 -3 -31 13 -9 20 6 3 52 6 100 7 l88 2 -21 -38 c-32 -60 -23
-63 16 -4 20 29 49 60 65 70 16 9 32 26 35 38 5 19 15 11 77 -65 38 -48 88
-108 110 -134z m-1974 196 c-10 -3 -19 -13 -22 -23 -4 -17 -24 -18 -360 -17
-195 0 -359 4 -363 8 -4 4 -2 13 4 20 8 10 93 14 384 15 205 1 366 -1 357 -3z
m74 -1 c-7 -2 -19 -2 -25 0 -7 3 -2 5 12 5 14 0 19 -2 13 -5z m1572 -3 c4 -6
24 -10 47 -10 34 0 39 -2 28 -14 -10 -13 -110 -14 -718 -11 -611 3 -793 6
-823 13 -4 1 -9 9 -13 17 -5 14 78 15 734 15 459 -1 742 -5 745 -10z m-4835
-20 c0 -5 -2 -10 -4 -10 -3 0 -8 5 -11 10 -3 6 -1 10 4 10 6 0 11 -4 11 -10z
m3100 -42 c0 -3 -6 -8 -12 -10 -7 -3 -13 -17 -13 -32 -1 -24 2 -27 25 -22 24
5 25 5 3 -6 -24 -11 -31 -42 -13 -53 17 -11 11 -22 -20 -35 -36 -15 -100 -5
-100 15 0 8 -12 27 -26 42 -21 22 -54 83 -54 99 0 4 82 9 153 9 31 0 57 -3 57
-7z m60 3 c0 -5 -7 -12 -16 -15 -24 -9 -28 -7 -14 9 14 17 30 20 30 6z m308
-1 c12 0 21 -6 20 -12 -2 -7 5 -12 16 -11 13 1 15 -2 7 -10 -17 -17 -13 -27
11 -24 18 2 21 -4 23 -35 2 -33 -1 -39 -32 -53 -44 -21 -99 -13 -106 15 -3 14
-14 20 -31 20 -22 0 -26 4 -26 29 0 16 -6 36 -12 43 -41 43 -40 43 35 41 40
-1 82 -2 95 -3z m487 -10 c-3 -5 -19 -10 -36 -10 -16 0 -29 5 -29 10 0 6 16
10 36 10 21 0 33 -4 29 -10z m329 -7 c-10 -7 -21 -13 -26 -13 -4 0 -8 -7 -8
-15 0 -22 24 -18 66 10 20 14 41 25 47 25 5 0 -5 -10 -23 -22 -38 -26 -44 -37
-30 -58 8 -12 14 -12 47 5 57 29 62 30 21 1 -20 -14 -42 -26 -47 -26 -6 0 -11
-7 -11 -15 0 -29 -29 -27 -94 4 -51 24 -67 38 -81 68 -10 21 -19 40 -20 43 -2
3 37 6 87 6 76 0 87 -2 72 -13z m-520 -7 c-4 -10 14 -15 82 -21 54 -4 82 -10
73 -15 -7 -5 -10 -12 -6 -17 4 -4 17 -1 28 6 33 20 31 8 -2 -14 -22 -15 -28
-25 -24 -42 4 -18 0 -24 -21 -29 -35 -9 -132 41 -145 74 -14 36 -11 72 6 72 8
0 12 -6 9 -14z m651 -3 c-16 -8 -38 -22 -48 -31 -9 -8 -19 -13 -22 -10 -7 7
67 58 85 58 8 -1 2 -8 -15 -17z m-395 -8 c-7 -9 -15 -13 -19 -10 -3 3 1 10 9
15 21 14 24 12 10 -5z m-720 -25 c0 -11 -7 -20 -15 -20 -15 0 -21 21 -8 33 12
13 23 7 23 -13z m820 0 c0 -5 -5 -10 -11 -10 -5 0 -7 5 -4 10 3 6 8 10 11 10
2 0 4 -4 4 -10z m434 -31 c14 -17 26 -35 26 -40 0 -5 15 -18 33 -29 l32 -20
-550 1 c-494 0 -546 2 -510 15 22 8 47 24 56 36 l17 22 68 -30 c63 -26 79 -29
182 -29 112 0 114 1 137 28 13 15 29 27 35 27 5 0 10 5 10 10 0 21 70 -2 120
-39 29 -22 48 -27 113 -30 77 -3 109 7 106 33 -3 24 2 36 23 56 32 30 71 26
102 -11z m-534 12 c0 -5 -11 -11 -25 -13 -14 -3 -25 -3 -25 -1 0 3 34 19 48
22 1 1 2 -3 2 -8z m-754 -15 c11 -11 11 -16 1 -19 -16 -7 9 -25 45 -33 15 -4
25 -10 23 -14 -3 -5 3 -11 12 -13 10 -3 -29 -5 -87 -6 l-105 -1 42 21 c29 14
41 26 40 40 -1 10 -7 19 -15 19 -7 0 -10 5 -7 10 9 14 34 12 51 -4z m-403 -3
c-7 -2 -21 -2 -30 0 -10 3 -4 5 12 5 17 0 24 -2 18 -5z m3077 -97 c493 -83
965 -129 1475 -144 l230 -7 7 -360 c4 -198 5 -362 2 -364 -6 -7 -2217 358
-2225 367 -4 4 -9 142 -12 308 l-6 301 162 -34 c89 -18 254 -48 367 -67z
m-724 -42 c9 -21 14 -58 12 -92 l-3 -57 -2752 -3 -2753 -2 -6 25 c-7 29 2 86
21 133 l14 32 2726 0 2726 0 15 -36z m-4618 -751 c2 -9 -8 -13 -32 -13 -36 0
-56 14 -34 24 22 8 61 2 66 -11z m-137 -13 c-13 -11 -30 -20 -38 -20 -8 0 -11
-5 -7 -11 4 -7 -1 -10 -11 -7 -33 6 -26 23 17 40 58 21 67 21 39 -2z m-161 -3
c0 -11 -62 -47 -71 -41 -7 4 1 14 18 25 25 17 53 25 53 16z m210 -1 c0 -3 -4
-8 -10 -11 -5 -3 -10 -1 -10 4 0 6 5 11 10 11 6 0 10 -2 10 -4z m130 -34 c28
-22 21 -38 -20 -47 -17 -4 -30 -13 -30 -21 0 -11 9 -13 43 -8 23 4 45 11 48
16 3 5 13 6 22 3 8 -4 25 -1 37 5 14 7 25 8 29 3 3 -5 15 -15 26 -21 11 -6 14
-12 8 -12 -7 0 -13 -4 -13 -9 0 -5 10 -7 23 -4 21 4 22 4 3 -11 -11 -9 -37
-16 -57 -16 -40 0 -59 -14 -33 -24 9 -3 35 -6 59 -6 35 0 48 5 64 26 15 19 26
24 41 19 28 -9 142 6 116 15 -20 7 -20 7 0 12 11 3 40 -3 65 -13 l44 -18 -33
-7 c-34 -7 -33 -19 3 -27 11 -2 1 -2 -23 0 -25 3 -49 -1 -58 -8 -10 -8 -14 -8
-14 0 0 15 -56 14 -83 -1 -14 -8 -55 -11 -114 -9 -58 2 -93 -1 -93 -7 0 -6 -9
-8 -20 -5 -12 3 -29 -2 -41 -13 -21 -19 -21 -18 -8 11 7 17 16 34 21 40 13 15
9 35 -6 35 -8 0 -16 -6 -19 -12 -3 -7 -19 -21 -36 -31 -24 -14 -30 -15 -25 -3
3 8 17 17 30 20 14 4 22 10 20 15 -6 9 -86 -4 -121 -19 -35 -15 -96 -22 -108
-11 -15 11 -107 -53 -107 -75 0 -8 -7 -14 -15 -14 -8 0 -15 7 -15 16 0 13 -7
15 -30 11 -19 -4 -30 -2 -30 4 0 6 -7 9 -15 5 -22 -8 -18 2 6 15 15 8 19 8 15
0 -10 -16 -1 -14 36 9 24 15 34 16 40 7 6 -8 17 -2 37 22 16 18 34 30 40 27 6
-4 19 -2 28 3 14 8 15 10 3 11 -13 0 -13 2 0 9 17 12 33 4 24 -11 -4 -6 -1 -9
7 -6 8 3 13 15 12 27 -2 11 2 21 7 21 6 0 10 -7 10 -15 0 -20 19 -19 26 0 4 9
13 13 24 10 9 -3 24 3 35 15 18 19 18 20 -1 19 -29 -1 -128 -23 -141 -32 -7
-5 -18 -5 -24 -2 -5 4 -28 -12 -49 -35 -25 -27 -45 -40 -54 -37 -9 4 -22 0
-30 -8 -15 -15 -26 -10 -26 12 0 8 12 13 33 13 33 0 66 15 56 24 -10 10 -98
-11 -126 -30 -15 -10 -33 -17 -40 -16 -6 1 -23 -9 -38 -24 -20 -20 -29 -24
-38 -15 -6 6 -20 11 -30 11 -16 0 -17 3 -7 15 16 19 55 38 150 69 41 14 74 31
72 37 -2 7 8 8 27 4 31 -7 111 12 111 26 0 5 7 6 15 3 20 -8 67 4 60 16 -3 5
9 7 27 4 18 -3 53 -1 78 4 65 14 66 14 90 -6z m45 -10 c-7 -8 -35 7 -35 18 0
6 7 6 20 -2 10 -7 17 -14 15 -16z m1863 21 c-10 -2 -28 -2 -40 0 -13 2 -5 4
17 4 22 1 32 -1 23 -4z m-2223 -19 c13 -5 11 -9 -11 -20 -32 -17 -53 -8 -27
12 22 16 18 15 38 8z m-143 -12 c13 -5 15 -11 8 -22 -8 -11 -12 -12 -18 -3 -5
8 -13 9 -22 3 -8 -6 -31 -9 -50 -9 -19 1 -27 3 -17 6 10 3 30 11 45 19 30 15
30 15 54 6z m718 -46 c0 -2 -18 -6 -39 -8 -22 -2 -37 0 -35 4 5 8 74 11 74 4z
m-820 -30 c0 -11 -19 -15 -25 -6 -3 5 1 10 9 10 9 0 16 -2 16 -4z m1218 -3
c-10 -2 -26 -2 -35 0 -10 3 -2 5 17 5 19 0 27 -2 18 -5z m-98 -30 c-1 -23 -17
-32 -45 -24 -25 8 -26 9 -7 10 12 1 22 6 22 11 0 6 7 10 15 10 8 0 15 -3 15
-7z m214 -2 c3 -5 -1 -14 -8 -20 -10 -8 -16 -9 -21 -1 -3 5 -1 10 5 10 6 0 8
5 5 10 -3 6 -2 10 4 10 5 0 12 -4 15 -9z m53 -24 c-3 -8 -15 -17 -27 -20 l-22
-6 23 25 c23 25 35 25 26 1z m-984 -11 c6 -14 -21 -32 -31 -21 -3 3 0 5 6 5 6
0 9 7 6 15 -4 8 -2 15 4 15 5 0 12 -6 15 -14z m-361 -11 c0 -5 -5 -11 -11 -13
-6 -2 -11 4 -11 13 0 9 5 15 11 13 6 -2 11 -8 11 -13z m825 9 c-3 -3 -12 -4
-19 -1 -8 3 -5 6 6 6 11 1 17 -2 13 -5z m-1070 -33 c4 -15 17 -21 66 -26 34
-3 95 -15 135 -26 40 -10 85 -19 100 -19 15 0 36 -6 47 -14 11 -7 49 -16 85
-19 87 -7 171 -27 165 -38 -6 -9 13 -14 90 -24 28 -4 77 -10 110 -14 33 -4 67
-4 75 0 46 24 85 39 98 39 7 0 68 18 133 40 66 22 125 40 132 40 6 1 30 9 52
20 22 11 52 19 67 20 15 0 53 7 84 15 32 8 59 13 61 11 4 -3 -152 -62 -367
-139 -230 -82 -299 -97 -338 -75 -15 8 -63 21 -107 27 -44 7 -100 17 -125 22
-25 5 -85 15 -135 23 -82 14 -193 36 -410 84 -59 13 -81 21 -83 35 -2 11 5 21
20 26 34 14 39 13 45 -8z m673 10 c0 -5 -9 -12 -19 -16 -10 -3 -32 -18 -47
-33 -27 -26 -28 -26 -13 -2 9 13 29 32 45 42 36 20 34 20 34 9z m467 3 c-3 -3
-12 -4 -19 -1 -8 3 -5 6 6 6 11 1 17 -2 13 -5z m-341 -19 c-8 -8 -20 -15 -27
-15 -9 0 -8 4 1 15 7 8 19 15 27 15 12 0 12 -2 -1 -15z m-248 -12 c-6 -7 -16
-13 -23 -13 -7 0 -17 6 -23 13 -8 9 -3 12 23 12 26 0 31 -3 23 -12z m472 -5
c0 -6 -6 -5 -15 2 -8 7 -15 14 -15 16 0 2 7 1 15 -2 8 -4 15 -11 15 -16z
m-102 -2 c-13 -14 -28 -12 -28 5 0 5 9 9 20 9 17 0 19 -2 8 -14z m-218 -3 c0
-5 -9 -21 -20 -38 -11 -16 -20 -25 -20 -18 0 6 5 15 10 18 6 3 10 15 10 26 0
10 5 19 10 19 6 0 10 -3 10 -7z m135 -23 c-16 -4 -38 -11 -47 -15 -10 -4 -18
-4 -18 -1 0 10 42 25 70 24 23 0 22 -1 -5 -8z m636 -10 c-13 -11 -29 -20 -36
-20 -8 0 -64 -21 -127 -46 -215 -87 -352 -135 -372 -132 -20 3 -20 4 3 17 13
7 119 46 235 86 116 40 234 82 261 93 62 26 66 26 36 2z m-1441 -10 c254 -66
307 -84 158 -56 -75 15 -248 63 -257 71 -9 9 24 4 99 -15z m726 9 c3 -6 -1
-18 -10 -27 -15 -15 -16 -14 -16 11 0 27 13 36 26 16z m4359 -8 c-6 -4 -30
-14 -55 -20 -123 -34 -197 -51 -215 -50 -23 0 117 44 189 59 27 6 52 12 54 15
3 3 12 5 21 5 9 0 11 -3 6 -9z m-2345 -21 c-8 -5 -22 -10 -30 -10 -13 0 -13 1
0 10 8 5 22 10 30 10 13 0 13 -1 0 -10z m-2710 -21 c36 -11 142 -34 235 -50
185 -32 384 -77 346 -78 -31 -1 -301 44 -421 70 -133 29 -194 47 -216 64 -25
19 -21 18 56 -6z m2750 11 c-8 -5 -22 -10 -30 -10 -13 0 -13 1 0 10 8 5 22 10
30 10 13 0 13 -1 0 -10z m30 -10 c-8 -5 -19 -10 -25 -10 -5 0 -3 5 5 10 8 5
20 10 25 10 6 0 3 -5 -5 -10z m2188 -15 c-41 -23 -170 -52 -428 -96 -251 -43
-384 -57 -393 -43 -3 5 32 10 77 11 45 1 134 13 201 28 137 30 226 48 338 65
42 7 105 21 140 30 77 22 100 24 65 5z m-3342 -42 c-11 -11 -17 4 -9 23 7 18
8 18 11 1 2 -10 1 -21 -2 -24z m3131 21 c-3 -3 -12 -4 -19 -1 -8 3 -5 6 6 6
11 1 17 -2 13 -5z m-4222 -33 c159 -29 175 -33 175 -42 0 -5 -10 -7 -22 -5
-13 3 -48 8 -78 11 -59 7 -196 42 -220 56 -11 7 -8 8 10 4 14 -3 75 -14 135
-24z m4024 9 c-26 -15 -170 -48 -239 -54 -85 -8 -61 9 35 25 38 6 99 17 135
24 79 16 89 17 69 5z m-3746 -67 c-7 -2 -21 -2 -30 0 -10 3 -4 5 12 5 17 0 24
-2 18 -5z m2502 -3 c-8 -12 -1521 -13 -1580 -1 -23 5 315 9 773 10 540 1 811
-2 807 -9z m-2527 -13 c31 1 52 -3 52 -9 0 -12 -142 -4 -200 12 -26 7 -18 8
30 2 36 -3 89 -6 118 -5z m6498 -14 c16 -26 16 -27 0 -14 -19 16 -69 25 -61
10 10 -16 -1 -10 -20 11 -18 20 -17 20 22 20 33 0 44 -5 59 -27z m92 -68 c-3
-71 -19 -80 -148 -80 -100 0 -109 2 -133 25 -26 24 -36 63 -19 74 16 10 52 -6
52 -23 0 -10 7 -26 16 -37 15 -18 15 -17 10 18 -4 29 -2 36 10 31 8 -3 14 -12
14 -20 0 -22 20 -54 30 -48 5 3 5 18 0 35 -7 24 -5 32 9 40 25 13 31 4 31 -42
0 -21 5 -38 10 -38 6 0 10 19 10 43 0 42 1 43 43 54 68 16 67 17 65 -32z
m-4819 -47 c20 -102 31 -171 28 -175 -3 -2 -928 -4 -2548 -3 l-297 0 -5 33
c-5 37 7 129 24 170 l11 27 1389 0 1388 0 10 -52z m2712 20 c8 -19 14 -68 14
-113 l0 -80 -1315 0 -1314 0 -18 90 c-10 50 -20 100 -23 113 l-5 22 1324 0
1324 0 13 -32z m1996 -102 c3 -3 -8 -6 -25 -6 -17 0 -33 4 -36 9 -6 10 51 8
61 -3z m-1994 -618 c4 -277 7 -659 7 -850 l0 -348 -1303 0 -1304 0 -6 203 c-4
111 -7 491 -7 844 l0 643 1168 3 c642 1 1228 3 1303 5 l136 2 6 -502z m-2679
210 c3 -156 8 -536 11 -845 l6 -563 -888 -1 c-488 -1 -1138 -1 -1443 -1 l-555
1 0 200 c0 111 1 489 3 841 l2 640 263 3 c144 1 787 3 1428 5 l1167 2 6 -282z
m5106 -95 c0 -10 -5 -25 -10 -33 -7 -11 -10 -7 -10 18 0 17 5 32 10 32 6 0 10
-8 10 -17z m-40 -40 c0 -16 -11 -41 -24 -56 -24 -27 -24 -32 -18 -130 4 -56 7
-124 7 -152 l0 -50 -351 0 c-317 0 -353 2 -377 18 -15 10 -27 24 -27 32 0 20
3 19 46 -10 71 -48 89 -26 19 24 -44 31 -72 67 -61 78 2 3 15 -4 27 -16 13
-12 31 -21 42 -21 14 0 8 10 -27 43 -25 23 -48 55 -52 70 l-6 28 50 -30 c68
-40 76 -23 12 24 -27 20 -50 38 -50 40 0 2 -3 12 -7 22 -5 14 0 13 28 -9 20
-14 53 -29 75 -33 34 -5 36 -4 20 7 -10 7 -41 29 -69 48 -48 34 -70 60 -49 60
6 0 17 -6 25 -14 44 -44 221 -81 351 -73 86 5 116 10 247 43 31 8 64 12 73 8
11 -4 16 -1 16 12 0 15 38 46 78 63 1 1 2 -11 2 -26z m45 -43 c9 -14 -4 -52
-16 -45 -12 8 -12 55 0 55 6 0 13 -5 16 -10z m-2094 -46 c7 -22 7 -22 -42 -6
-32 10 -45 19 -37 24 24 15 70 4 79 -18z m209 10 c63 3 147 8 185 11 l70 5
-35 -17 c-29 -15 -63 -18 -200 -18 -91 0 -177 3 -192 8 -45 12 -32 26 15 15
23 -6 93 -7 157 -4z m1837 -32 c-9 -11 -12 -10 -20 3 -5 10 -4 21 4 31 12 14
14 14 20 -3 3 -10 2 -24 -4 -31z m-2007 -42 c417 -137 869 -227 1320 -261 233
-17 748 -7 975 21 146 17 441 66 576 96 l26 6 7 -642 c5 -353 4 -646 -1 -650
-9 -8 -813 -193 -818 -188 -2 2 -5 292 -7 645 -1 354 -6 643 -9 643 -9 0 -19
-83 -19 -161 l0 -69 -87 0 c-227 1 -628 33 -928 76 -372 52 -881 167 -1182
265 l-63 21 0 135 c0 104 3 133 13 129 6 -2 95 -32 197 -66z m2064 -52 c3 -50
6 -111 6 -135 0 -42 -1 -43 -34 -43 l-33 0 -6 68 c-12 117 -9 172 8 172 11 0
15 -12 15 -49 0 -77 12 -171 21 -165 5 3 6 59 2 125 -4 77 -3 119 4 119 5 0
13 -41 17 -92z m-1727 52 c2 -14 -4 -33 -11 -43 -12 -16 -20 -17 -48 -8 -18 6
-75 22 -126 37 -51 15 -88 30 -83 33 5 3 67 6 138 6 l128 0 2 -25z m128 -24
c11 -3 -2 -4 -28 -2 -27 2 -53 8 -59 14 -10 10 26 5 87 -12z m295 19 c0 -2
-10 -10 -22 -16 -26 -14 -236 -20 -244 -7 -3 4 3 8 13 8 110 2 215 9 220 14 7
7 33 8 33 1z m409 -20 c6 -3 11 -14 11 -24 0 -19 -40 -25 -210 -36 -46 -3 -51
-2 -27 6 29 12 36 36 12 45 -8 4 -13 9 -11 13 6 9 211 6 225 -4z m-289 -5
c-19 -13 -30 -13 -30 0 0 6 10 10 23 10 18 0 19 -2 7 -10z m-70 -25 c-6 -8 -9
-19 -5 -25 5 -8 -5 -10 -31 -8 -49 4 -61 34 -17 41 61 9 66 8 53 -8z m-253
-12 l113 -6 0 -33 c0 -32 -1 -33 -32 -28 -103 17 -265 58 -278 71 -13 14 -10
15 34 9 27 -3 101 -9 163 -13z m593 -42 c0 -22 -141 -39 -255 -31 l-80 5 95 8
c52 5 122 11 155 13 32 3 61 7 64 9 8 8 21 5 21 -4z m-371 -10 c40 -1 35 -13
-7 -17 -16 -2 -37 3 -48 11 -19 13 -19 14 1 10 11 -2 35 -4 54 -4z m399 -60
l2 -39 -48 5 c-26 3 -99 14 -162 24 l-115 18 85 -3 c50 -2 103 2 130 10 25 7
59 15 75 17 17 2 30 5 31 6 0 0 1 -16 2 -38z m-1188 -101 c562 -162 1127 -258
1710 -290 102 -5 222 -10 268 -10 l82 0 1 -122 c1 -68 4 -300 8 -516 3 -215 5
-392 4 -392 -13 0 -2206 511 -2213 515 -6 4 -10 125 -11 313 0 169 -4 362 -7
430 -6 105 -5 121 8 117 8 -4 75 -24 150 -45z"/>
<path d="M7728 9013 c7 -3 16 -2 19 1 4 3 -2 6 -13 5 -11 0 -14 -3 -6 -6z"/>
<path d="M8100 8950 c-6 -10 -10 -28 -10 -39 0 -19 6 -21 58 -21 77 -1 158
-29 155 -54 0 -10 5 -32 13 -50 13 -30 13 -28 13 44 1 41 -3 80 -7 86 -4 7
-36 15 -72 19 -36 4 -82 13 -103 20 -34 12 -38 11 -47 -5z"/>
<path d="M9013 8913 c26 -2 67 -2 90 0 23 2 2 3 -48 3 -49 0 -68 -1 -42 -3z"/>
<path d="M9020 8870 c0 -5 5 -10 11 -10 5 0 7 5 4 10 -3 6 -8 10 -11 10 -2 0
-4 -4 -4 -10z"/>
<path d="M8078 8863 c12 -2 32 -2 45 0 12 2 2 4 -23 4 -25 0 -35 -2 -22 -4z"/>
<path d="M8208 8853 c7 -3 16 -2 19 1 4 3 -2 6 -13 5 -11 0 -14 -3 -6 -6z"/>
<path d="M8618 8753 c7 -3 16 -2 19 1 4 3 -2 6 -13 5 -11 0 -14 -3 -6 -6z"/>
<path d="M8788 8753 c6 -2 18 -2 25 0 6 3 1 5 -13 5 -14 0 -19 -2 -12 -5z"/>
<path d="M8875 8697 c-23 -14 -262 -17 -308 -4 -19 5 -27 4 -22 -2 3 -6 1 -19
-5 -30 -13 -24 -4 -30 52 -35 34 -3 37 -2 13 4 -25 6 -21 8 25 8 50 1 53 0 36
-13 -18 -14 -15 -15 35 -15 69 0 165 17 201 36 25 13 26 17 16 39 -13 28 -15
29 -43 12z"/>
<path d="M3103 9173 c20 -2 54 -2 75 0 20 2 3 4 -38 4 -41 0 -58 -2 -37 -4z"/>
<path d="M2985 9130 c-3 -5 -1 -10 4 -10 6 0 11 5 11 10 0 6 -2 10 -4 10 -3 0
-8 -4 -11 -10z"/>
<path d="M3043 9119 c-18 -12 -33 -25 -33 -30 0 -16 15 -9 43 21 34 35 33 36
-10 9z"/>
<path d="M3183 9132 c-16 -5 -20 -11 -14 -21 7 -11 13 -10 35 4 39 25 31 32
-21 17z"/>
<path d="M3233 9096 c-46 -45 -41 -52 12 -16 25 17 45 35 45 40 0 18 -25 7
-57 -24z"/>
<path d="M3555 9000 c-4 -6 6 -10 22 -10 22 0 25 2 13 10 -19 12 -27 12 -35 0z"/>
<path d="M2840 8990 c0 -6 7 -10 15 -10 8 0 15 2 15 4 0 2 -7 6 -15 10 -8 3
-15 1 -15 -4z"/>
<path d="M3392 8989 c-80 -10 -77 -23 3 -15 39 3 80 6 93 6 12 0 22 4 22 10 0
10 -25 10 -118 -1z"/>
<path d="M2870 8971 c-22 -6 -23 -8 -7 -14 11 -4 27 -1 40 8 23 16 11 18 -33
6z"/>
<path d="M3006 8968 c5 -8 -4 -9 -34 -4 -26 4 -42 2 -42 -4 0 -5 8 -10 18 -10
9 0 35 -3 57 -6 30 -4 36 -3 25 5 -13 9 -13 11 3 11 9 0 17 5 17 10 0 6 -12
10 -26 10 -16 0 -23 -4 -18 -12z"/>
<path d="M3233 8973 c9 -2 23 -2 30 0 6 3 -1 5 -18 5 -16 0 -22 -2 -12 -5z"/>
<path d="M2883 8900 c-13 -5 -23 -12 -23 -15 0 -3 91 -5 203 -5 135 0 197 4
187 10 -8 5 -62 9 -120 9 -58 0 -132 2 -165 5 -33 3 -70 1 -82 -4z"/>
<path d="M2582 8830 c0 -19 2 -27 5 -17 2 9 2 25 0 35 -3 9 -5 1 -5 -18z"/>
<path d="M2600 8582 c0 -30 12 -62 21 -56 5 3 21 -4 37 -16 15 -11 46 -23 67
-26 38 -5 39 -4 21 10 -11 9 -28 16 -38 16 -10 0 -39 20 -63 45 -32 31 -45 39
-45 27z"/>
<path d="M3062 8592 c-18 -2 -30 -8 -27 -13 8 -12 62 -12 70 0 8 13 -5 17 -43
13z"/>
<path d="M4253 8558 c-18 -11 -33 -24 -33 -29 0 -11 56 19 72 39 15 17 -2 13
-39 -10z"/>
<path d="M4642 8540 c0 -19 2 -27 5 -17 2 9 2 25 0 35 -3 9 -5 1 -5 -18z"/>
<path d="M3703 8553 c-50 -5 -58 -23 -10 -23 49 0 107 12 107 21 0 9 -15 9
-97 2z"/>
<path d="M4580 8365 c0 -17 -16 -20 -25 -5 -3 6 -16 10 -28 10 -16 0 -18 -3
-9 -9 20 -12 10 -46 -13 -46 -15 0 -20 7 -20 28 1 34 -19 30 -23 -5 -2 -19 2
-28 17 -33 28 -8 61 3 61 21 0 18 14 18 30 -1 20 -25 31 -17 28 20 -2 34 -18
51 -18 20z"/>
<path d="M3982 8309 c-15 -79 -15 -79 -2 -79 6 0 10 7 10 16 0 11 5 14 16 10
13 -5 14 -2 9 11 -5 10 -11 38 -14 63 l-7 45 -12 -66z"/>
<path d="M4281 8361 c-9 -6 -11 -20 -7 -47 10 -56 26 -78 26 -36 0 17 -4 32
-10 32 -21 0 -9 30 15 36 14 3 25 10 25 15 0 11 -31 11 -49 0z"/>
<path d="M4364 8315 c-3 -8 -4 -20 -1 -27 3 -8 6 -6 6 5 1 14 6 17 23 11 20
-6 21 -5 9 10 -17 20 -30 21 -37 1z"/>
<path d="M3923 8303 c-19 -7 -16 -21 5 -19 13 1 16 -5 14 -26 -2 -16 1 -28 6
-28 15 0 20 46 7 64 -13 17 -13 17 -32 9z"/>
<path d="M3395 8280 c3 -5 11 -10 16 -10 6 0 7 5 4 10 -3 6 -11 10 -16 10 -6
0 -7 -4 -4 -10z"/>
<path d="M3902 8250 c0 -14 2 -19 5 -12 2 6 2 18 0 25 -3 6 -5 1 -5 -13z"/>
<path d="M6120 8236 c0 -2 11 -11 25 -20 14 -9 25 -13 25 -8 0 5 -11 14 -25
20 -14 6 -25 10 -25 8z"/>
<path d="M4550 8221 c0 -8 158 -11 513 -11 281 0 506 4 499 8 -20 13 -1012 15
-1012 3z"/>
<path d="M5595 8220 c-4 -6 5 -10 20 -10 15 0 24 4 20 10 -3 6 -12 10 -20 10
-8 0 -17 -4 -20 -10z"/>
<path d="M5735 8220 c-4 -7 52 -10 159 -10 104 0 166 4 166 10 0 6 -60 10
-159 10 -96 0 -162 -4 -166 -10z"/>
<path d="M3893 8160 c3 -44 28 -51 51 -15 22 34 11 47 -11 15 l-17 -24 -13 30
-13 29 3 -35z"/>
<path d="M6207 8125 c7 -49 13 -58 13 -19 0 16 -5 36 -10 44 -6 10 -7 2 -3
-25z"/>
<path d="M4170 8101 c0 -6 4 -13 10 -16 6 -3 7 1 4 9 -7 18 -14 21 -14 7z"/>
<path d="M6177 8086 c-6 -16 2 -28 14 -20 12 7 11 34 0 34 -5 0 -11 -6 -14
-14z"/>
<path d="M3425 8079 c-4 -6 -5 -12 -2 -15 7 -7 37 7 37 17 0 13 -27 11 -35 -2z"/>
<path d="M4098 8083 c7 -3 16 -2 19 1 4 3 -2 6 -13 5 -11 0 -14 -3 -6 -6z"/>
<path d="M4060 8016 c0 -2 7 -6 15 -10 8 -3 15 -1 15 4 0 6 -7 10 -15 10 -8 0
-15 -2 -15 -4z"/>
<path d="M3340 7955 c0 -11 7 -15 23 -13 12 2 22 8 22 13 0 6 -10 11 -22 13
-16 2 -23 -2 -23 -13z"/>
<path d="M4226 7961 c-14 -5 -16 -10 -8 -15 15 -9 52 2 52 15 0 11 -17 11 -44
0z"/>
<path d="M4190 7920 c0 -5 7 -7 15 -4 8 4 15 8 15 10 0 2 -7 4 -15 4 -8 0 -15
-4 -15 -10z"/>
<path d="M4012 7864 c-9 -10 -10 -19 -3 -32 9 -15 10 -14 11 7 0 19 3 21 14
12 8 -7 17 -8 19 -3 3 4 -2 13 -11 19 -13 7 -21 7 -30 -3z"/>
<path d="M4220 7870 c0 -5 5 -10 10 -10 6 0 10 5 10 10 0 6 -4 10 -10 10 -5 0
-10 -4 -10 -10z"/>
<path d="M4270 7850 c0 -5 5 -10 10 -10 6 0 10 5 10 10 0 6 -4 10 -10 10 -5 0
-10 -4 -10 -10z"/>
<path d="M3928 7828 c9 -9 15 -9 24 0 9 9 7 12 -12 12 -19 0 -21 -3 -12 -12z"/>
<path d="M6011 7829 c-13 -5 -22 -11 -20 -13 8 -7 69 6 69 15 0 11 -18 11 -49
-2z"/>
<path d="M4015 7790 c3 -5 13 -10 21 -10 8 0 12 5 9 10 -3 6 -13 10 -21 10 -8
0 -12 -4 -9 -10z"/>
<path d="M3980 7750 c0 -11 38 -32 50 -28 5 2 -4 11 -20 20 -17 9 -30 13 -30
8z"/>
<path d="M3905 7739 c-4 -6 -5 -12 -2 -15 2 -3 7 2 10 11 7 17 1 20 -8 4z"/>
<path d="M4070 7728 c-39 -16 -8 -20 36 -4 31 12 34 15 14 15 -14 0 -36 -5
-50 -11z"/>
<path d="M4356 7707 c3 -10 9 -15 12 -12 3 3 0 11 -7 18 -10 9 -11 8 -5 -6z"/>
<path d="M4285 7694 c-20 -15 -20 -16 4 -12 14 2 26 9 29 16 5 16 -9 15 -33
-4z"/>
<path d="M3940 7680 c0 -5 5 -10 10 -10 6 0 10 5 10 10 0 6 -4 10 -10 10 -5 0
-10 -4 -10 -10z"/>
<path d="M3982 7670 c0 -14 2 -19 5 -12 2 6 2 18 0 25 -3 6 -5 1 -5 -13z"/>
<path d="M4058 7633 c6 -2 18 -2 25 0 6 3 1 5 -13 5 -14 0 -19 -2 -12 -5z"/>
<path d="M4003 7597 c119 -6 236 -6 320 0 119 9 101 10 -188 10 l-320 0 188
-10z"/>
<path d="M3030 8456 c0 -2 7 -7 16 -10 8 -3 12 -2 9 4 -6 10 -25 14 -25 6z"/>
<path d="M1640 8336 c0 -9 5 -16 10 -16 6 0 10 4 10 9 0 6 -4 13 -10 16 -5 3
-10 -1 -10 -9z"/>
<path d="M2570 8333 c0 -15 31 -46 38 -38 3 3 -4 15 -16 28 -12 12 -22 16 -22
10z"/>
<path d="M1779 8313 c-13 -15 -12 -15 9 -4 23 12 28 21 13 21 -5 0 -15 -7 -22
-17z"/>
<path d="M1685 8270 c-3 -5 -1 -10 4 -10 6 0 11 5 11 10 0 6 -2 10 -4 10 -3 0
-8 -4 -11 -10z"/>
<path d="M2064 8221 c18 -7 66 -3 66 5 0 2 -19 4 -42 3 -31 0 -37 -3 -24 -8z"/>
<path d="M2150 8220 c0 -5 7 -10 15 -10 8 0 15 5 15 10 0 6 -7 10 -15 10 -8 0
-15 -4 -15 -10z"/>
<path d="M3145 8059 c-11 -17 1 -21 15 -4 8 9 8 15 2 15 -6 0 -14 -5 -17 -11z"/>
<path d="M4565 8015 c2 -22 11 -60 19 -85 l15 -45 -6 43 c-6 44 4 54 27 27 8
-10 11 -30 7 -58 -7 -47 5 -79 23 -61 15 15 15 58 -1 132 -13 65 -29 78 -51
42 -12 -19 -13 -19 -26 12 l-12 33 5 -40z"/>
<path d="M4626 7764 c6 -23 64 -85 64 -68 -1 5 -16 27 -35 49 -25 29 -33 34
-29 19z"/>
<path d="M2111 8016 c-14 -17 -11 -127 4 -124 5 2 9 9 7 16 -5 20 25 14 40
-10 9 -14 20 -19 31 -15 21 8 22 27 2 27 -14 0 -26 30 -23 60 4 45 -2 60 -26
60 -13 0 -29 -6 -35 -14z m39 -37 c0 -24 -23 -21 -28 4 -2 10 3 17 12 17 10 0
16 -9 16 -21z"/>
<path d="M2400 7950 c0 -11 4 -20 9 -20 5 0 7 9 4 20 -3 11 -7 20 -9 20 -2 0
-4 -9 -4 -20z"/>
<path d="M2480 7936 c0 -26 30 -39 68 -29 34 8 26 22 -10 19 -18 -2 -25 -1
-15 1 30 8 20 33 -13 33 -25 0 -30 -4 -30 -24z"/>
<path d="M2236 7911 c-4 -5 -2 -12 3 -15 5 -4 12 -2 15 3 4 5 2 12 -3 15 -5 4
-12 2 -15 -3z"/>
<path d="M1970 7831 c0 -20 23 -71 32 -71 5 0 12 9 15 21 l6 20 22 -21 c22
-21 24 -21 34 -3 6 10 11 12 11 6 0 -18 20 -16 20 2 0 18 14 19 40 3 17 -11
22 -10 29 1 5 8 16 11 28 7 11 -4 31 -2 44 3 26 11 23 12 -36 16 -22 1 -43 -3
-47 -9 -6 -8 -11 -7 -17 3 -7 11 -17 12 -52 3 -33 -8 -45 -8 -51 1 -6 9 -12 9
-28 0 -27 -17 -30 -16 -30 7 0 11 -4 20 -10 20 -5 0 -10 -4 -10 -9z"/>
<path d="M1876 7811 c-4 -7 -14 -10 -22 -7 -17 7 -25 -6 -14 -23 5 -9 14 -11
26 -6 22 10 31 11 62 13 14 1 20 6 16 13 -3 6 -17 8 -29 5 -14 -4 -25 -1 -27
6 -3 9 -6 9 -12 -1z"/>
<path d="M2297 7713 c-11 -11 -8 -85 3 -78 6 4 8 11 4 16 -3 5 1 23 10 39 11
23 11 30 2 30 -7 0 -16 -3 -19 -7z"/>
<path d="M2383 7702 c10 -10 17 -31 17 -45 0 -16 6 -27 14 -27 9 0 12 9 8 28
-5 29 -29 62 -45 62 -6 0 -3 -8 6 -18z"/>
<path d="M6070 8040 l-25 -8 25 -1 c14 0 32 4 40 9 13 9 13 10 0 9 -8 -1 -26
-5 -40 -9z"/>
<path d="M4750 8057 c0 -16 103 -47 152 -46 24 0 14 5 -41 20 -41 11 -82 24
-93 30 -13 7 -18 6 -18 -4z"/>
<path d="M5930 7961 c0 -5 -10 -13 -22 -17 -13 -3 -31 -15 -41 -25 -10 -11
-31 -19 -49 -19 -25 0 -28 -2 -19 -14 10 -12 17 -12 44 -1 17 7 33 18 35 24 2
6 14 11 27 11 13 0 29 10 39 25 14 22 15 25 1 25 -8 0 -15 -4 -15 -9z"/>
<path d="M5770 7870 c0 -5 5 -10 11 -10 5 0 7 5 4 10 -3 6 -8 10 -11 10 -2 0
-4 -4 -4 -10z"/>
<path d="M5575 7820 c3 -5 11 -10 16 -10 6 0 7 5 4 10 -3 6 -11 10 -16 10 -6
0 -7 -4 -4 -10z"/>
<path d="M5685 7820 c3 -5 13 -10 21 -10 8 0 14 5 14 10 0 6 -9 10 -21 10 -11
0 -17 -4 -14 -10z"/>
<path d="M5630 7800 c-13 -8 -12 -10 3 -10 9 0 17 5 17 10 0 12 -1 12 -20 0z"/>
<path d="M7752 7687 c-8 -9 -12 -31 -10 -49 l4 -33 10 35 10 35 69 3 c38 2 73
-2 79 -8 7 -7 -2 -10 -31 -10 -53 0 -93 -15 -93 -35 0 -8 -11 -17 -23 -21 -22
-5 -24 -10 -20 -57 6 -69 11 -82 12 -29 1 41 2 42 34 42 41 0 55 -9 61 -40 2
-14 9 -36 14 -50 10 -22 11 -19 11 25 1 43 5 52 26 61 28 14 35 9 36 -25 1
-14 5 -3 10 24 5 31 4 51 -1 53 -6 2 -10 19 -10 37 0 39 -8 43 -104 52 -58 4
-74 3 -84 -10z"/>
<path d="M7742 7450 c0 -14 2 -19 5 -12 2 6 2 18 0 25 -3 6 -5 1 -5 -13z"/>
<path d="M7951 7454 c0 -11 3 -14 6 -6 3 7 2 16 -1 19 -3 4 -6 -2 -5 -13z"/>
<path d="M5010 7856 c0 -9 7 -16 15 -16 8 0 15 -9 15 -19 0 -21 17 -37 28 -26
3 3 0 10 -8 15 -16 10 -6 25 17 25 9 0 18 6 20 12 3 8 -7 12 -30 11 -18 -1
-39 2 -45 6 -7 4 -12 1 -12 -8z"/>
<path d="M5107 7843 c-9 -9 -9 -23 1 -22 24 4 40 -3 45 -21 3 -11 12 -20 21
-20 19 0 21 16 4 23 -9 3 -7 10 7 21 20 17 20 17 -2 11 -12 -3 -24 -1 -28 5
-7 11 -38 14 -48 3z"/>
<path d="M4936 7741 c-11 -17 43 -45 69 -35 24 10 17 25 -9 18 -14 -3 -29 0
-39 10 -9 9 -18 12 -21 7z"/>
<path d="M1628 6843 c12 -2 30 -2 40 0 9 3 -1 5 -23 4 -22 0 -30 -2 -17 -4z"/>
<path d="M1773 6843 c37 -2 97 -2 135 0 37 2 6 3 -68 3 -74 0 -105 -1 -67 -3z"/>
<path d="M2028 6843 c17 -2 47 -2 65 0 17 2 3 4 -33 4 -36 0 -50 -2 -32 -4z"/>
<path d="M2158 6843 c12 -2 30 -2 40 0 9 3 -1 5 -23 4 -22 0 -30 -2 -17 -4z"/>
<path d="M2288 6833 c6 -2 18 -2 25 0 6 3 1 5 -13 5 -14 0 -19 -2 -12 -5z"/>
<path d="M4471 5591 c-7 -5 -9 -11 -4 -14 9 -6 262 -7 1213 -7 497 0 662 10
409 23 -181 10 -1602 8 -1618 -2z"/>
<path d="M4150 5580 c0 -6 35 -10 85 -10 50 0 85 4 85 10 0 6 -35 10 -85 10
-50 0 -85 -4 -85 -10z"/>
<path d="M4358 5583 c7 -3 16 -2 19 1 4 3 -2 6 -13 5 -11 0 -14 -3 -6 -6z"/>
<path d="M4006 5558 c-10 -39 -7 -44 9 -14 17 33 18 36 6 36 -5 0 -11 -10 -15
-22z"/>
<path d="M6260 5576 c0 -2 9 -6 20 -9 11 -3 18 -1 14 4 -5 9 -34 13 -34 5z"/>
<path d="M4885 5550 c-125 -5 -142 -6 -75 -9 47 -2 129 -2 184 -1 66 1 96 -1
92 -8 -4 -7 -62 -11 -148 -11 -78 -1 -144 -4 -147 -7 -17 -17 45 -24 217 -24
164 0 192 2 192 15 0 14 -34 21 -83 15 -15 -1 -17 3 -12 19 6 19 3 21 -27 19
-18 -1 -105 -5 -193 -8z"/>
<path d="M4108 5543 c-23 -4 -27 -10 -30 -40 -2 -20 -9 -38 -16 -41 -9 -3 -10
3 -2 23 12 32 12 35 1 35 -5 0 -16 -17 -24 -39 -19 -45 -47 -62 -47 -28 0 16
-6 9 -21 -23 -11 -24 -24 -47 -28 -50 -4 -3 -11 -39 -14 -80 -4 -41 -9 -91
-13 -110 -10 -51 5 -30 20 27 16 62 37 67 61 13 35 -77 62 -74 30 4 -21 49
-10 45 16 -6 12 -24 24 -38 26 -31 2 7 0 21 -6 32 -13 24 -14 41 -3 41 5 0 15
-18 22 -40 7 -22 19 -40 27 -40 17 0 17 21 -2 46 -17 23 -19 34 -4 34 5 0 19
-20 30 -45 17 -39 23 -45 42 -39 12 4 23 11 25 15 6 14 32 -18 32 -39 0 -20
29 -52 48 -52 7 0 12 5 12 10 0 6 -4 10 -9 10 -6 0 -13 21 -16 48 -3 26 -8 57
-10 68 -4 20 -1 21 46 20 l51 -1 4 -54 c2 -29 7 -57 10 -62 11 -19 24 -8 24
20 0 33 16 49 33 32 6 -6 34 -10 62 -9 l50 1 -55 7 c-30 4 -49 7 -42 8 7 1 10
7 6 13 -4 8 -9 7 -15 -2 -7 -11 -9 -9 -10 6 0 11 -3 14 -6 8 -9 -25 -23 -13
-23 21 0 32 -1 33 -49 39 -27 3 -89 3 -139 0 -111 -7 -137 -1 -157 37 -8 16
-15 31 -15 34 0 3 495 5 1101 5 1017 -1 1104 -2 1141 -18 39 -16 40 -18 23
-35 -14 -14 -34 -17 -109 -16 -283 4 -888 -1 -882 -7 3 -4 158 -9 344 -11 185
-2 339 -6 341 -8 3 -2 7 -32 9 -67 4 -69 18 -87 64 -87 19 0 28 5 28 16 0 9
-6 14 -12 11 -7 -2 -21 0 -30 4 -13 7 -16 22 -16 73 1 60 3 64 24 62 22 -1 43
-29 58 -79 3 -10 11 -15 16 -12 6 4 8 15 5 26 -4 10 -4 28 0 39 6 17 17 20
116 22 64 2 109 7 109 13 1 6 -8 11 -20 13 -16 3 -19 8 -14 28 4 17 1 26 -10
30 -9 3 -16 16 -16 28 0 11 -10 49 -22 84 l-22 62 -135 -1 c-146 -1 -237 -15
-123 -19 34 -1 77 -3 96 -4 l35 -1 -22 -25 c-41 -48 -77 -81 -77 -71 0 5 5 13
10 16 26 16 3 25 -64 25 -66 0 -77 3 -91 23 -12 15 -19 18 -22 9 -4 -9 -12 -8
-34 5 -28 17 -31 17 -60 1 -16 -10 -27 -14 -24 -8 3 5 1 11 -4 15 -11 6 -85
-63 -93 -86 -3 -10 -11 -6 -29 12 -19 21 -32 26 -59 23 -35 -3 -35 -3 -5 5 37
11 28 13 -55 18 -36 2 -84 6 -108 9 -30 4 -49 2 -66 -9 -15 -10 -52 -17 -97
-19 -69 -3 -74 -4 -71 -25 4 -31 -36 -42 -57 -15 -46 59 -132 78 -197 43 -28
-15 -48 -18 -90 -14 -51 5 -54 4 -63 -21 -15 -38 -45 -33 -94 18 -35 37 -40
46 -25 49 22 6 24 27 3 27 -8 0 -15 5 -15 10 0 6 -38 10 -94 10 -53 0 -98 -4
-101 -10 -3 -5 -11 -10 -16 -10 -6 0 -7 5 -4 10 7 12 -40 12 -139 1 -52 -6
-69 -4 -73 6 -5 13 -29 14 -85 6z m32 -23 c0 -5 -7 -10 -16 -10 -8 0 -12 5 -9
10 3 6 10 10 16 10 5 0 9 -4 9 -10z m250 -10 c9 -16 21 -20 61 -20 41 0 48 -2
37 -13 -24 -23 -68 -19 -109 11 -37 28 -41 42 -13 42 7 0 18 -9 24 -20z m1815
0 c3 -5 -1 -10 -10 -10 -9 0 -32 -16 -51 -36 -48 -48 -53 -38 -7 14 37 42 56
51 68 32z m45 0 c0 -5 -4 -10 -10 -10 -5 0 -10 5 -10 10 0 6 5 10 10 10 6 0
10 -4 10 -10z m-1976 -15 c3 -8 17 -20 31 -27 14 -6 25 -15 25 -19 0 -4 -19 3
-42 16 -31 18 -52 23 -75 19 -17 -3 -38 -2 -45 3 -12 7 -3 9 88 21 7 1 14 -5
18 -13z m93 -32 c-6 -5 -67 30 -67 39 0 4 16 -2 35 -14 20 -11 34 -22 32 -25z
m1486 -29 l36 -40 -37 2 c-20 1 -62 3 -92 4 l-55 1 50 44 c27 25 52 41 56 37
3 -4 22 -25 42 -48z m-1653 -3 c25 -22 30 -30 18 -31 -19 0 -88 56 -88 71 0
13 27 -2 70 -40z m405 14 c32 -29 37 -38 25 -45 -20 -13 -127 -9 -146 5 -13 9
-11 15 15 43 17 18 39 32 49 32 9 0 35 -16 57 -35z m1280 5 c10 -11 16 -20 13
-20 -3 0 -13 9 -23 20 -10 11 -16 20 -13 20 3 0 13 -9 23 -20z m365 7 c0 -27
-40 -57 -75 -57 -45 0 -46 23 -2 50 37 23 77 26 77 7z m-2134 -28 l29 -31 -35
7 c-19 4 -41 12 -47 17 -10 8 -13 5 -13 -11 0 -22 -15 -27 -38 -12 -10 6 -3
15 30 34 23 14 43 25 44 26 0 1 13 -13 30 -30z m171 16 c29 -12 33 -18 24 -29
-11 -13 -15 -12 -32 5 -10 10 -23 19 -29 19 -5 0 -10 5 -10 10 0 13 4 13 47
-5z m722 1 c15 -8 33 -22 40 -30 12 -14 4 -16 -78 -16 -99 0 -111 8 -58 40 38
24 59 25 96 6z m428 -8 c13 -12 23 -25 23 -30 0 -4 -31 -8 -70 -8 -38 0 -70 2
-70 5 0 3 7 17 16 30 21 32 69 33 101 3z m839 -54 c-4 -12 -10 -14 -17 -7 -5
5 -7 17 -3 27 4 12 10 14 17 7 5 -5 7 -17 3 -27z m-2275 -14 c5 0 9 -8 9 -18
0 -10 7 -28 16 -40 15 -22 15 -22 -29 -22 l-45 0 9 43 c14 61 21 77 26 55 3
-10 9 -18 14 -18z m197 -136 c-4 -3 -12 5 -18 18 -12 22 -12 22 6 6 10 -10 15
-20 12 -24z m32 16 c0 -11 -2 -20 -4 -20 -2 0 -6 9 -9 20 -3 11 -1 20 4 20 5
0 9 -9 9 -20z m-76 -6 c3 -8 2 -12 -4 -9 -6 3 -10 10 -10 16 0 14 7 11 14 -7z"/>
<path d="M5210 5530 c0 -5 16 -9 35 -8 19 1 35 5 35 10 0 4 -16 8 -35 8 -19 0
-35 -4 -35 -10z"/>
<path d="M5300 5530 c0 -6 47 -10 120 -10 73 0 120 4 120 10 0 6 -47 10 -120
10 -73 0 -120 -4 -120 -10z"/>
<path d="M5590 5529 c-10 -6 0 -9 34 -9 54 0 57 4 11 13 -17 3 -37 2 -45 -4z"/>
<path d="M5888 5523 c7 -3 16 -2 19 1 4 3 -2 6 -13 5 -11 0 -14 -3 -6 -6z"/>
<path d="M4683 5343 c9 -2 23 -2 30 0 6 3 -1 5 -18 5 -16 0 -22 -2 -12 -5z"/>
<path d="M5360 5340 c14 -4 45 -8 70 -8 l45 1 -45 8 c-25 4 -56 7 -70 7 l-25
0 25 -8z"/>
<path d="M4933 5333 c9 -2 25 -2 35 0 9 3 1 5 -18 5 -19 0 -27 -2 -17 -5z"/>
<path d="M5893 5333 c15 -2 39 -2 55 0 15 2 2 4 -28 4 -30 0 -43 -2 -27 -4z"/>
<path d="M4697 5302 c-152 -1 -236 -6 -232 -12 3 -6 16 -10 29 -10 16 0 27
-11 41 -37 10 -21 20 -32 22 -25 4 10 8 10 19 1 12 -10 13 -8 7 7 -4 10 -16
27 -28 36 l-20 17 23 1 c17 0 27 -8 35 -30 6 -16 15 -30 19 -30 12 0 10 28 -2
35 -13 8 -13 25 -1 25 5 0 19 -20 31 -45 12 -25 26 -45 31 -45 12 0 12 1 -7
45 -23 56 -2 69 25 16 21 -40 41 -54 41 -28 0 7 -7 23 -16 35 -14 20 -14 22 0
22 9 0 18 -11 22 -25 3 -13 13 -30 22 -37 13 -11 15 -10 10 7 -3 11 -9 28 -13
38 -13 30 14 19 31 -14 10 -21 19 -28 26 -21 7 7 6 17 -1 31 -11 19 -9 21 19
21 23 0 33 -6 40 -25 5 -14 15 -25 21 -25 7 0 9 10 7 25 -7 37 19 32 27 -5 4
-16 11 -32 16 -35 13 -9 11 39 -3 53 -9 9 7 12 74 12 48 0 90 5 93 10 9 15
-35 17 -408 12z"/>
<path d="M5198 5293 c7 -3 16 -2 19 1 4 3 -2 6 -13 5 -11 0 -14 -3 -6 -6z"/>
<path d="M5248 5293 c6 -2 18 -2 25 0 6 3 1 5 -13 5 -14 0 -19 -2 -12 -5z"/>
<path d="M6161 5261 c-32 -21 3 -29 117 -28 97 2 117 5 117 17 0 12 -20 15
-110 18 -60 1 -116 -2 -124 -7z"/>
<path d="M5527 5223 c-7 -6 -35 -9 -134 -12 -47 -1 -53 -3 -53 -22 0 -18 -4
-20 -25 -15 -18 5 -25 2 -25 -8 0 -21 25 -25 115 -20 78 5 146 6 167 1 26 -5
15 21 -14 36 -27 14 -28 17 -8 12 59 -14 86 -15 100 -6 22 15 6 23 -24 11 -22
-8 -31 -6 -48 10 -22 21 -40 25 -51 13z m-30 -39 c-3 -3 -12 -4 -19 -1 -8 3
-5 6 6 6 11 1 17 -2 13 -5z"/>
<path d="M5876 5223 c-28 -7 -49 -31 -40 -45 11 -18 12 -48 2 -48 -4 0 -8 8
-8 19 0 20 -46 36 -56 20 -3 -5 -14 -3 -24 3 -23 15 -25 12 -33 -29 -7 -36 12
-50 45 -32 11 6 21 9 22 7 1 -2 8 -15 16 -30 16 -32 54 -38 69 -11 9 17 11 16
33 -5 31 -28 68 -29 75 -2 3 11 12 20 19 20 21 0 17 18 -5 25 -10 3 -23 5 -27
4 -23 -4 -32 3 -27 20 3 10 -3 31 -12 45 -15 22 -15 25 -2 20 8 -3 18 -1 22 5
3 6 0 11 -9 11 -8 0 -20 2 -28 4 -7 2 -22 1 -32 -1z m18 -18 c-7 -16 -24 -21
-24 -6 0 8 7 13 27 20 1 1 0 -6 -3 -14z m-4 -87 c-25 -9 -36 -5 -26 10 3 6 16
8 28 4 l22 -5 -24 -9z"/>
<path d="M5209 5215 c-4 -3 -28 -7 -55 -8 -39 -2 -49 -6 -48 -20 1 -9 -1 -17
-5 -17 -12 1 -41 27 -35 32 10 10 -161 5 -174 -5 -33 -26 102 -81 145 -59 10
5 43 8 73 6 75 -4 130 5 130 21 0 7 -6 16 -12 18 -7 3 1 3 18 0 19 -3 35 0 39
7 4 6 5 13 4 15 -8 7 -75 16 -80 10z"/>
<path d="M6105 5159 c-10 -15 3 -25 16 -12 7 7 7 13 1 17 -6 3 -14 1 -17 -5z"/>
<path d="M4675 5150 c-3 -5 -31 -10 -61 -10 -30 0 -54 -4 -54 -10 0 -5 -9 -10
-20 -10 -12 0 -20 -7 -20 -17 0 -16 14 -18 129 -21 104 -2 131 1 141 13 11 13
7 15 -23 15 -20 0 -40 6 -44 13 -15 24 -41 39 -48 27z"/>
<path d="M4785 5130 l-30 -8 32 -1 c17 0 35 4 38 9 7 11 3 11 -40 0z"/>
<path d="M4335 5119 c-4 -6 -5 -12 -2 -15 7 -7 37 7 37 17 0 13 -27 11 -35 -2z"/>
<path d="M3996 4867 c3 -10 9 -15 12 -12 3 3 0 11 -7 18 -10 9 -11 8 -5 -6z"/>
<path d="M4047 4799 c7 -7 15 -10 18 -7 3 3 -2 9 -12 12 -14 6 -15 5 -6 -5z"/>
<path d="M1527 6619 c8 -8 16 -8 30 0 16 9 14 10 -11 11 -22 0 -27 -3 -19 -11z"/>
<path d="M1550 6491 c5 -11 15 -23 21 -27 6 -3 3 5 -6 20 -20 30 -30 35 -15 7z"/>
<path d="M8330 5900 c-12 -8 -10 -10 9 -10 17 0 22 -4 17 -16 -3 -9 -6 -28 -6
-44 0 -27 -3 -29 -70 -40 -84 -14 -165 -5 -191 21 -19 19 -19 19 -19 0 0 -28
114 -52 190 -41 72 11 100 12 100 2 0 -18 -64 -43 -126 -49 -50 -5 -62 -8 -49
-16 29 -16 112 0 149 28 32 25 33 27 32 97 -1 72 -8 86 -36 68z"/>
<path d="M8203 5873 c15 -2 37 -2 50 0 12 2 0 4 -28 4 -27 0 -38 -2 -22 -4z"/>
<path d="M7536 5649 c-22 -5 -45 -14 -52 -20 -15 -12 -24 -68 -12 -75 4 -3 6
-15 3 -27 -8 -29 16 -60 46 -59 46 0 224 61 236 81 10 15 9 20 -2 25 -7 2 -15
17 -17 33 -2 17 -12 32 -28 40 -29 15 -116 15 -174 2z m-12 -38 c3 -5 -1 -12
-10 -15 -22 -9 -24 -8 -24 9 0 16 25 21 34 6z m3 -105 c-4 -9 -11 -16 -17 -16
-15 0 -24 26 -16 47 6 15 8 15 23 1 9 -9 13 -24 10 -32z"/>
<path d="M8725 5622 c-14 -10 -19 -72 -6 -72 14 0 31 33 31 59 0 22 -8 26 -25
13z"/>
<path d="M8254 5564 c-11 -60 26 -72 47 -16 8 21 7 29 -7 39 -27 20 -32 16
-40 -23z"/>
<path d="M8536 5561 c5 -5 27 -12 49 -15 l40 -6 -45 15 c-53 17 -57 18 -44 6z"/>
<path d="M8695 5499 c-16 -6 -52 -8 -80 -5 -40 4 -45 3 -25 -6 31 -12 127 -5
142 10 14 14 5 14 -37 1z"/>
<path d="M7447 5479 c12 -12 24 -21 27 -18 2 2 -8 13 -22 23 l-27 19 22 -24z"/>
<path d="M8983 5482 c-93 -4 -108 -21 -94 -114 4 -27 129 -51 215 -42 82 9
107 33 99 96 -5 45 -8 48 -44 58 -21 6 -54 9 -73 8 -19 -2 -65 -4 -103 -6z
m-33 -66 c0 -8 -4 -18 -10 -21 -5 -3 -10 3 -10 14 0 12 5 21 10 21 6 0 10 -6
10 -14z m7 -62 c-3 -4 -14 -3 -24 0 -15 6 -15 8 -3 16 16 10 39 -4 27 -16z"/>
<path d="M8253 5468 c-23 -30 -24 -41 -2 -21 12 12 20 25 17 28 -3 3 -10 0
-15 -7z"/>
<path d="M9237 5351 c10 -40 -84 -80 -195 -82 -43 -1 -45 -1 -17 -10 17 -5 55
-5 91 0 50 7 70 16 98 42 36 32 44 53 27 63 -5 4 -7 -2 -4 -13z"/>
<path d="M8840 5336 c0 -2 8 -10 18 -17 15 -13 16 -12 3 4 -13 16 -21 21 -21
13z"/>
<path d="M9181 5218 c-1 -15 -5 -16 -27 -8 -14 6 -40 9 -57 9 l-32 -2 30 -4
c58 -7 84 -23 90 -56 4 -18 21 -63 38 -101 22 -49 28 -71 19 -74 -6 -2 -12
-10 -12 -18 0 -17 30 -19 30 -1 0 7 7 4 15 -7 25 -33 17 -7 -19 57 -35 64 -62
139 -69 192 -2 17 -5 22 -6 13z"/>
<path d="M8752 5185 c0 -16 2 -22 5 -12 2 9 2 23 0 30 -3 6 -5 -1 -5 -18z"/>
<path d="M8890 5171 c0 -25 6 -27 13 -6 4 8 2 17 -3 20 -6 4 -10 -3 -10 -14z"/>
<path d="M8927 5159 c7 -7 15 -10 18 -7 3 3 -2 9 -12 12 -14 6 -15 5 -6 -5z"/>
<path d="M8356 5101 c-3 -4 1 -17 9 -27 14 -18 14 -18 15 9 0 26 -13 36 -24
18z"/>
<path d="M8431 5054 c0 -11 3 -14 6 -6 3 7 2 16 -1 19 -3 4 -6 -2 -5 -13z"/>
<path d="M9106 5055 c-3 -8 -1 -15 3 -15 5 0 11 7 15 15 3 8 1 15 -3 15 -5 0
-11 -7 -15 -15z"/>
<path d="M8019 5033 c-13 -16 -12 -17 4 -4 9 7 17 15 17 17 0 8 -8 3 -21 -13z"/>
<path d="M8070 5039 c0 -5 5 -7 10 -4 6 3 10 8 10 11 0 2 -4 4 -10 4 -5 0 -10
-5 -10 -11z"/>
<path d="M9107 4924 c-4 -4 -7 -14 -7 -23 0 -11 3 -12 11 -4 6 6 10 16 7 23
-2 6 -7 8 -11 4z"/>
<path d="M1668 6273 c17 -2 47 -2 65 0 17 2 3 4 -33 4 -36 0 -50 -2 -32 -4z"/>
<path d="M1970 6193 c-163 -33 -311 -92 -318 -126 -2 -9 12 -37 32 -62 19 -26
36 -51 39 -58 2 -8 26 -6 83 7 43 11 95 20 114 22 19 1 53 5 75 8 95 14 280 9
338 -9 32 -9 64 -14 71 -12 16 6 50 147 39 158 -5 4 -49 17 -99 28 -50 11
-102 25 -116 30 -29 11 -221 22 -258 14z m220 -33 c36 -6 88 -14 115 -20 28
-6 67 -13 88 -16 33 -6 38 -10 32 -28 -3 -12 -9 -40 -12 -64 -3 -23 -9 -45
-14 -48 -5 -2 -34 3 -64 12 -107 31 -413 17 -540 -25 -30 -10 -55 -15 -55 -11
0 4 -16 27 -34 51 -40 50 -37 58 33 93 43 21 116 43 221 65 48 10 123 7 230
-9z"/>
<path d="M1890 6119 c0 -5 -5 -7 -12 -3 -8 5 -9 2 -5 -10 4 -10 7 -23 7 -31 0
-11 50 -28 58 -20 8 8 -23 75 -35 75 -7 0 -13 -5 -13 -11z"/>
<path d="M2040 6098 c0 -22 3 -29 9 -20 7 11 9 10 15 -3 8 -21 26 -10 26 16 0
11 -4 17 -10 14 -5 -3 -10 1 -10 9 0 9 -7 16 -15 16 -10 0 -15 -10 -15 -32z"/>
<path d="M2112 6121 c-17 -10 -11 -47 6 -43 7 1 12 -3 12 -10 0 -8 3 -9 11 -1
10 10 2 63 -10 63 -3 0 -12 -4 -19 -9z"/>
<path d="M2180 6115 c0 -8 5 -15 10 -15 6 0 10 -7 10 -17 0 -9 2 -14 5 -11 9
8 -6 58 -16 58 -5 0 -9 -7 -9 -15z"/>
<path d="M2250 6111 c-13 -25 -14 -53 -1 -33 6 10 10 8 14 -8 4 -15 11 -21 21
-17 9 4 16 2 16 -3 0 -6 5 -10 10 -10 15 0 12 26 -5 40 -12 10 -15 10 -15 -1
0 -12 -2 -12 -9 0 -5 7 -6 22 -4 32 7 25 -13 25 -27 0z"/>
<path d="M1980 6095 c0 -28 -16 -34 -23 -7 -3 13 -4 12 -3 -3 1 -11 9 -21 19
-23 13 -3 17 3 17 27 0 17 -2 31 -5 31 -3 0 -5 -11 -5 -25z"/>
<path d="M1820 6076 c0 -22 -4 -35 -10 -31 -6 3 -7 -1 -4 -9 7 -19 24 -11 24
10 0 9 5 12 11 8 8 -4 9 1 4 17 -13 42 -25 45 -25 5z"/>
<path d="M1760 6039 c7 -11 14 -18 17 -15 8 8 -5 36 -17 36 -7 0 -7 -6 0 -21z"/>
<path d="M1534 6344 c9 -8 16 -20 16 -26 0 -6 3 -9 6 -6 8 9 -14 48 -27 48 -6
0 -3 -7 5 -16z"/>
<path d="M1500 5955 c0 -8 5 -15 10 -15 6 0 10 -11 10 -25 0 -14 4 -25 9 -25
5 0 15 -16 22 -35 12 -33 29 -47 29 -25 0 16 -64 139 -72 140 -5 0 -8 -7 -8
-15z"/>
<path d="M1557 5925 c9 -19 20 -35 25 -35 4 0 -2 16 -13 35 -12 19 -23 35 -25
35 -2 0 4 -16 13 -35z"/>
<path d="M1529 5723 c6 -10 22 -31 36 -48 18 -21 23 -24 16 -8 -6 12 -8 28 -5
36 3 8 1 18 -5 22 -7 4 -9 -1 -5 -12 4 -13 1 -12 -12 5 -20 26 -39 30 -25 5z"/>
<path d="M1521 5675 c0 -12 48 -69 54 -63 3 2 -9 20 -25 39 -16 19 -29 30 -29
24z"/>
<path d="M1516 5578 c3 -13 13 -30 20 -39 8 -8 14 -20 14 -26 0 -6 7 -16 15
-23 23 -19 18 0 -15 58 -32 55 -46 67 -34 30z"/>
<path d="M1550 5591 c0 -5 5 -13 10 -16 6 -3 10 -2 10 4 0 5 -4 13 -10 16 -5
3 -10 2 -10 -4z"/>
<path d="M1560 5421 c0 -5 5 -13 10 -16 6 -3 10 -2 10 4 0 5 -4 13 -10 16 -5
3 -10 2 -10 -4z"/>
<path d="M1535 5380 c3 -5 8 -10 11 -10 2 0 4 5 4 10 0 6 -5 10 -11 10 -5 0
-7 -4 -4 -10z"/>
<path d="M1560 5341 c0 -5 5 -13 10 -16 6 -3 10 -2 10 4 0 5 -4 13 -10 16 -5
3 -10 2 -10 -4z"/>
<path d="M2098 5223 c-2 -11 -7 -51 -11 -93 -2 -19 -7 -42 -11 -51 -10 -23 25
-61 54 -60 32 0 24 0 243 -4 103 -2 187 0 188 3 3 32 10 48 24 58 12 9 15 22
11 48 -3 20 -8 52 -11 71 -5 32 -7 34 -32 24 -16 -6 -71 -7 -138 -3 -71 4
-124 3 -143 -4 -16 -5 -34 -7 -38 -2 -12 11 -134 23 -136 13z m42 -18 c10 -12
10 -15 -4 -15 -9 0 -16 7 -16 15 0 8 2 15 4 15 2 0 9 -7 16 -15z m260 -11 c0
-2 -14 -4 -31 -4 -16 0 -28 4 -25 9 5 8 56 3 56 -5z m170 -9 c0 -8 -4 -15 -10
-15 -5 0 -10 7 -10 15 0 8 5 15 10 15 6 0 10 -7 10 -15z m-113 -1 c-3 -3 -12
-4 -19 -1 -8 3 -5 6 6 6 11 1 17 -2 13 -5z m56 -31 c9 -2 17 -11 17 -19 0 -12
-13 -14 -70 -10 -38 3 -72 1 -75 -5 -4 -5 -17 -6 -30 -3 -13 3 -33 1 -44 -5
-16 -9 -26 -8 -46 5 -22 15 -27 15 -48 1 -19 -12 -26 -13 -41 -1 -11 7 -23 15
-29 17 -6 2 -7 9 -3 16 6 9 52 12 179 10 95 -1 180 -4 190 -6z m-73 -69 c0 -8
-9 -14 -20 -14 -19 0 -27 19 -14 33 10 9 34 -4 34 -19z m150 22 c0 -3 -4 -8
-10 -11 -5 -3 -10 -1 -10 4 0 6 5 11 10 11 6 0 10 -2 10 -4z m-335 -15 c7 -12
-12 -24 -25 -16 -11 7 -4 25 10 25 5 0 11 -4 15 -9z m235 -11 c0 -11 -4 -20
-10 -20 -5 0 -10 9 -10 20 0 11 5 20 10 20 6 0 10 -9 10 -20z m57 -46 c-3 -3
-12 -4 -19 -1 -8 3 -5 6 6 6 11 1 17 -2 13 -5z"/>
<path d="M2223 4905 c-10 -11 -10 -16 -1 -21 7 -4 13 -3 15 3 3 7 15 8 41 1
51 -13 102 -16 108 -6 3 4 16 5 29 2 25 -6 65 3 65 15 0 10 -72 11 -85 2 -14
-11 -66 -6 -145 14 -8 2 -21 -2 -27 -10z"/>
<path d="M2715 5350 c-9 -14 45 -33 76 -26 14 3 31 0 36 -5 6 -6 26 -6 58 1
27 6 61 8 77 5 31 -7 39 8 11 21 -28 12 -96 10 -117 -3 -11 -7 -26 -9 -35 -4
-28 14 -99 22 -106 11z"/>
<path d="M2819 5268 c-1 -18 -3 -25 -6 -15 -8 30 -26 19 -19 -13 3 -17 1 -30
-4 -30 -6 0 -10 9 -10 21 0 15 -4 19 -16 15 -13 -5 -15 -1 -10 19 5 20 3 23
-10 18 -12 -4 -14 -14 -10 -37 4 -22 3 -27 -4 -16 -5 8 -10 26 -10 40 0 17 -3
21 -11 13 -7 -7 -8 -26 -4 -52 l7 -40 46 4 c26 2 53 4 60 4 7 1 12 15 13 34
l1 32 15 -37 c17 -42 32 -48 40 -18 5 19 7 19 23 5 15 -14 18 -14 30 0 7 8 9
22 5 32 -7 17 -8 16 -15 -2 -5 -11 -9 -15 -9 -9 -1 5 -7 19 -15 29 -13 18 -14
17 -29 -11 l-16 -29 -1 26 c0 24 -16 49 -32 49 -4 0 -9 -15 -9 -32z"/>
<path d="M2973 5274 c-4 -10 0 -22 10 -29 9 -6 21 -24 26 -38 11 -28 25 -35
36 -17 3 5 12 7 20 3 11 -4 15 3 16 23 l1 29 9 -32 c5 -18 14 -33 19 -33 13 0
12 6 -4 59 -14 49 -36 66 -37 29 0 -12 -3 -18 -5 -11 -3 7 -18 9 -40 6 -35 -6
-50 11 -16 20 12 4 11 5 -6 6 -13 0 -25 -6 -29 -15z"/>
<path d="M3124 5240 c4 -24 8 -45 9 -46 12 -9 57 -12 57 -4 0 5 8 10 18 10 28
0 31 8 20 45 -9 29 -15 33 -44 33 -19 0 -34 -5 -34 -10 0 -6 -7 -4 -17 3 -15
13 -16 10 -9 -31z m63 -22 c-3 -7 -5 -2 -5 12 0 14 2 19 5 13 2 -7 2 -19 0
-25z"/>
<path d="M2745 5150 c-4 -6 -13 -9 -21 -6 -8 3 -14 -1 -14 -8 0 -16 65 -17 89
-2 8 5 16 4 20 -3 4 -6 18 -8 31 -4 38 9 90 6 106 -7 16 -14 48 -5 39 10 -8
14 -2 13 31 -5 15 -8 33 -11 38 -6 6 4 33 7 59 6 26 -1 50 1 52 6 6 9 -54 24
-62 15 -4 -3 -13 0 -21 6 -11 10 -17 9 -27 -5 -10 -13 -14 -15 -17 -5 -5 15
-141 20 -170 6 -10 -5 -19 -4 -23 2 -8 13 -62 13 -70 0 -5 -8 -11 -8 -20 0
-10 8 -15 8 -20 0z"/>
<path d="M2738 5066 c-10 -7 -18 -19 -18 -27 0 -10 3 -10 12 -1 14 14 67 16
88 2 11 -7 2 -10 -33 -10 -30 0 -46 -4 -42 -10 9 -15 91 -12 104 3 8 10 4 19
-19 35 -33 25 -67 28 -92 8z"/>
<path d="M2995 5071 c-3 -3 -21 -4 -40 -3 -19 2 -35 -2 -35 -8 0 -5 7 -10 16
-10 8 0 13 -4 9 -9 -3 -5 3 -12 12 -14 11 -3 8 -5 -9 -6 -16 0 -28 -6 -28 -12
0 -8 19 -10 64 -5 41 4 67 3 71 -4 3 -6 11 -7 18 -3 6 4 28 6 48 4 21 -1 40 3
44 9 4 6 -8 10 -32 11 -35 0 -36 1 -13 10 13 6 27 15 31 21 4 6 12 7 18 4 6
-4 9 -12 6 -17 -4 -5 11 -9 32 -9 l38 1 -28 12 c-16 7 -28 17 -28 22 1 10
-184 16 -194 6z m50 -21 c-3 -5 -18 -10 -33 -9 l-27 1 25 8 c35 11 42 11 35 0z"/>
<path d="M3239 5070 c-19 -13 -8 -18 21 -10 19 4 21 7 9 12 -9 3 -22 2 -30 -2z"/>
<path d="M6143 4863 c15 -2 39 -2 55 0 15 2 2 4 -28 4 -30 0 -43 -2 -27 -4z"/>
<path d="M2075 3870 c-8 -13 5 -13 25 0 13 8 13 10 -2 10 -9 0 -20 -4 -23 -10z"/>
<path d="M2040 3820 c-13 -9 -13 -10 0 -10 8 0 22 5 30 10 13 9 13 10 0 10 -8
0 -22 -5 -30 -10z"/>
<path d="M2185 3800 c-7 -12 12 -12 40 0 18 8 17 9 -7 9 -15 1 -30 -3 -33 -9z"/>
<path d="M2360 3761 c0 -9 30 -24 36 -18 2 1 -6 8 -16 15 -11 7 -20 8 -20 3z"/>
<path d="M8540 3355 c0 -8 7 -15 15 -15 8 0 15 7 15 15 0 8 -7 15 -15 15 -8 0
-15 -7 -15 -15z"/>
<path d="M8730 3339 c0 -17 5 -29 11 -27 6 2 10 7 10 11 -1 4 -1 16 -1 27 0
11 -4 20 -10 20 -5 0 -10 -14 -10 -31z"/>
<path d="M10694 6154 c3 -2062 9 -4290 12 -4951 l6 -1203 142 0 141 0 103 41
102 41 0 4898 0 4897 -102 6 c-57 4 -172 10 -257 13 l-153 7 6 -3749z"/>
<path d="M6055 3915 c143 -48 228 -72 210 -59 -11 8 -37 19 -60 25 -22 6 -57
20 -77 30 -20 10 -54 19 -75 18 l-38 0 40 -14z"/>
<path d="M2415 3898 c11 -8 49 -17 85 -20 36 -3 54 -3 40 0 l-25 5 25 8 c20 6
16 7 -20 8 -25 1 -63 4 -85 7 -37 6 -38 5 -20 -8z"/>
<path d="M5425 3888 c-74 -12 -87 -23 -43 -36 47 -15 102 -19 107 -7 2 6 17
19 32 31 l29 21 -33 0 c-17 0 -59 -4 -92 -9z"/>
<path d="M5755 3880 c10 -11 20 -20 23 -20 3 0 -3 9 -13 20 -10 11 -20 20 -23
20 -3 0 3 -9 13 -20z"/>
<path d="M3701 3876 c2 -2 24 -6 49 -9 30 -4 38 -3 25 3 -19 8 -83 14 -74 6z"/>
<path d="M3905 3866 c39 -7 84 -16 100 -21 29 -7 30 -7 8 9 -14 10 -50 18
-100 21 l-78 5 70 -14z"/>
<path d="M2678 3833 c7 -3 16 -2 19 1 4 3 -2 6 -13 5 -11 0 -14 -3 -6 -6z"/>
<path d="M5798 3828 c16 -20 132 -91 138 -85 7 6 -54 50 -106 77 -29 15 -40
18 -32 8z"/>
<path d="M5080 3819 c-68 -12 -120 -31 -114 -40 3 -5 37 -9 75 -9 49 0 68 -3
63 -11 -4 -7 1 -7 16 1 18 10 20 14 9 21 -11 7 -11 9 2 9 9 0 27 8 39 18 l23
19 -34 0 c-19 0 -54 -3 -79 -8z"/>
<path d="M4455 3810 c-8 -13 5 -13 25 0 13 8 13 10 -2 10 -9 0 -20 -4 -23 -10z"/>
<path d="M4510 3810 c-9 -6 -10 -10 -3 -10 6 0 15 5 18 10 8 12 4 12 -15 0z"/>
<path d="M3995 3800 c-21 -5 -5 -8 54 -9 46 0 82 1 79 4 -9 9 -102 12 -133 5z"/>
<path d="M3362 3777 c-26 -28 -28 -37 -6 -37 9 0 14 6 11 13 -2 6 5 20 16 30
11 9 16 17 10 17 -5 0 -19 -10 -31 -23z"/>
<path d="M3416 3783 c-6 -14 -5 -15 5 -6 7 7 10 15 7 18 -3 3 -9 -2 -12 -12z"/>
<path d="M4540 3789 c0 -5 5 -7 10 -4 6 3 10 8 10 11 0 2 -4 4 -10 4 -5 0 -10
-5 -10 -11z"/>
<path d="M3443 3768 c-4 -7 -14 -13 -22 -13 -8 0 -16 -6 -18 -12 -7 -21 17
-15 49 12 19 16 24 25 14 25 -8 0 -19 -6 -23 -12z"/>
<path d="M4549 3763 c-12 -15 -12 -16 1 -8 11 6 12 5 5 -3 -8 -8 -22 -7 -54 4
-24 8 -54 14 -65 12 -13 -2 7 -12 49 -25 115 -36 118 -37 112 -22 -2 8 2 22
11 32 14 15 13 17 -7 17 -12 0 -20 -4 -16 -9 3 -5 0 -13 -6 -17 -8 -4 -9 -3
-5 4 4 7 2 12 -4 12 -6 0 -8 5 -5 10 10 16 -1 11 -16 -7z"/>
<path d="M3823 3757 c-40 -15 -52 -27 -27 -27 22 0 90 23 100 33 11 11 -38 7
-73 -6z"/>
<path d="M3953 3749 c-34 -4 -70 -13 -80 -19 -15 -10 -14 -11 7 -5 14 3 60 9
103 12 48 4 73 9 65 14 -7 5 -17 8 -23 8 -5 -1 -38 -5 -72 -10z"/>
<path d="M3504 3739 c-3 -6 -17 -8 -30 -5 -13 4 -24 3 -24 -2 0 -9 66 -32 93
-32 8 0 44 -13 79 -30 34 -16 72 -30 83 -29 14 0 7 6 -20 19 l-40 19 30 1 c17
1 35 3 40 5 6 1 28 3 50 4 l40 2 -45 15 c-25 8 -58 11 -74 8 -19 -4 -26 -3
-22 5 9 14 0 14 -27 -1 -21 -11 -21 -10 -7 7 14 17 13 18 -2 12 -9 -3 -18 -1
-20 5 -3 7 -16 5 -37 -6 -33 -18 -68 -15 -56 4 3 5 4 10 1 10 -3 0 -8 -5 -12
-11z m91 -19 c-3 -5 -12 -10 -18 -10 -7 0 -6 4 3 10 19 12 23 12 15 0z"/>
<path d="M5540 3741 c0 -5 15 -20 33 -33 39 -31 128 -75 107 -54 -25 25 -140
96 -140 87z"/>
<path d="M6356 3719 c-15 -9 -16 -13 -5 -20 12 -7 11 -9 -1 -9 -8 0 -26 -9
-40 -20 l-25 -20 65 5 c74 6 172 33 164 46 -3 5 -37 9 -75 9 -44 0 -68 4 -64
10 8 12 5 12 -19 -1z"/>
<path d="M3970 3646 c45 -23 69 -30 78 -23 8 6 12 6 12 -2 0 -15 35 -5 65 16
20 15 20 15 -2 10 -12 -3 -24 0 -25 5 -2 6 -17 4 -39 -5 -33 -13 -37 -13 -69
9 -19 13 -46 24 -60 24 -19 0 -9 -8 40 -34z"/>
<path d="M5715 3600 c10 -11 20 -20 23 -20 3 0 -3 9 -13 20 -10 11 -20 20 -23
20 -3 0 3 -9 13 -20z"/>
<path d="M5812 3580 c-3 -8 -13 -20 -21 -27 -29 -21 -3 -25 81 -14 58 8 88 17
103 31 23 23 31 21 -89 24 -53 1 -70 -2 -74 -14z"/>
<path d="M8760 3195 c0 -37 71 -122 153 -185 60 -46 95 -81 118 -120 23 -37
35 -49 37 -38 4 19 -42 104 -63 116 -65 38 -186 157 -209 206 -17 37 -36 48
-36 21z"/>
<path d="M8521 3096 c-19 -20 -21 -26 -9 -26 19 0 41 25 36 40 -2 6 -14 0 -27
-14z"/>
<path d="M8846 3005 c9 -14 20 -25 25 -25 5 0 2 11 -7 25 -9 14 -20 25 -25 25
-5 0 -2 -11 7 -25z"/>
<path d="M7743 2633 c15 -2 37 -2 50 0 12 2 0 4 -28 4 -27 0 -38 -2 -22 -4z"/>
<path d="M7616 2606 c-62 -15 -73 -35 -19 -37 94 -4 133 7 133 37 0 17 -43 17
-114 0z"/>
</g>
</svg>
