<?xml version="1.0" standalone="no"?>
<!DOCTYPE svg PUBLIC "-//W3C//DTD SVG 20010904//EN"
 "http://www.w3.org/TR/2001/REC-SVG-20010904/DTD/svg10.dtd">
<svg version="1.0" xmlns="http://www.w3.org/2000/svg"
 width="300.000000pt" height="400.000000pt" viewBox="0 0 300.000000 400.000000"
 preserveAspectRatio="xMidYMid meet">
<metadata>
Created by potrace 1.10, written by Peter Selinger 2001-2011
</metadata>
<g transform="translate(0.000000,400.000000) scale(0.100000,-0.100000)"
fill="#000000" stroke="none">
<path d="M1339 3971 c-294 -115 -378 -501 -156 -720 101 -100 193 -135 338
-129 84 3 104 8 165 38 218 107 311 365 210 585 -56 124 -203 234 -324 243
-52 3 -55 3 -37 -11 11 -8 38 -20 60 -27 164 -52 269 -168 297 -330 29 -171
-67 -352 -230 -428 -51 -24 -69 -27 -167 -27 -98 0 -116 3 -165 26 -82 38
-154 109 -192 187 -32 64 -33 72 -33 182 0 105 2 119 27 168 57 110 128 171
253 217 39 15 74 31 80 36 16 16 -78 9 -126 -10z"/>
<path d="M1023 3261 c-260 -94 -460 -335 -556 -671 -55 -190 -62 -260 -62
-610 0 -446 15 -524 106 -570 74 -38 166 -14 208 54 l22 35 -37 48 c-46 59
-86 146 -110 238 -14 54 -18 105 -18 220 1 165 17 261 71 410 26 71 32 80 57
83 l27 3 -17 -38 c-114 -267 -127 -589 -30 -797 105 -227 353 -368 694 -395
367 -28 681 68 845 260 49 57 102 161 126 248 52 189 30 443 -59 654 l-28 67
28 0 c26 0 29 -5 63 -108 54 -162 70 -271 64 -432 -7 -181 -40 -289 -129 -418
-34 -50 -31 -68 17 -111 82 -72 222 -38 254 62 38 119 49 663 18 863 -63 400
-213 671 -457 829 -59 38 -184 95 -208 95 -6 0 -39 -29 -74 -64 -71 -71 -138
-109 -230 -131 -168 -39 -331 8 -456 133 -34 34 -66 62 -70 62 -4 -1 -30 -9
-59 -19z m111 -79 c207 -196 507 -199 714 -7 33 30 67 55 75 55 61 0 203 -85
300 -179 238 -229 350 -616 334 -1146 -7 -212 -23 -368 -40 -405 -15 -31 -73
-70 -104 -70 -36 0 -91 29 -98 51 -4 12 9 44 35 88 134 225 146 560 30 859
-38 99 -66 125 -109 101 -14 -8 -27 -24 -29 -36 -2 -11 12 -67 31 -124 67
-200 82 -370 48 -536 -28 -135 -69 -213 -160 -304 -92 -91 -197 -148 -339
-186 -80 -21 -127 -26 -274 -30 -201 -6 -299 4 -430 47 -232 74 -374 212 -435
424 -19 64 -23 102 -23 211 0 156 15 244 66 392 l37 107 -27 23 c-34 29 -39
29 -76 -4 -35 -32 -71 -127 -102 -272 -29 -129 -30 -333 -4 -446 19 -82 69
-203 105 -254 28 -39 26 -67 -4 -87 -64 -42 -152 -18 -180 49 -26 62 -37 256
-32 539 2 150 7 282 9 293 3 11 9 43 12 70 11 77 54 232 89 315 88 214 231
381 397 464 50 25 101 46 113 46 11 0 43 -22 71 -48z"/>
<path d="M765 1453 c6 -15 238 -1175 259 -1294 9 -54 45 -101 96 -126 43 -23
106 -32 96 -14 -3 5 -25 18 -49 29 -48 22 -94 70 -102 105 -14 66 -216 1098
-224 1143 -4 30 -6 54 -4 54 3 0 50 -23 106 -50 109 -54 243 -93 379 -110 45
-5 85 -16 90 -22 4 -7 7 -241 6 -520 -3 -495 -3 -507 -24 -535 -11 -15 -42
-40 -68 -54 -72 -40 -80 -53 -28 -46 60 7 119 49 143 100 17 40 19 73 19 573
l0 531 -82 7 c-238 21 -447 97 -568 207 -47 43 -55 47 -45 22z"/>
<path d="M2165 1418 c-132 -109 -316 -173 -550 -193 l-80 -7 5 -553 c5 -535 6
-554 25 -576 49 -57 105 -85 154 -77 19 2 11 10 -43 41 -40 22 -72 49 -81 67
-13 25 -15 103 -15 539 0 494 1 511 19 521 11 5 35 10 54 10 102 0 291 53 415
117 46 24 87 42 90 39 9 -9 -229 -1189 -247 -1225 -12 -25 -36 -45 -82 -70
-62 -35 -63 -36 -32 -39 59 -6 156 64 167 121 3 12 63 317 134 677 71 360 129
655 128 656 0 1 -28 -21 -61 -48z"/>
</g>
</svg>
