<?xml version="1.0" standalone="no"?>
<!DOCTYPE svg PUBLIC "-//W3C//DTD SVG 20010904//EN"
 "http://www.w3.org/TR/2001/REC-SVG-20010904/DTD/svg10.dtd">
<svg version="1.0" xmlns="http://www.w3.org/2000/svg"
 width="610.000000pt" height="349.000000pt" viewBox="0 0 610.000000 349.000000"
 preserveAspectRatio="xMidYMid meet">

<g transform="translate(0.000000,349.000000) scale(0.100000,-0.100000)"
fill="#000000" stroke="none">
<path d="M1175 3311 c3 -6 -3 -14 -12 -20 -23 -13 -12 -14 21 -1 34 13 55 4
49 -21 -5 -19 -33 -27 -33 -9 0 14 -67 12 -77 -2 -4 -7 -6 -20 -5 -29 2 -11
-6 -18 -25 -21 -15 -3 -36 -9 -47 -13 -16 -7 -17 -5 -11 16 7 23 -11 6 -83
-80 -12 -14 -13 -13 -9 5 3 16 0 20 -12 17 -9 -2 -47 9 -84 26 -89 40 -142 54
-179 46 -28 -6 -30 -10 -24 -38 18 -88 96 -177 157 -177 15 0 37 -8 50 -19 19
-16 25 -36 40 -152 l18 -134 -60 -125 c-33 -70 -59 -139 -59 -156 0 -40 29
-77 87 -110 44 -27 46 -27 128 -15 88 14 89 13 145 -30 63 -48 148 -62 221
-37 33 11 34 11 84 -45 l51 -57 31 32 c18 18 37 44 43 58 5 14 26 50 45 80 19
30 34 62 35 70 0 9 9 23 20 33 11 9 20 22 20 29 0 9 -3 8 -10 -2 -18 -27 -10
0 19 73 35 86 69 181 81 222 24 84 40 157 40 180 0 14 4 25 9 25 11 0 23 149
15 198 l-6 39 -95 6 c-53 4 -109 13 -126 22 -35 17 -143 20 -153 4 -3 -6 -9
-7 -13 -2 -9 13 -139 89 -183 108 -41 16 -113 21 -103 6z m-55 -234 c0 -18 5
-38 11 -44 7 -7 6 -21 -4 -46 -11 -26 -12 -37 -4 -40 21 -8 50 -75 42 -94 -7
-17 -8 -17 -15 2 -7 18 -9 17 -15 -10 -6 -19 -2 -53 8 -95 28 -106 22 -134
-32 -165 -11 -6 -13 -4 -8 8 9 24 -10 21 -25 -3 -17 -26 -32 -26 -25 1 5 20 5
20 -14 3 -15 -13 -19 -14 -19 -3 -1 10 -4 9 -11 -3 -11 -19 -27 -22 -47 -9
-26 16 -19 360 7 369 6 2 11 11 11 20 0 15 2 15 10 2 9 -13 10 -13 10 0 0 8
18 43 40 78 27 43 46 62 60 62 16 0 20 -7 20 -33z m610 -2 c11 -13 10 -14 -4
-9 -9 3 -16 10 -16 15 0 13 6 11 20 -6z m-72 -155 c-13 -22 -26 -40 -30 -40
-12 0 -10 8 15 45 31 48 43 44 15 -5z m-105 -28 c-3 -20 -9 -41 -13 -45 -3 -4
-5 7 -2 24 3 19 0 34 -8 39 -7 5 -10 15 -6 25 5 14 9 15 20 6 10 -9 13 -24 9
-49z m134 -27 c-4 -8 -11 -15 -17 -15 -7 0 -7 6 0 21 13 23 26 19 17 -6z m103
-31 c-18 -21 -24 -10 -9 18 8 14 14 18 17 10 2 -7 -2 -19 -8 -28z m-853 -36
c-2 -13 -4 -3 -4 22 0 25 2 35 4 23 2 -13 2 -33 0 -45z m403 20 c0 -4 -10 -16
-21 -27 -17 -15 -26 -18 -40 -10 -21 11 -21 11 -14 31 6 15 75 20 75 6z m261
-32 c-11 -26 -31 -36 -31 -14 0 13 31 50 37 44 2 -2 -1 -15 -6 -30z m26 -65
c0 -11 -5 -18 -9 -15 -4 3 -5 11 -1 19 7 21 12 19 10 -4z m-437 -111 c0 -5 -4
-10 -10 -10 -5 0 -10 5 -10 10 0 6 5 10 10 10 6 0 10 -4 10 -10z m220 3 c-1
-19 -56 -60 -67 -50 -7 8 20 46 37 51 25 6 30 6 30 -1z m28 -13 c-7 -10 -14
-17 -17 -15 -4 4 18 35 25 35 2 0 -1 -9 -8 -20z m-8 -64 c0 -2 -8 -10 -17 -17
-16 -13 -17 -12 -4 4 13 16 21 21 21 13z m-117 -20 c4 -10 1 -13 -8 -9 -8 3
-12 9 -9 14 7 12 11 11 17 -5z m-218 -43 c9 9 26 17 37 17 19 0 19 -2 -6 -21
-14 -11 -23 -25 -20 -31 4 -6 1 -14 -7 -18 -10 -7 -10 -11 1 -25 11 -13 10
-18 -6 -30 -10 -8 -23 -15 -29 -15 -5 0 -20 -3 -32 -6 -17 -5 -23 -2 -23 10 0
10 -11 19 -30 23 -16 3 -30 11 -30 17 0 6 -4 5 -9 -3 -7 -10 -9 -7 -8 11 1 16
7 24 15 21 6 -3 12 2 12 10 0 9 9 19 20 22 11 3 20 11 20 16 0 5 10 14 23 18
17 7 26 4 38 -12 16 -19 18 -20 34 -4z"/>
<path d="M1083 3290 c-18 -11 -33 -22 -33 -26 0 -4 60 28 79 43 16 12 -20 -1
-46 -17z"/>
<path d="M1050 3239 c0 -5 5 -7 10 -4 6 3 10 8 10 11 0 2 -4 4 -10 4 -5 0 -10
-5 -10 -11z"/>
<path d="M1910 3089 c-1 -66 -11 -169 -24 -239 -3 -14 -7 -41 -10 -60 -2 -19
-11 -55 -20 -79 -9 -24 -16 -50 -16 -58 0 -8 -9 -33 -19 -56 -11 -24 -23 -56
-27 -72 -4 -17 -10 -34 -14 -40 -4 -5 -11 -25 -15 -43 -4 -18 -15 -41 -24 -50
-10 -9 -24 -33 -31 -52 -11 -29 -92 -162 -110 -180 -3 -3 -20 -22 -38 -41
l-34 -37 31 -60 c17 -34 61 -137 97 -229 76 -193 90 -217 170 -296 82 -83 134
-115 211 -133 38 -9 78 -21 90 -26 36 -18 61 -101 98 -332 8 -55 22 -111 29
-125 8 -14 23 -43 34 -64 29 -54 39 -207 19 -277 -9 -29 -13 -59 -10 -68 4 -9
2 -13 -4 -9 -7 4 -22 -20 -39 -60 -16 -37 -45 -88 -65 -113 -45 -57 -54 -96
-26 -112 33 -17 155 -3 182 22 11 11 26 20 32 20 13 0 23 24 23 55 0 13 9 30
19 37 11 8 25 26 32 41 7 15 16 27 20 27 15 0 30 82 24 123 -4 22 -7 63 -7 91
0 28 -4 56 -9 62 -6 7 -5 39 1 80 5 38 10 92 10 119 0 28 9 83 20 123 11 39
20 80 20 91 0 10 6 24 14 30 12 10 16 5 26 -26 7 -21 28 -73 46 -116 19 -43
34 -85 34 -93 0 -8 4 -22 10 -32 18 -33 70 -272 70 -323 0 -28 -7 -66 -16 -84
-9 -19 -14 -51 -12 -76 l3 -44 57 0 c54 0 60 3 92 39 32 35 35 41 30 87 -2 27
-9 61 -15 76 -5 14 -12 67 -15 117 -3 54 -11 95 -18 101 -6 6 -13 33 -14 60
-2 28 -5 64 -7 80 -5 29 -4 29 9 -5 14 -34 15 -34 15 -8 1 15 -7 49 -18 75
-25 65 -61 272 -61 355 0 97 3 95 -91 87 -88 -8 -91 -9 -96 -42 -2 -12 -10
-42 -18 -67 -8 -25 -26 -101 -41 -170 -27 -129 -34 -151 -34 -109 l-1 24 -20
-27 c-12 -17 -34 -30 -55 -34 -77 -14 -147 86 -164 238 -6 45 -10 89 -10 97 0
8 -6 11 -16 7 -8 -3 -22 1 -30 9 -13 13 -11 16 18 29 51 22 135 44 215 56 40
5 94 15 121 21 l49 10 3 47 c1 26 1 56 0 67 -1 11 -1 94 0 184 l2 164 -33 -6
c-32 -6 -129 -14 -264 -22 -33 -3 -73 -6 -90 -9 -36 -5 -114 -13 -260 -26 -61
-5 -141 -16 -177 -23 -38 -8 -72 -11 -80 -6 -10 7 -9 9 5 9 9 0 17 4 17 9 0 6
-9 8 -20 6 -38 -7 -20 11 23 23 57 16 181 31 467 58 19 2 78 8 130 13 52 5
129 13 170 16 124 10 112 -13 106 218 -4 111 -8 240 -11 287 -3 47 -8 144 -11
215 -7 137 -9 155 -45 328 l-22 107 -61 0 c-65 0 -122 11 -278 53 -53 14 -131
29 -172 33 l-76 7 0 -74z m429 -135 c-7 -8 -26 -22 -43 -31 -34 -17 -76 -52
-76 -64 0 -4 38 -10 85 -14 47 -4 85 -10 85 -14 0 -5 -322 -6 -392 -1 -5 0 -8
4 -8 9 0 5 32 9 71 10 38 0 75 3 80 7 6 4 -7 25 -32 50 -23 24 -40 46 -37 49
3 4 29 -17 58 -45 l52 -52 32 30 c60 57 162 111 125 66z m1 -228 c0 -26 -33
-60 -73 -75 -36 -14 -213 -13 -244 2 -30 14 -29 61 2 64 11 2 14 0 8 -3 -21
-9 -15 -41 10 -48 12 -3 64 -6 115 -6 129 0 171 24 155 88 -6 24 -5 26 10 13
10 -7 17 -23 17 -35z m-78 -147 c80 -13 107 -35 92 -77 -13 -38 -55 -49 -216
-54 -104 -3 -138 -1 -138 8 0 8 43 14 148 19 166 8 208 21 177 55 -17 19 -106
43 -148 40 -60 -5 -177 1 -177 9 0 20 134 19 262 0z m137 -205 c14 -12 -22
-19 -115 -22 -111 -5 -113 -6 -94 -57 9 -24 13 -25 74 -23 37 2 66 -1 68 -7 2
-6 -66 -11 -186 -12 -139 -2 -187 0 -179 8 7 7 46 11 97 10 l86 -2 0 29 c0 46
-21 66 -61 58 -73 -14 -125 -16 -139 -7 -24 17 -6 22 91 27 52 3 95 7 97 9 4
4 256 -7 261 -11z m-65 -176 c21 -29 20 -61 -1 -87 -15 -18 -35 -23 -127 -31
-173 -15 -276 8 -276 61 0 23 55 53 78 44 13 -6 9 -10 -18 -20 -41 -14 -45
-34 -10 -53 19 -10 61 -12 175 -8 127 4 151 7 162 22 16 22 8 54 -21 76 l-21
18 22 0 c12 0 29 -10 37 -22z m96 -438 c0 -5 -4 -10 -9 -10 -4 0 -11 -27 -15
-60 -4 -33 -12 -62 -18 -66 -7 -5 -9 10 -4 50 7 52 6 56 -13 56 -32 0 -25 18
12 29 43 12 47 13 47 1z m-90 -10 c0 -6 -11 -15 -25 -20 -14 -5 -25 -14 -25
-20 0 -7 6 -8 19 0 11 5 22 6 25 2 3 -5 -6 -15 -19 -22 -33 -18 -32 -40 2 -40
19 0 24 -3 16 -11 -6 -6 -21 -9 -34 -7 -21 3 -24 9 -27 54 -3 44 0 52 20 62
30 14 48 15 48 2z m-172 -19 c3 -9 -1 -11 -16 -7 -32 10 -37 -13 -8 -35 14
-11 26 -29 26 -39 0 -22 -28 -53 -41 -45 -15 10 -10 22 11 28 27 7 25 23 -5
43 -14 9 -25 24 -25 33 0 36 47 54 58 22z m42 -8 c0 -14 3 -14 25 1 30 20 33
7 5 -19 -18 -16 -18 -20 -5 -46 21 -40 18 -58 -5 -29 -19 25 -20 25 -20 3 0
-12 -4 -25 -10 -28 -6 -4 -10 22 -10 70 0 48 4 74 10 70 6 -3 10 -13 10 -22z
m-272 -13 c2 -14 8 -31 14 -37 16 -20 0 -62 -27 -75 -14 -6 -27 -9 -29 -7 -8
8 -9 125 -2 138 13 20 41 8 44 -19z m90 18 c16 -16 15 -23 -4 -43 -15 -15 -15
-17 0 -34 9 -10 16 -24 16 -32 0 -9 -8 -4 -20 11 l-20 25 0 -29 c0 -18 -4 -26
-9 -20 -10 11 -22 120 -14 128 10 10 38 7 51 -6z m61 -82 c1 -18 -3 -26 -8
-20 -11 12 -21 91 -12 99 7 8 18 -36 20 -79z m619 -902 c-3 -14 -5 -12 -10 9
-3 19 -2 25 4 19 6 -6 8 -18 6 -28z m69 14 c-3 -8 -6 -5 -6 6 -1 11 2 17 5 13
3 -3 4 -12 1 -19z m36 -27 c4 -29 2 -40 -4 -30 -8 13 -14 88 -5 78 2 -2 6 -24
9 -48z"/>
<path d="M1910 1709 c0 -5 5 -7 10 -4 6 3 10 8 10 11 0 2 -4 4 -10 4 -5 0 -10
-5 -10 -11z"/>
<path d="M1904 1645 c-8 -31 -3 -38 20 -29 20 8 22 54 1 54 -8 0 -17 -11 -21
-25z"/>
<path d="M1995 1709 c-10 -15 3 -25 16 -12 7 7 7 13 1 17 -6 3 -14 1 -17 -5z"/>
<path d="M4600 3143 c-84 -6 -114 -13 -101 -26 6 -6 11 -21 11 -33 0 -11 11
-52 25 -90 24 -65 40 -120 87 -294 28 -102 32 -125 56 -338 4 -40 13 -76 19
-80 6 -4 11 -18 11 -32 1 -14 6 -56 12 -95 14 -85 19 -254 10 -327 -11 -84 -2
-128 29 -140 30 -11 56 -18 91 -23 14 -2 61 -11 105 -20 44 -9 87 -17 95 -17
8 0 31 -4 51 -9 20 -5 50 -11 67 -13 29 -3 30 -2 35 48 5 49 84 237 105 250
18 11 23 -26 16 -124 -8 -114 0 -138 46 -135 33 2 34 -2 31 -67 -4 -53 15 -48
40 10 18 40 20 64 18 167 -2 66 -9 135 -15 153 -8 19 -10 41 -5 54 5 13 -1 56
-15 114 -12 52 -30 160 -39 241 -19 171 -42 305 -54 313 -6 4 -19 44 -36 120
-54 231 -148 358 -277 375 -38 6 -41 5 -22 -7 26 -16 20 -38 -12 -38 -18 0
-22 4 -17 16 7 18 6 18 -64 -2 -18 -5 -21 -3 -16 16 5 19 11 22 44 17 22 -3
39 -2 39 2 0 15 -242 24 -370 14z m419 -291 c3 -4 18 -13 33 -19 33 -15 89
-89 82 -108 -6 -14 -75 -14 -242 0 -42 4 -93 8 -112 9 -24 1 -36 7 -38 19 -2
9 1 17 7 17 5 0 11 15 13 33 2 25 11 36 38 50 29 15 50 17 124 13 50 -3 92
-10 95 -14z m-34 -188 c90 -9 166 -27 162 -37 -2 -6 -25 -18 -52 -27 -51 -17
-72 -40 -36 -40 25 0 36 -17 33 -52 -1 -15 2 -28 8 -28 5 0 7 6 4 14 -3 8 -1
17 5 21 7 3 11 -2 11 -14 0 -12 5 -21 10 -21 6 0 10 -7 10 -15 0 -9 -9 -15
-24 -15 -22 0 -23 -2 -13 -40 6 -22 19 -42 28 -45 16 -5 39 -45 39 -69 0 -25
-47 -45 -132 -57 -93 -13 -202 -5 -195 14 2 7 20 10 48 8 72 -6 121 -5 173 3
68 11 76 15 76 41 0 17 -10 26 -42 38 -33 13 -44 14 -50 4 -6 -9 -8 -9 -8 1 0
6 -7 12 -15 12 -11 0 -15 -12 -16 -42 0 -33 -2 -38 -9 -23 -5 11 -9 32 -9 47
-1 29 -2 29 -91 48 -67 15 -104 29 -97 36 5 6 105 -9 153 -22 18 -5 20 -2 16
29 -4 40 -24 48 -120 51 -83 3 -85 20 -6 46 37 13 82 31 98 41 17 9 50 23 74
30 40 11 51 22 35 32 -5 3 -68 8 -142 11 -137 7 -151 10 -151 27 0 9 95 6 225
-7z m110 -465 c28 -5 64 -20 80 -33 l30 -24 -17 -36 c-18 -36 -25 -40 -108
-54 -61 -10 -188 1 -225 19 -21 10 -31 23 -33 43 -5 43 16 85 47 92 14 3 31 7
36 9 15 4 134 -5 190 -16z m-142 -215 c58 -45 63 -46 92 -34 46 19 159 60 165
60 16 -1 -46 -40 -63 -40 -27 0 -109 -49 -102 -60 8 -13 74 -30 119 -30 22 0
36 -3 33 -7 -10 -9 -105 -4 -152 8 -22 6 -51 13 -65 15 -14 3 -36 9 -50 15
-14 5 -34 9 -45 8 -36 -4 -56 1 -50 11 3 6 -1 13 -9 16 -19 7 -21 55 -4 72 25
25 69 13 131 -34z m454 -71 c-3 -10 -5 -2 -5 17 0 19 2 27 5 18 2 -10 2 -26 0
-35z m36 -133 c3 -11 1 -20 -4 -20 -5 0 -9 9 -9 20 0 11 2 20 4 20 2 0 6 -9 9
-20z"/>
<path d="M4801 2827 c-8 -10 -7 -21 2 -40 10 -22 19 -27 52 -28 22 0 49 -2 60
-4 48 -9 185 -17 185 -11 0 11 -63 61 -72 59 -4 -2 -8 1 -8 6 0 11 -55 31 -85
31 -12 0 -43 -11 -69 -25 -57 -30 -60 -30 -46 -6 5 11 10 22 10 25 0 11 -17 6
-29 -7z m99 -31 c0 -2 -7 -7 -16 -10 -8 -3 -12 -2 -9 4 6 10 25 14 25 6z"/>
<path d="M4980 2550 c0 -5 5 -10 10 -10 6 0 10 5 10 10 0 6 -4 10 -10 10 -5 0
-10 -4 -10 -10z"/>
<path d="M4910 2532 l-45 -16 53 -10 c59 -10 67 -7 57 23 -7 24 -6 24 -65 3z"/>
<path d="M5000 2445 c0 -25 19 -55 36 -55 13 0 13 3 -1 29 -18 36 -35 48 -35
26z"/>
<path d="M4893 2188 c-62 -16 -69 -89 -10 -103 80 -20 192 -22 240 -6 37 12
57 46 42 70 -18 30 -205 57 -272 39z"/>
<path d="M4833 1994 c-10 -27 36 -62 87 -66 25 -2 47 2 49 7 6 13 -85 75 -110
75 -11 0 -22 -7 -26 -16z"/>
<path d="M4340 3117 c-3 -3 -88 -10 -190 -16 -102 -6 -204 -14 -228 -17 l-43
-5 6 -37 c4 -20 9 -54 12 -76 l5 -38 172 6 c94 3 225 11 292 18 l121 11 -9 45
c-4 25 -16 59 -26 76 -15 26 -25 31 -63 34 -25 2 -47 1 -49 -1z m-87 -79 c-3
-24 -9 -47 -14 -52 -7 -8 -3 51 7 82 8 26 12 10 7 -30z m47 18 c0 -8 6 -19 14
-25 12 -10 16 -6 22 21 4 18 9 27 11 21 6 -16 -16 -83 -26 -83 -4 0 -13 10
-19 23 -10 22 -11 22 -11 -5 -1 -16 -6 -28 -12 -28 -8 0 -9 11 -5 31 3 17 6
40 6 51 0 10 5 16 10 13 6 -3 10 -12 10 -19z m-180 1 c0 -7 -5 -18 -10 -23 -8
-8 -6 -15 5 -24 8 -7 15 -17 15 -22 0 -6 -6 -6 -14 1 -11 10 -17 8 -25 -6 -9
-15 -10 -12 -11 19 0 20 3 43 6 52 7 19 34 21 34 3z m43 -69 c8 -5 6 -8 -5 -8
-15 0 -18 8 -16 48 1 47 1 47 5 7 3 -22 10 -43 16 -47z m61 55 c-10 -48 -13
-53 -29 -53 -9 0 -15 9 -15 24 0 38 10 56 31 56 16 0 18 -5 13 -27z m-204 7
c-12 -7 -12 -12 4 -29 10 -11 16 -28 14 -38 -3 -19 -48 -32 -48 -14 0 6 7 8
15 5 23 -9 31 25 10 40 -20 14 -15 46 7 46 9 0 9 -3 -2 -10z m41 -41 l-9 -44
-1 41 c-1 22 2 44 6 47 12 12 13 1 4 -44z"/>
<path d="M4198 3054 c-5 -4 -8 -19 -8 -33 0 -18 3 -22 11 -14 6 6 9 21 7 33
-1 12 -6 18 -10 14z"/>
<path d="M3656 3063 c-3 -3 -94 -5 -204 -4 l-199 0 18 -72 c10 -39 16 -79 14
-88 -3 -9 -1 -29 5 -44 6 -15 12 -48 15 -74 14 -157 21 -213 28 -231 5 -14 13
-67 22 -145 7 -67 16 -186 20 -290 3 -60 7 -119 9 -129 3 -19 14 -20 279 -20
l277 -1 0 100 c0 97 -18 267 -40 370 -6 27 -8 55 -6 61 3 7 2 15 -2 19 -4 3
-11 39 -17 78 l-10 72 -45 1 c-25 1 -72 7 -105 14 -149 30 -199 80 -141 143
35 38 77 56 172 74 l86 16 -6 43 c-3 24 -12 59 -20 77 -13 33 -15 34 -79 34
-36 1 -68 -1 -71 -4z m-223 -344 c63 -4 104 -13 117 -25 13 -13 9 -14 -40 -9
-30 4 -61 8 -67 10 -8 3 -13 -4 -13 -15 0 -38 -17 -20 -32 35 -17 60 -10 84 9
36 7 -17 19 -31 26 -32z m187 -93 c0 -3 -27 -17 -60 -32 -33 -15 -60 -30 -60
-34 0 -11 27 -20 61 -20 16 0 29 -4 29 -10 0 -6 -38 -10 -93 -10 l-94 0 -1 32
c-1 47 14 70 41 62 12 -4 26 -13 32 -20 8 -10 20 -8 60 11 46 22 85 31 85 21z
m218 -91 c25 -8 11 -25 -48 -57 -33 -18 -60 -36 -60 -40 0 -5 24 -8 54 -8 30
0 57 -4 60 -9 9 -14 -134 -18 -145 -5 -10 12 30 52 73 73 31 16 28 31 -6 31
-39 0 -86 12 -86 22 0 8 126 3 158 -7z m-259 -55 c38 -10 49 -35 27 -59 -11
-12 -25 -21 -32 -21 -12 0 -34 -29 -34 -44 0 -3 16 -6 35 -6 19 0 35 -4 35
-10 0 -5 -20 -10 -44 -10 l-44 0 15 -40 c12 -31 21 -40 40 -40 12 0 23 -5 23
-10 0 -6 -27 -8 -72 -4 -94 7 -115 16 -57 23 l45 6 -8 33 c-7 27 -13 32 -37
32 -37 0 -61 9 -61 22 0 7 18 9 47 5 46 -5 83 5 83 22 0 4 -22 11 -50 14 -73
9 -87 19 -82 61 3 26 9 36 26 39 24 4 109 -3 145 -13z m264 -117 c15 -2 27 -8
27 -12 0 -7 -33 -7 -142 -2 -16 0 -28 6 -28 11 0 10 90 12 143 3z m13 -104
c43 -36 -21 -85 -91 -69 -58 13 -84 57 -47 80 21 13 118 6 138 -11z m-248 -85
c23 -16 30 -58 12 -69 -6 -3 -10 4 -10 17 0 54 -46 63 -97 18 -18 -16 -39 -30
-46 -30 -33 0 -50 53 -21 64 12 4 14 1 9 -14 -11 -35 21 -35 60 -1 40 35 60
38 93 15z m272 -44 c0 -29 -2 -30 -44 -30 -64 0 -136 11 -136 22 0 7 66 4 145
-6 5 0 11 9 13 22 5 33 22 27 22 -8z"/>
<path d="M3425 2590 c-10 -16 14 -49 35 -47 24 2 25 6 4 35 -16 24 -29 28 -39
12z"/>
<path d="M3440 2446 c0 -26 1 -26 74 -26 41 0 77 4 80 9 11 18 -25 33 -89 39
-65 5 -65 5 -65 -22z"/>
<path d="M3741 2251 c-23 -6 -23 -7 -7 -24 20 -20 101 -24 112 -5 17 27 -47
45 -105 29z"/>
<path d="M2574 3043 c2 -10 7 -43 11 -73 3 -30 10 -75 15 -100 11 -52 18 -152
35 -460 3 -58 6 -183 6 -278 1 -197 2 -201 77 -203 26 -1 52 0 57 2 6 1 51 4
100 5 50 2 90 4 90 4 0 1 50 3 112 5 61 2 116 6 121 9 6 3 35 7 66 7 31 1 56
4 56 8 0 3 -4 47 -10 96 -10 107 -18 211 -25 357 -3 59 -9 117 -14 130 -4 13
-12 55 -15 93 -4 39 -16 115 -26 170 -11 55 -24 132 -30 170 l-11 70 -310 3
c-292 2 -310 1 -305 -15z m526 -472 c28 -20 70 -77 70 -96 0 -21 -21 -24 -205
-26 -187 -2 -194 0 -195 45 0 48 61 70 127 45 24 -9 30 -7 47 16 10 15 28 31
40 35 28 12 85 2 116 -19z m50 -220 c0 -5 -28 -11 -62 -13 -99 -5 -308 3 -303
12 7 11 365 12 365 1z m-2 -63 c-5 -14 -19 -22 -80 -43 -50 -18 -117 -69 -106
-80 4 -4 55 -6 113 -6 71 1 104 -2 100 -9 -4 -7 -72 -9 -191 -8 -171 3 -187 5
-200 22 -34 47 4 89 66 74 26 -7 65 -30 73 -45 7 -11 16 -8 45 15 57 43 85 59
120 66 17 4 34 12 37 17 9 13 27 11 23 -3z"/>
<path d="M2970 2549 c-19 -34 -5 -66 31 -73 49 -10 137 -7 144 4 4 6 -11 29
-33 50 -35 35 -45 40 -85 40 -37 0 -49 -4 -57 -21z"/>
<path d="M2801 2516 c-23 -28 -6 -46 41 -45 24 1 56 4 73 8 l29 6 -28 19 c-40
26 -98 32 -115 12z"/>
<path d="M2790 2196 c0 -27 21 -36 87 -36 34 0 41 3 36 15 -8 22 -56 45 -93
45 -25 0 -30 -4 -30 -24z"/>
<path d="M4469 2896 c-2 -2 -76 -6 -164 -10 -534 -21 -618 -28 -660 -57 -54
-37 -52 -56 8 -85 42 -20 79 -27 192 -37 164 -14 440 -16 575 -3 52 5 103 8
113 8 9 0 17 3 17 8 0 24 -24 115 -36 138 -10 20 -11 28 -1 34 7 5 2 8 -14 8
-14 0 -28 -2 -30 -4z m-309 -56 c-20 -13 -33 -13 -25 0 3 6 14 10 23 10 15 0
15 -2 2 -10z m86 -12 c4 -6 0 -16 -9 -23 -12 -9 -16 -22 -12 -46 l5 -34 -11
29 c-9 21 -14 25 -20 15 -10 -17 -13 30 -3 55 7 19 40 21 50 4z m30 -23 c-4
-22 -3 -35 4 -35 5 0 10 -4 10 -10 0 -5 -7 -10 -15 -10 -16 0 -19 28 -9 68 10
35 17 26 10 -13z m72 -5 c2 -19 -2 -36 -9 -41 -18 -11 -29 -2 -29 26 0 60 33
73 38 15z m119 -8 c-16 -53 -25 -56 -42 -17 l-13 30 -1 -27 c-1 -16 -4 -28 -9
-28 -4 0 -6 18 -4 40 5 48 13 51 31 8 l13 -33 8 27 c4 14 11 32 15 38 13 22
14 4 2 -38z m-574 28 c-17 -7 -23 -18 -23 -39 0 -16 -5 -33 -12 -37 -8 -5 -9
3 -5 29 5 30 3 37 -11 38 -9 1 -3 5 13 9 42 11 64 11 38 0z m50 3 c-7 -2 -13
-22 -13 -44 0 -32 3 -37 18 -33 13 5 14 4 3 -4 -22 -16 -41 -3 -41 28 0 40 10
60 29 59 10 0 11 -2 4 -6z m65 -19 c7 -45 14 -49 28 -19 l14 30 -3 -34 c-3
-44 -21 -50 -41 -14 l-15 28 -1 -27 c0 -16 -5 -28 -11 -28 -6 0 -8 7 -5 16 3
9 6 29 6 46 0 33 23 35 28 2z m99 1 c2 -17 1 -17 -3 -2 -6 19 -31 17 -26 -2 1
-6 -2 -11 -8 -11 -5 0 -10 9 -10 21 0 28 44 23 47 -6z m263 -52 c-9 -15 -10
-12 -6 16 3 18 7 41 8 50 0 9 3 1 5 -16 2 -18 -1 -41 -7 -50z m-212 46 c-19
-13 -28 -11 -28 5 0 9 7 12 21 9 16 -4 17 -8 7 -14z m-83 -29 c-3 -5 -2 -10 4
-10 5 0 12 6 14 13 4 7 6 8 6 1 1 -14 -27 -39 -35 -31 -7 7 2 37 11 37 4 0 3
-4 0 -10z m80 -18 c-7 -8 -35 7 -35 18 0 6 7 6 20 -2 10 -7 17 -14 15 -16z"/>
<path d="M4205 2819 c-12 -19 5 -23 22 -6 16 16 16 17 1 17 -9 0 -20 -5 -23
-11z"/>
<path d="M4320 2795 c0 -14 5 -25 10 -25 6 0 10 11 10 25 0 14 -4 25 -10 25
-5 0 -10 -11 -10 -25z"/>
<path d="M3965 2581 c2 -40 6 -76 9 -79 3 -3 9 -26 12 -52 l6 -48 102 -4 c55
-3 189 -6 296 -7 107 -1 204 -3 215 -4 17 -2 20 3 18 38 -2 22 -13 81 -25 130
l-23 90 -230 2 c-126 1 -265 3 -307 5 l-78 3 5 -74z m155 -16 c5 -14 16 -25
25 -25 21 0 19 27 -2 33 -14 4 -13 5 4 6 12 0 24 -2 26 -6 8 -14 -12 -53 -27
-53 -8 0 -17 -8 -19 -17 -3 -13 -5 -11 -6 6 l-1 23 -20 -23 c-17 -21 -21 -22
-30 -9 -5 8 -7 27 -4 43 3 15 1 27 -5 27 -5 0 -11 -17 -13 -37 -2 -20 -9 -38
-16 -41 -10 -3 -12 4 -7 32 7 33 5 36 -16 36 -37 0 -12 14 39 21 26 3 50 7 55
8 4 0 12 -10 17 -24z m150 5 c0 -5 -7 -10 -15 -10 -20 0 -19 -16 1 -24 21 -8
14 -50 -8 -54 -10 -2 -18 1 -18 7 0 6 7 11 15 11 21 0 19 17 -5 30 -16 9 -18
15 -10 30 11 21 40 28 40 10z m86 -12 c-14 -44 -11 -51 23 -63 29 -9 32 -13
16 -19 -10 -3 -21 -3 -24 1 -3 4 -16 13 -28 20 -18 10 -22 10 -26 -5 -3 -9 -5
-2 -6 16 -1 41 14 72 36 72 11 0 14 -6 9 -22z m-65 -50 c-10 -32 -10 -32 -6
12 4 54 6 60 12 38 2 -9 0 -31 -6 -50z m91 32 c-2 -16 -6 -30 -8 -30 -2 0 -4
14 -4 30 0 17 4 30 8 30 5 0 7 -13 4 -30z m78 4 c0 -29 -16 -64 -30 -64 -11 0
-13 49 -4 74 10 26 34 19 34 -10z m74 -6 c14 -34 15 -34 31 18 11 34 14 6 4
-32 -13 -45 -26 -64 -33 -43 -16 52 -19 55 -26 24 l-8 -30 -1 32 c-1 30 7 63
15 63 2 0 10 -15 18 -32z m-54 -15 c-11 -17 -11 -17 -6 0 3 10 6 24 7 30 0 9
2 9 5 0 3 -7 0 -20 -6 -30z"/>
<path d="M4076 2545 c-9 -36 3 -53 21 -30 7 11 13 27 13 37 0 27 -27 22 -34
-7z"/>
<path d="M4326 2543 c-6 -14 -5 -15 5 -6 7 7 10 15 7 18 -3 3 -9 -2 -12 -12z"/>
<path d="M4438 2554 c-5 -4 -8 -21 -8 -38 1 -26 2 -28 11 -13 11 19 8 63 -3
51z"/>
<path d="M3998 2338 c-2 -13 0 -44 3 -69 4 -25 8 -106 8 -180 1 -73 5 -136 9
-140 4 -3 52 -11 107 -18 55 -6 109 -13 120 -16 126 -30 276 -74 300 -88 17
-9 49 -26 73 -37 23 -12 42 -26 43 -33 0 -7 4 -4 8 6 9 23 5 145 -9 302 -13
144 -19 211 -19 245 l-1 26 -172 2 c-169 1 -295 7 -410 18 -53 5 -57 4 -60
-18z m170 -85 c-1 -10 1 -24 6 -32 7 -10 12 -6 22 18 7 17 20 31 29 31 21 0
20 -68 -1 -91 -18 -20 -44 -15 -44 8 0 11 -7 7 -21 -11 -21 -26 -43 -32 -67
-18 -10 7 -10 15 1 43 8 19 17 42 20 52 4 10 17 17 32 17 19 0 26 -5 23 -17z
m185 10 c-7 -2 -13 -14 -12 -26 l0 -22 16 23 c19 26 53 30 53 5 0 -11 3 -14 8
-7 13 19 42 25 49 9 5 -13 7 -13 19 2 12 16 15 16 24 3 12 -19 14 -98 1 -84
-5 5 -11 20 -14 34 -4 25 -4 25 -12 3 -4 -13 -14 -23 -21 -23 -8 0 -14 10 -14
23 -1 21 -1 21 -17 -4 -19 -32 -69 -35 -85 -5 -10 18 -12 17 -24 -10 -14 -28
-14 -28 -9 19 4 37 1 47 -10 47 -8 0 -18 -14 -23 -32 -11 -45 -29 -46 -28 -1
1 47 9 53 66 52 25 0 39 -3 33 -6z m-223 -139 c0 -13 -3 -14 -14 -5 -21 18
-32 -6 -12 -28 32 -35 6 -100 -29 -71 -8 7 -15 17 -15 22 0 6 7 5 15 -2 21
-18 32 14 15 45 -7 13 -10 31 -7 39 8 21 47 21 47 0z m35 -36 c-7 -54 -18 -77
-28 -60 -5 8 4 55 18 100 11 31 16 7 10 -40z m89 36 c4 -9 1 -22 -5 -30 -7 -9
-7 -19 1 -34 14 -26 3 -43 -11 -17 -14 23 -39 22 -39 -3 0 -11 -5 -20 -10 -20
-11 0 -3 74 12 103 11 22 44 22 52 1z m43 -22 c-6 -32 2 -54 15 -46 6 4 9 1 6
-7 -3 -8 -13 -14 -24 -14 -21 0 -30 39 -19 82 8 32 28 18 22 -15z m101 5 c4
-32 -21 -77 -42 -77 -21 0 -27 28 -16 72 9 32 15 39 33 36 16 -2 23 -11 25
-31z m41 -35 c-7 -29 -17 -52 -22 -52 -5 0 -7 10 -4 23 3 12 9 39 13 60 4 23
10 35 15 30 6 -6 5 -31 -2 -61z m91 -17 c5 3 12 21 16 40 3 19 10 35 15 35 12
0 11 -9 -7 -63 -9 -26 -20 -47 -25 -47 -5 0 -16 15 -25 33 l-17 32 -9 -32
c-13 -49 -21 -40 -13 15 10 68 17 72 37 24 11 -23 23 -40 28 -37z"/>
<path d="M4125 2240 c-3 -5 -2 -10 4 -10 5 0 13 5 16 10 3 6 2 10 -4 10 -5 0
-13 -4 -16 -10z"/>
<path d="M4206 2227 c-8 -31 -7 -39 3 -33 12 8 21 45 11 51 -4 3 -10 -5 -14
-18z"/>
<path d="M4110 2195 c-7 -9 -10 -18 -7 -21 9 -9 45 6 51 21 7 20 -28 20 -44 0z"/>
<path d="M4370 2218 c0 -19 2 -20 10 -8 13 19 13 30 0 30 -5 0 -10 -10 -10
-22z"/>
<path d="M4220 2109 c0 -5 5 -7 10 -4 6 3 10 8 10 11 0 2 -4 4 -10 4 -5 0 -10
-5 -10 -11z"/>
<path d="M4363 2109 c-7 -7 -13 -24 -13 -38 0 -23 1 -24 16 -9 9 8 14 25 12
37 -2 18 -5 20 -15 10z"/>
<path d="M3005 1920 c3 -5 8 -10 11 -10 2 0 4 5 4 10 0 6 -5 10 -11 10 -5 0
-7 -4 -4 -10z"/>
<path d="M3150 1914 c0 -7 -31 -10 -91 -10 -50 1 -96 -2 -102 -6 -6 -4 -17 -2
-24 3 -8 7 -18 7 -33 -1 -11 -6 -30 -8 -41 -5 -23 8 -149 -13 -149 -24 0 -4
-13 -6 -30 -3 l-30 4 0 -53 c0 -30 -2 -133 -4 -231 -4 -172 -4 -176 17 -182
21 -5 90 10 207 46 52 16 92 19 210 19 80 -1 174 -4 210 -7 37 -3 60 -2 53 3
-8 6 -12 63 -14 188 -1 99 -4 196 -6 215 l-5 35 -76 0 c-42 0 -80 5 -84 10 -5
6 -8 6 -8 -1z m20 -93 c0 -5 -13 -14 -30 -21 -34 -14 -43 -46 -10 -37 11 3 20
1 20 -3 0 -5 -9 -12 -20 -15 -13 -4 -20 -15 -20 -31 0 -21 3 -24 28 -19 26 6
26 6 7 -10 -36 -29 -50 -15 -51 50 0 59 0 60 35 77 43 21 41 20 41 9z m-100
-11 c0 -5 -7 -10 -15 -10 -12 0 -15 -13 -15 -59 0 -33 -4 -62 -9 -66 -6 -3 -8
21 -6 59 3 61 3 64 -18 59 -15 -4 -19 -2 -12 5 18 18 75 28 75 12z m-242 -32
c4 -19 -45 -71 -59 -63 -4 3 -7 24 -6 46 1 38 3 40 32 37 19 -2 31 -9 33 -20z
m29 -47 l-5 -57 33 4 c32 4 33 5 39 63 4 32 11 59 15 59 22 0 55 -85 48 -122
l-4 -23 -8 23 c-9 26 -31 29 -39 5 -4 -14 -17 -18 -48 -18 -24 0 -44 3 -45 8
-2 4 -3 34 -3 68 0 42 3 58 11 53 8 -4 10 -27 6 -63z m-84 -44 c3 -8 1 -20 -4
-28 -6 -10 -9 -7 -9 14 0 29 5 35 13 14z"/>
<path d="M2784 1775 c-11 -27 1 -39 19 -21 17 17 15 36 -4 36 -5 0 -12 -7 -15
-15z"/>
<path d="M3384 1899 c-2 -4 -1 -33 4 -64 5 -31 8 -67 7 -79 -4 -32 -17 -226
-17 -251 -1 -45 -1 -45 67 -40 137 10 302 35 337 49 21 9 45 16 55 16 9 0 35
9 57 19 23 11 84 31 136 44 52 14 108 30 123 36 16 6 65 14 111 17 l82 7 52
-69 c56 -75 122 -192 122 -218 0 -8 12 -41 26 -73 71 -161 55 -428 -45 -730
-10 -32 -24 -83 -31 -113 -12 -50 -28 -78 -117 -202 -47 -64 -30 -77 89 -68
37 3 73 11 79 17 7 7 22 43 35 80 13 39 29 69 38 71 8 2 18 12 21 23 4 10 18
33 33 51 17 20 22 33 15 35 -7 3 -10 10 -8 16 1 7 9 46 15 87 7 41 19 98 25
125 13 49 67 166 91 195 22 27 125 270 126 298 1 15 -2 36 -6 47 -4 11 9 -11
30 -50 20 -38 46 -81 59 -95 35 -39 45 -64 82 -204 29 -109 34 -149 35 -236 0
-58 4 -110 10 -117 18 -22 -3 -229 -26 -247 -7 -6 -32 -46 -56 -89 -38 -71
-41 -80 -27 -94 14 -14 25 -14 90 -3 73 12 75 13 93 52 10 22 31 50 47 64 l30
25 2 382 c1 249 6 413 14 472 16 106 10 196 -15 248 -21 44 -32 48 -26 8 9
-63 -42 -141 -93 -141 -19 0 -83 36 -100 56 -5 6 -15 13 -22 15 -19 6 -163
148 -258 254 -49 55 -94 103 -100 107 -9 7 -33 6 -110 -7 -16 -3 -50 -6 -75
-6 -84 -2 -90 0 -72 29 8 12 42 19 152 29 30 3 56 6 58 8 2 2 -2 11 -8 22 -21
32 -89 73 -158 94 -37 11 -87 26 -112 34 -25 8 -60 13 -78 11 -18 -2 -59 3
-90 11 -31 7 -79 18 -107 25 -27 6 -160 12 -295 15 -135 2 -278 5 -318 7 -40
2 -75 0 -78 -5z m549 -56 c9 -14 -18 -146 -30 -150 -6 -2 -22 15 -35 38 l-23
42 -5 -38 c-3 -21 -11 -40 -17 -43 -10 -3 -13 15 -13 67 0 86 14 92 58 24 l30
-46 7 56 c7 52 16 69 28 50z m57 -23 c0 -32 23 -42 34 -15 3 8 10 15 16 15 15
0 12 -26 -5 -40 -23 -19 -18 -33 22 -60 37 -25 37 -25 11 -28 -17 -2 -35 5
-49 19 -17 17 -23 18 -30 8 -10 -16 -1 -32 13 -23 7 4 8 2 4 -4 -4 -7 -17 -12
-29 -12 -21 0 -23 4 -20 63 4 77 10 107 23 107 6 0 10 -13 10 -30z m-220 -30
c33 -64 22 -150 -11 -88 -11 20 -13 20 -24 5 -15 -21 -35 -22 -36 -2 -3 32 -4
36 -17 44 -10 6 -9 10 7 14 14 3 21 13 21 29 0 26 18 50 32 42 4 -3 17 -23 28
-44z m-194 33 c-8 -8 -12 -9 -40 -12 -8 0 -13 -12 -13 -27 0 -21 4 -25 26 -24
40 3 47 1 31 -10 -8 -5 -25 -10 -37 -10 -21 0 -23 -5 -23 -47 -1 -36 -3 -44
-10 -31 -8 12 -8 149 -1 166 0 1 18 2 38 2 20 0 33 -3 29 -7z m59 -13 c4 -11
6 -39 5 -63 -3 -68 -3 -69 21 -57 11 7 23 9 27 6 10 -11 -12 -25 -43 -28 l-30
-3 -3 83 c-3 78 8 108 23 62z"/>
<path d="M3730 1776 c0 -9 5 -16 10 -16 6 0 10 4 10 9 0 6 -4 13 -10 16 -5 3
-10 -1 -10 -9z"/>
<path d="M4774 1598 c14 -18 47 -53 73 -79 45 -42 210 -219 223 -238 8 -12 53
-35 73 -36 28 -3 67 33 67 61 0 29 -48 224 -60 244 -4 7 -37 19 -72 27 -34 7
-74 16 -88 19 -14 3 -36 7 -50 9 -14 1 -45 5 -70 9 -25 4 -62 9 -83 12 l-38 4
25 -32z"/>
<path d="M2405 1319 c-66 -10 -123 -18 -127 -18 -9 -1 -4 -40 9 -72 6 -14 12
-46 14 -70 1 -24 6 -48 10 -54 4 -5 10 -24 13 -42 8 -36 20 -49 58 -58 33 -8
68 23 68 60 0 14 4 25 8 25 14 0 82 236 70 244 -1 1 -57 -6 -123 -15z"/>
</g>
</svg>
