<?xml version="1.0" standalone="no"?>
<!DOCTYPE svg PUBLIC "-//W3C//DTD SVG 20010904//EN"
 "http://www.w3.org/TR/2001/REC-SVG-20010904/DTD/svg10.dtd">
<svg version="1.0" xmlns="http://www.w3.org/2000/svg"
 width="145.000000pt" height="168.000000pt" viewBox="0 0 145.000000 168.000000"
 preserveAspectRatio="xMidYMid meet">

<g transform="translate(0.000000,168.000000) scale(0.100000,-0.100000)"
fill="#000000" stroke="none">
<path d="M197 1640 c-10 -22 -16 -28 -16 -17 -2 30 -36 16 -39 -16 -3 -27 -16
-35 -27 -17 -9 14 -25 3 -25 -17 0 -9 -7 -21 -16 -28 -11 -8 -17 -30 -19 -72
-2 -49 -8 -68 -30 -97 -33 -43 -28 -53 16 -37 58 20 65 8 24 -41 -14 -16 -25
-36 -25 -43 0 -31 25 -65 54 -76 l31 -11 0 -87 c0 -68 6 -105 29 -174 16 -48
30 -86 33 -84 2 3 -9 40 -24 83 -21 62 -27 98 -27 169 -1 80 1 92 21 112 30
30 38 68 25 117 -10 40 -1 73 19 61 4 -3 17 5 28 17 26 27 27 74 2 87 -16 9
-17 7 -13 -14 5 -26 -6 -33 -24 -15 -8 8 -15 6 -25 -6 -11 -14 -11 -18 6 -30
17 -13 14 -19 -7 -15 -5 0 -8 -5 -8 -12 0 -9 -15 -13 -42 -14 -24 -1 -36 1
-27 3 9 3 19 17 22 32 4 22 3 24 -6 11 -7 -8 -27 -23 -46 -32 -28 -14 -23 -6
35 53 86 88 117 99 193 71 30 -10 70 -34 88 -51 28 -28 101 -163 144 -266 7
-17 28 -42 48 -55 33 -23 41 -24 235 -25 183 -1 231 -4 261 -15 10 -4 115 57
115 66 0 7 -12 0 -50 -25 -22 -16 -52 -17 -269 -14 -211 3 -247 6 -275 21 -24
14 -45 46 -96 150 -43 87 -80 148 -109 178 -34 35 -41 48 -32 59 6 7 9 24 7
37 -3 13 -5 27 -5 32 -1 4 -10 7 -21 7 -13 0 -20 7 -20 19 0 15 -6 18 -32 16
-22 -2 -37 4 -49 19 -17 21 -17 21 -32 -14z m-40 -42 c-3 -7 -5 -2 -5 12 0 14
2 19 5 13 2 -7 2 -19 0 -25z m-63 -398 c10 -13 9 -13 -6 -1 -10 7 -18 21 -17
30 0 13 1 14 6 1 3 -8 11 -22 17 -30z"/>
<path d="M1275 1216 c-27 -13 -59 -31 -70 -41 -11 -9 1 -4 28 10 26 15 69 33
95 40 31 9 39 13 22 14 -14 0 -47 -10 -75 -23z"/>
<path d="M1384 1228 c-5 -8 -2 -9 10 -5 10 4 15 3 11 -3 -3 -6 1 -13 9 -16 13
-5 13 -10 4 -27 -7 -12 -11 -35 -10 -52 7 -80 0 -111 -31 -135 -14 -11 -35
-41 -48 -68 -12 -26 -27 -50 -32 -53 -5 -4 -7 -12 -3 -17 4 -6 2 -19 -4 -29
-5 -10 -28 -60 -50 -112 -43 -102 -85 -165 -104 -158 -7 3 -23 -9 -36 -25 -30
-38 -122 -107 -174 -130 -68 -32 -105 -24 -181 38 -34 28 -50 33 -113 39 -47
4 -72 2 -72 -5 0 -5 6 -9 13 -7 6 1 11 -4 9 -11 -1 -8 2 -11 7 -8 12 8 24 -11
27 -43 2 -13 8 -29 13 -34 12 -12 14 -49 5 -95 -5 -22 -11 -29 -23 -25 -9 3
-12 1 -6 -4 6 -4 16 -21 23 -36 11 -26 11 -27 -9 -17 -11 7 -23 9 -27 6 -3 -3
-1 -6 3 -6 5 0 -6 -11 -25 -25 -22 -16 -41 -23 -53 -19 -14 4 -17 3 -12 -6 5
-8 4 -11 -3 -6 -14 8 -27 -13 -15 -25 6 -6 15 -4 23 6 7 8 18 15 25 15 7 0 28
11 48 24 30 21 38 22 48 10 17 -21 30 -7 19 22 -6 14 -10 34 -10 45 0 32 61
180 76 186 8 3 39 -8 69 -23 l55 -29 30 -93 c40 -123 39 -129 -12 -152 -24
-11 -51 -20 -60 -20 -11 0 -18 -8 -18 -20 0 -18 2 -18 46 -5 38 11 43 11 34 0
-8 -9 -8 -20 -2 -31 9 -16 10 -16 21 3 6 11 21 23 34 26 12 4 35 20 51 36 l28
29 -21 21 c-12 12 -21 27 -21 33 -1 7 -5 45 -10 83 -11 90 -7 106 38 131 20
12 78 58 128 102 91 80 116 115 156 217 11 27 25 64 33 80 7 17 23 56 36 89
13 34 39 75 61 96 21 21 38 47 39 57 5 96 4 161 -3 176 -10 20 -33 23 -44 5z
m-488 -873 c-2 -5 0 -17 4 -25 5 -8 10 -31 14 -50 6 -43 33 -119 47 -136 15
-18 -8 -29 -28 -12 -9 7 -14 8 -10 2 7 -13 -14 -25 -52 -30 -22 -3 -22 -1 7
16 40 25 40 41 2 155 -16 49 -30 90 -30 92 0 1 11 2 25 1 14 -1 24 -7 21 -13z
m-66 -265 c-8 -5 -22 -9 -30 -9 -10 0 -8 3 5 9 27 12 43 12 25 0z"/>
<path d="M493 1055 c0 -8 4 -12 9 -9 5 3 6 10 3 15 -9 13 -12 11 -12 -6z"/>
<path d="M547 1003 c-4 -3 -7 -11 -7 -17 0 -6 5 -5 12 2 6 6 9 14 7 17 -3 3
-9 2 -12 -2z"/>
<path d="M570 980 c-9 -6 -10 -10 -3 -10 6 0 15 5 18 10 8 12 4 12 -15 0z"/>
<path d="M940 983 c0 -6 14 -25 32 -42 17 -17 26 -31 19 -31 -7 0 -9 -5 -6
-11 4 -6 14 -8 23 -4 9 3 13 3 9 -1 -4 -4 1 -17 12 -28 10 -12 22 -34 26 -51
l7 -30 -24 20 c-50 44 -61 47 -20 5 44 -45 56 -78 25 -66 -13 5 -11 0 6 -18
25 -26 23 -30 -14 -27 -15 2 -17 0 -6 -7 24 -17 -10 -20 -46 -5 -18 7 -33 11
-33 9 0 -8 63 -36 82 -36 24 0 49 24 49 47 -4 116 -29 179 -95 243 -25 24 -46
39 -46 33z"/>
<path d="M311 840 c0 -8 4 -22 9 -30 12 -18 12 -2 0 25 -6 13 -9 15 -9 5z"/>
<path d="M190 806 c0 -17 93 -163 139 -218 42 -50 72 -75 119 -98 34 -17 62
-35 62 -41 0 -14 55 -69 70 -69 17 0 7 -87 -15 -134 -20 -41 -46 -56 -116 -64
-46 -6 -54 -10 -57 -29 -3 -20 -1 -22 25 -13 15 5 50 11 77 13 46 3 80 27 39
27 -15 1 -13 4 9 21 18 13 33 39 43 72 17 57 20 117 6 117 -22 0 -72 53 -69
73 2 16 -4 22 -29 28 -17 3 -50 17 -72 30 -50 29 -153 154 -192 232 -25 49
-39 68 -39 53z m280 -640 c0 -2 -13 -6 -30 -8 -16 -3 -30 -1 -30 4 0 4 14 8
30 8 17 0 30 -2 30 -4z"/>
</g>
</svg>
